<svg xmlns="http://www.w3.org/2000/svg" version="1.1" xmlns:xlink="http://www.w3.org/1999/xlink" xmlns:svgjs="http://svgjs.dev/svgjs" width="1440" height="800" preserveAspectRatio="none" viewBox="0 0 1440 800"><g mask="url(&quot;#SvgjsMask1010&quot;)" fill="none"><path d="M0 20C52.82 -20.98 103.28 51.51 200 44.83C248.11 41.51 242.06 10.67 289.66 0C342.06 -11.74 344.83 0 400 0C500 0 500 0 600 0C700 0 700 0 800 0C900 0 900 0 1000 0C1100 0 1100 0 1200 0C1300 0 1300 0 1400 0C1422.22 0 1422.41 -2.57 1444.44 0C1522.41 9.1 1563.37 -23.77 1600 23.33C1641.15 76.23 1600 111.66 1600 200C1600 300 1600 300 1600 400C1600 500 1600 500 1600 600C1600 700 1650 750 1600 800C1550 850 1500 800 1400 800C1300 800 1300 800 1200 800C1100 800 1100 800 1000 800C900 800 900 800 800 800C700 800 700 800 600 800C500 800 500 800 400 800C300 800 300 800 200 800C100 800 50 850 0 800C-50 750 0 700 0 600C0 500 0 500 0 400C0 300 0 300 0 200C0 110 -47.18 56.6 0 20" stroke="rgba(63, 55, 201, 0.5)" stroke-width="2"></path><path d="M600 396.88C597.46 397.82 595.56 397.44 595.56 400C595.56 419 587.58 424.9 600 440C669.8 524.9 675.07 530.51 760 600C775.07 612.33 780.3 599.83 800 603.64C900.3 623.04 900.26 623.87 1000 646.43C1100.26 669.11 1099.27 690.32 1200 694.12C1299.27 697.87 1317.49 697.32 1400 661.54C1426 650.26 1417.02 627.97 1417.02 600C1417.02 590.53 1407.71 594.24 1400 586.67C1305.86 494.24 1307.28 492.64 1213.33 400C1207.28 394.04 1207.7 389.47 1200 389.47C1182.85 389.47 1179.51 389.95 1163.64 400C1079.51 453.28 1074.34 516.13 1000 516.13C943.87 516.13 956.95 452.12 902.7 400C856.95 356.05 856.77 324.59 800 324C705.42 323.03 699.68 359.82 600 396.88" stroke="rgba(63, 55, 201, 0.5)" stroke-width="2"></path><path d="M400 557.14C353.72 557.14 311.11 577.17 311.11 600C311.11 623.6 353.16 650 400 650C472.61 650 550 623.37 550 600C550 576.94 473.16 557.14 400 557.14" stroke="rgba(63, 55, 201, 0.5)" stroke-width="2"></path><path d="M88.89 200C141.12 161.09 140.58 157.38 200 131.03C296.13 88.41 297.24 77.44 400 62.07C497.24 47.52 507.01 90.43 600 71.19C657.01 59.39 644.89 19.62 700 0C744.89 -15.98 750 0 800 0C900 0 900 0 1000 0C1100 0 1100 0 1200 0C1259.65 0 1270.83 -23.72 1319.3 0C1370.83 25.22 1345.56 77.18 1400 97.87C1485.91 130.52 1531.8 71.84 1600 106.67C1631.8 122.91 1600 153.34 1600 200C1600 300 1600 300 1600 400C1600 500 1600 500 1600 600C1600 700 1627.78 727.78 1600 800C1589.32 827.78 1533.72 827.78 1523.08 800C1495.42 727.78 1557.9 683.16 1523.4 600C1496.36 534.82 1458.67 555.08 1400 503.33C1345.31 455.08 1350.93 448.74 1296.67 400C1250.93 358.92 1255.5 328.72 1200 323.68C1107.17 315.26 1090.46 395.62 1000 373.08C890.46 345.78 905.98 238.39 800 224C705.98 211.23 696.31 265.04 600 318.75C538.53 353.04 541.04 357.8 484.44 400C441.04 432.36 447.28 442.35 400 467.86C305.06 519.09 293.61 501.95 200 553.49C173.61 568.02 160 574.43 160 600C160 636.14 165.45 654.72 200 676.92C285.45 731.81 303.56 709.01 400 754.17C434.99 770.55 462.86 787.33 462.86 800C462.86 810.24 431.43 800 400 800C300 800 300 800 200 800C138.46 800 135.59 811.73 76.92 800C35.59 791.73 13.52 795.14 0 760C-24.94 695.14 0 680 0 600C0 500 0 500 0 400C0 340 -22.26 330.09 0 280C22.18 230.09 41.12 235.58 88.89 200" stroke="rgba(63, 55, 201, 0.5)" stroke-width="2"></path><path d="M690.57 800C690.57 769.35 733.99 708.27 800 694.55C888.7 676.12 900.88 711.52 1000 735.71C1100.88 760.33 1100.21 763.29 1200 792.16C1211.32 795.43 1222.22 797.98 1222.22 800C1222.22 801.9 1211.11 800 1200 800C1100 800 1100 800 1000 800C900 800 900 800 800 800C745.29 800 690.57 822.07 690.57 800" stroke="rgba(63, 55, 201, 0.5)" stroke-width="2"></path><path d="M455.56 200C455.56 178.76 530 155.93 600 155.93C642.85 155.93 681.25 178.64 681.25 200C681.25 220.99 642.56 240.63 600 240.63C529.71 240.63 455.56 221.11 455.56 200" stroke="rgba(63, 55, 201, 0.5)" stroke-width="2"></path><path d="M897.44 200C854.99 115.1 831.04 59.47 861.54 0C882.32 -40.53 930.77 0 1000 0C1100 0 1100 0 1200 0C1215.79 0 1221.07 -10.98 1231.58 0C1316.72 89.02 1400.17 127.59 1391.3 200C1384.38 256.54 1297.57 238.71 1200 257.89C1101.92 277.17 1092.35 294.59 1000 276.92C941.07 265.64 924.22 253.56 897.44 200" stroke="rgba(63, 55, 201, 0.5)" stroke-width="2"></path><path d="M1450 200C1522.3 186.06 1529.68 190 1600 190C1604.68 190 1600 195 1600 200C1600 300 1600 300 1600 400C1600 474.08 1638.41 544.31 1600 548.15C1538.41 554.31 1498.3 486.19 1400 420C1388.3 412.12 1380 413.48 1380 400C1380 317.76 1373.76 303.55 1400 228.57C1408.76 203.55 1422.3 205.34 1450 200" stroke="rgba(63, 55, 201, 0.5)" stroke-width="2"></path><path d="M22.22 400C22.22 356.44 117.81 276.92 200 276.92C263.84 276.92 314.29 353.28 314.29 400C314.29 433.43 258.15 437.21 200 437.21C112.12 437.21 22.22 436.59 22.22 400" stroke="rgba(63, 55, 201, 0.5)" stroke-width="2"></path><path d="M0 412.5C15.37 412.5 60 513.52 60 600C60 637.27 17.57 660 0 660C-12.43 660 0 630 0 600C0 506.25 -14.63 412.5 0 412.5" stroke="rgba(63, 55, 201, 0.5)" stroke-width="2"></path><path d="M784.91 800C784.91 795.77 790.32 785.45 800 785.45C834.23 785.45 872.73 796.33 872.73 800C872.73 803.6 836.37 800 800 800C792.45 800 784.91 803.05 784.91 800" stroke="rgba(63, 55, 201, 0.5)" stroke-width="2"></path></g><defs><mask id="SvgjsMask1010"><rect width="1440" height="800" fill="#ffffff"></rect></mask></defs></svg>