<svg xmlns="http://www.w3.org/2000/svg" version="1.1" xmlns:xlink="http://www.w3.org/1999/xlink" xmlns:svgjs="http://svgjs.dev/svgjs" width="1440" height="700" preserveAspectRatio="none" viewBox="0 0 1440 700"><g mask="url(&quot;#SvgjsMask1309&quot;)" fill="none"><path d="M137.09 156.13L241.88 216.63L241.88 337.63L137.09 398.13L32.3 337.63L32.3 216.63zM346.68 156.13L451.47 216.63L451.47 337.63L346.68 398.13L241.88 337.63L241.88 216.63zM451.47 337.63L556.26 398.13L556.26 519.13L451.47 579.63L346.68 519.13L346.68 398.13zM1185.01 156.13L1289.8 216.63L1289.8 337.63L1185.01 398.13L1080.22 337.63L1080.22 216.63z" stroke="rgba(63, 55, 201, 0.65)" stroke-width="2"></path><path d="M124.99 156.13 a12.1 12.1 0 1 0 24.2 0 a12.1 12.1 0 1 0 -24.2 0zM229.78 216.63 a12.1 12.1 0 1 0 24.2 0 a12.1 12.1 0 1 0 -24.2 0zM229.78 337.63 a12.1 12.1 0 1 0 24.2 0 a12.1 12.1 0 1 0 -24.2 0zM124.99 398.13 a12.1 12.1 0 1 0 24.2 0 a12.1 12.1 0 1 0 -24.2 0zM20.2 337.63 a12.1 12.1 0 1 0 24.2 0 a12.1 12.1 0 1 0 -24.2 0zM20.2 216.63 a12.1 12.1 0 1 0 24.2 0 a12.1 12.1 0 1 0 -24.2 0zM334.58 156.13 a12.1 12.1 0 1 0 24.2 0 a12.1 12.1 0 1 0 -24.2 0zM439.37 216.63 a12.1 12.1 0 1 0 24.2 0 a12.1 12.1 0 1 0 -24.2 0zM439.37 337.63 a12.1 12.1 0 1 0 24.2 0 a12.1 12.1 0 1 0 -24.2 0zM334.58 398.13 a12.1 12.1 0 1 0 24.2 0 a12.1 12.1 0 1 0 -24.2 0zM544.16 398.13 a12.1 12.1 0 1 0 24.2 0 a12.1 12.1 0 1 0 -24.2 0zM544.16 519.13 a12.1 12.1 0 1 0 24.2 0 a12.1 12.1 0 1 0 -24.2 0zM439.37 579.63 a12.1 12.1 0 1 0 24.2 0 a12.1 12.1 0 1 0 -24.2 0zM334.58 519.13 a12.1 12.1 0 1 0 24.2 0 a12.1 12.1 0 1 0 -24.2 0zM1172.91 156.13 a12.1 12.1 0 1 0 24.2 0 a12.1 12.1 0 1 0 -24.2 0zM1277.7 216.63 a12.1 12.1 0 1 0 24.2 0 a12.1 12.1 0 1 0 -24.2 0zM1277.7 337.63 a12.1 12.1 0 1 0 24.2 0 a12.1 12.1 0 1 0 -24.2 0zM1172.91 398.13 a12.1 12.1 0 1 0 24.2 0 a12.1 12.1 0 1 0 -24.2 0zM1068.12 337.63 a12.1 12.1 0 1 0 24.2 0 a12.1 12.1 0 1 0 -24.2 0zM1068.12 216.63 a12.1 12.1 0 1 0 24.2 0 a12.1 12.1 0 1 0 -24.2 0z" fill="rgba(63, 55, 201, 0.65)"></path><path d="M84.23 68.08L158.71 111.08L158.71 197.08L84.23 240.08L9.75 197.08L9.75 111.08zM9.75 197.08L84.23 240.08L84.23 326.08L9.75 369.08L-64.73 326.08L-64.73 240.08zM84.23 326.08L158.71 369.08L158.71 455.08L84.23 498.08L9.75 455.08L9.75 369.08zM9.75 455.08L84.23 498.08L84.23 584.08L9.75 627.08L-64.73 584.08L-64.73 498.08zM605.59 -60.92L680.07 -17.92L680.07 68.08L605.59 111.08L531.11 68.08L531.11 -17.92zM680.07 68.08L754.55 111.08L754.55 197.08L680.07 240.08L605.59 197.08L605.59 111.08zM754.55 197.08L829.03 240.08L829.03 326.08L754.55 369.08L680.07 326.08L680.07 240.08zM1052.47 -60.92L1126.95 -17.92L1126.95 68.08L1052.47 111.08L977.99 68.08L977.99 -17.92zM1126.95 326.08L1201.43 369.08L1201.43 455.08L1126.95 498.08L1052.47 455.08L1052.47 369.08zM1052.47 455.08L1126.95 498.08L1126.95 584.08L1052.47 627.08L977.99 584.08L977.99 498.08zM1201.43 197.08L1275.92 240.08L1275.92 326.08L1201.43 369.08L1126.95 326.08L1126.95 240.08zM1275.92 326.08L1350.4 369.08L1350.4 455.08L1275.92 498.08L1201.43 455.08L1201.43 369.08zM1424.88 68.08L1499.36 111.08L1499.36 197.08L1424.88 240.08L1350.4 197.08L1350.4 111.08zM1350.4 197.08L1424.88 240.08L1424.88 326.08L1350.4 369.08L1275.92 326.08L1275.92 240.08zM1424.88 584.08L1499.36 627.08L1499.36 713.08L1424.88 756.08L1350.4 713.08L1350.4 627.08z" stroke="rgba(63, 55, 201, 0.3)" stroke-width="2"></path></g><defs><mask id="SvgjsMask1309"><rect width="1440" height="700" fill="#ffffff"></rect></mask></defs></svg>