<svg width="410" height="400" viewBox="0 0 410 400" fill="none" xmlns="http://www.w3.org/2000/svg">
<path d="M197.62 93.672C139.769 119.064 192.282 164.32 158.883 188.968C125.485 213.616 34.6532 185.128 69.2736 249.136C109.946 324.336 288.041 313.88 326.434 221.656C364.826 129.432 255.504 68.272 197.62 93.672Z" fill="#3F37C9"/>
<path opacity="0.9" d="M197.62 93.672C139.769 119.064 192.282 164.32 158.883 188.968C125.485 213.616 34.6532 185.128 69.2736 249.136C109.946 324.336 288.041 313.88 326.434 221.656C364.826 129.432 255.504 68.272 197.62 93.672Z" fill="white"/>
<path d="M205 342.048C292.808 342.048 363.99 337.994 363.99 332.992C363.99 327.991 292.808 323.936 205 323.936C117.192 323.936 46.0102 327.991 46.0102 332.992C46.0102 337.994 117.192 342.048 205 342.048Z" fill="#F5F5F5"/>
<path d="M334.535 166.608L314.872 167.792L319.964 170.592L211.913 224.696L182.95 214.328L95.3086 257.04L89.3554 259.944L96.2516 263.736L103.476 260.216L183.352 221.288L212.339 231.672L326.827 174.352L330.911 176.592L334.535 166.608Z" fill="#3F37C9"/>
<path d="M331.272 218.792L311.6 219.976L316.2 222.496L184.68 286.336L178.686 289.248L185.607 293.04L192.798 289.552L323.113 226.288L327.639 228.776L331.272 218.792Z" fill="#3F37C9"/>
<path d="M250.461 143.576L230.797 144.76L235.397 147.28L103.869 211.12L97.8752 214.032L104.796 217.824L111.987 214.336L242.302 151.072L246.836 153.56L250.461 143.576Z" fill="#3F37C9"/>
<path opacity="0.3" d="M334.535 166.608L314.872 167.792L319.964 170.592L211.913 224.696L182.95 214.328L95.3086 257.04L89.3554 259.944L96.2516 263.736L103.476 260.216L183.352 221.288L212.339 231.672L326.827 174.352L330.911 176.592L334.535 166.608Z" fill="white"/>
<path opacity="0.7" d="M331.272 218.792L311.6 219.976L316.2 222.496L184.68 286.336L178.686 289.248L185.607 293.04L192.798 289.552L323.113 226.288L327.639 228.776L331.272 218.792Z" fill="white"/>
<path opacity="0.5" d="M250.461 143.576L230.797 144.76L235.397 147.28L103.869 211.12L97.8752 214.032L104.796 217.824L111.987 214.336L242.302 151.072L246.836 153.56L250.461 143.576Z" fill="white"/>
<path d="M78.7036 333.528H318.299L310.427 325.128L293.88 321.168L287.394 310.656L275.717 296.72H261.441L246.336 314.808L225.131 317.408L193.881 325.128L174.611 329.072L167.19 326.032L120.876 329.776L106.165 327.36L78.7036 333.528Z" fill="#263238"/>
<path opacity="0.7" d="M78.7036 333.528H318.299L310.427 325.128L293.88 321.168L287.394 310.656L275.717 296.72H261.441L246.336 314.808L225.131 317.408L193.881 325.128L174.611 329.072L167.19 326.032L120.876 329.776L106.165 327.36L78.7036 333.528Z" fill="white"/>
<path opacity="0.2" d="M106.165 327.36L102.123 331.368L118.556 332.992L122.885 331.368H156.833L165.919 326.488L175.275 329.936L173.635 332.208L218.112 329.936L215.012 323.152L225.131 317.408L236.808 321.136L239.883 325.928L245.934 328.624L246.336 314.808L261.441 296.72L264.475 304.784L274.487 302.2L264.475 312.808L257.833 315.352L255.889 327.528L272.757 321.92L288.107 325.248L293.88 321.168L290.92 327.528L276.43 329.936L271.6 333.528H78.7036L106.165 327.36Z" fill="black"/>
<path d="M236.595 124.528H227.419L223.803 137.824L236.595 124.528Z" fill="#3F37C9"/>
<path d="M247.009 78.384H213.397C208.528 78.384 204.582 82.2344 204.582 86.984V119.776C204.582 124.526 208.528 128.376 213.397 128.376H247.009C251.877 128.376 255.824 124.526 255.824 119.776V86.984C255.824 82.2344 251.877 78.384 247.009 78.384Z" fill="#3F37C9"/>
<path opacity="0.8" d="M247.009 78.4002H213.389C212.231 78.3991 211.085 78.6206 210.016 79.0519C208.946 79.4832 207.975 80.1159 207.156 80.9139C206.337 81.7118 205.688 82.6593 205.245 83.7023C204.802 84.7452 204.574 85.8632 204.574 86.9922V119.792C204.574 122.073 205.502 124.26 207.155 125.873C208.809 127.486 211.051 128.392 213.389 128.392H226.369L223.794 137.848L232.88 128.368H246.992C248.153 128.372 249.302 128.153 250.376 127.723C251.449 127.292 252.425 126.66 253.247 125.861C254.069 125.062 254.721 124.112 255.166 123.067C255.611 122.021 255.84 120.9 255.84 119.768V86.9682C255.831 84.6901 254.897 82.5084 253.241 80.9021C251.585 79.2957 249.344 78.3959 247.009 78.4002Z" fill="white"/>
<path d="M225.902 115.656H213.635V120.224H225.902V115.656Z" fill="#263238"/>
<path opacity="0.4" d="M225.902 115.656H213.635V120.224H225.902V115.656Z" fill="white"/>
<path opacity="0.2" d="M225.115 114.712L222.819 120.224H227.927L225.115 114.712Z" fill="black"/>
<path d="M246.771 113.288H235.069V120.232H246.771V113.288Z" fill="#263238"/>
<path opacity="0.4" d="M246.771 113.288H235.069V120.232H246.771V113.288Z" fill="white"/>
<path opacity="0.2" d="M235.701 113.288L239.12 120.224H232.716L233.93 113.288H235.701Z" fill="black"/>
<path d="M230.199 87.824L222.417 91.072L230.199 94.224V87.824Z" fill="#3F37C9"/>
<path d="M230.502 87.0239H229.895V111.624H230.502V87.0239Z" fill="#263238"/>
<path opacity="0.2" d="M230.502 87.0239H229.895V111.624H230.502V87.0239Z" fill="white"/>
<path d="M230.74 87.048C230.74 87.1524 230.708 87.2545 230.649 87.3414C230.589 87.4282 230.505 87.4959 230.406 87.5358C230.307 87.5758 230.198 87.5862 230.093 87.5659C229.988 87.5455 229.892 87.4952 229.816 87.4214C229.74 87.3475 229.689 87.2534 229.668 87.151C229.647 87.0486 229.658 86.9424 229.699 86.846C229.74 86.7495 229.809 86.667 229.898 86.609C229.987 86.551 230.092 86.52 230.199 86.52C230.342 86.52 230.48 86.5756 230.581 86.6747C230.683 86.7737 230.74 86.908 230.74 87.048Z" fill="#263238"/>
<path d="M235.709 109.488H224.696V120.232H235.709V109.488Z" fill="#263238"/>
<path opacity="0.4" d="M235.709 109.488H224.696V120.232H235.709V109.488Z" fill="white"/>
<path d="M223.188 168.616C223.188 168.616 238.39 167.736 241.711 166.824C245.032 165.912 259.94 158.888 259.94 158.888L262.064 163.088C262.064 163.088 245.811 173.24 241.9 174.536C237.989 175.832 221.031 179.088 221.031 179.088L223.188 168.616Z" fill="#263238"/>
<path opacity="0.4" d="M262.031 163.088C262.031 163.088 245.811 173.24 241.9 174.536C239.44 175.336 231.658 176.984 226.32 178.048C223.27 178.656 221.023 179.088 221.023 179.088L222.474 172.008L223.163 168.616C223.163 168.616 238.366 167.736 241.687 166.824C245.008 165.912 259.94 158.888 259.94 158.888L262.031 163.088Z" fill="white"/>
<path opacity="0.2" d="M226.32 178.048C223.27 178.656 221.023 179.088 221.023 179.088L222.843 174.36C223.643 174.721 224.362 175.233 224.959 175.866C225.555 176.499 226.018 177.24 226.32 178.048Z" fill="black"/>
<path d="M217.571 157.896C215.931 160.496 212.06 162.048 210.289 163.632C208.518 165.216 209.338 170.68 197.792 169.056C186.247 167.432 181.925 169.696 181.925 169.696C181.925 169.696 181.277 167.248 186.353 165.224C186.353 165.224 182.434 165.968 181.31 167.96C181.31 167.96 181.056 161.808 186.23 159.96C191.404 158.112 190.666 150.272 194.34 146.16C198.014 142.048 207.526 139.848 213.044 143.688C218.563 147.528 219.711 154.52 217.571 157.896Z" fill="#263238"/>
<path d="M181.31 218.4C181.31 218.4 209.838 218.584 215.791 215.712C221.744 212.84 221.015 184.512 221.015 184.512L195.668 192.4C195.668 192.4 194.939 206.464 181.31 218.4Z" fill="#263238"/>
<path opacity="0.1" d="M181.31 218.4C181.31 218.4 209.838 218.584 215.791 215.712C221.744 212.84 221.015 184.512 221.015 184.512L195.668 192.4C195.668 192.4 194.939 206.464 181.31 218.4Z" fill="white"/>
<path d="M200.26 170.664C203.089 170.136 207.985 169.064 210.65 169.064C213.315 169.064 215.283 170.544 215.791 171.768C216.3 172.992 201.581 177.832 199.309 176.648C197.038 175.464 196.734 171.32 200.26 170.664Z" fill="#263238"/>
<path opacity="0.1" d="M200.26 170.664C203.089 170.136 207.985 169.064 210.65 169.064C213.315 169.064 215.283 170.544 215.791 171.768C216.3 172.992 201.581 177.832 199.309 176.648C197.038 175.464 196.734 171.32 200.26 170.664Z" fill="white"/>
<path d="M160.039 329.64H161.212L161.54 328.224L165.427 329.936H175.267C175.267 329.936 176.833 328.4 172.143 327.176C171.913 327.115 171.691 327.032 171.478 326.928C169.018 325.784 165.419 321.92 165.419 321.92H160.015C159.849 322.176 159.701 322.444 159.572 322.72C158.99 323.84 157.965 326.28 160.039 329.64Z" fill="#263238"/>
<path d="M159.58 322.68C160.294 321.88 163.541 325.312 165.919 326.472C168.043 327.504 170.429 327.96 171.487 326.912C169.027 325.768 165.05 320.776 165.05 320.776H160.72C160.72 320.776 159.834 322.184 159.58 322.68Z" fill="#FFC2BC"/>
<path d="M164.59 323.152L173.635 304.288L165.812 302.2L160.376 320.808" fill="#FFC2BC"/>
<path d="M167.854 319.288C166.491 319.157 165.143 318.903 163.828 318.528C162.742 318.235 161.724 317.744 160.827 317.08C163.869 301.352 170.814 276.88 181.089 264.8C193.914 216.896 209.395 209.328 209.395 209.328L222.802 212.752C222.802 212.752 222.802 219.808 218.104 228.672C212.585 239.072 201.859 254.84 194.217 267.944C185.377 283.104 175.48 301 167.854 319.288Z" fill="#263238"/>
<path opacity="0.2" d="M206.378 248.232C202.22 254.824 197.866 261.68 194.217 267.944C185.386 283.104 175.521 300.992 167.862 319.28C166.499 319.15 165.152 318.899 163.836 318.528C162.749 318.233 161.728 317.742 160.827 317.08C163.877 301.344 170.814 276.88 181.089 264.792C185 250.2 189.149 239.344 193.044 231.312C196.851 237.404 201.322 243.077 206.378 248.232Z" fill="white"/>
<path d="M221.572 320.84H222.753L223.073 319.432L226.96 321.144H236.8C236.8 321.144 238.374 319.6 233.7 318.4C233.471 318.339 233.248 318.256 233.036 318.152C230.535 317.008 226.976 313.144 226.976 313.144H221.572C221.406 313.401 221.258 313.668 221.129 313.944C220.523 315.04 219.506 317.472 221.572 320.84Z" fill="#263238"/>
<path d="M221.113 313.88C221.826 313.08 225.074 316.512 227.452 317.672C229.575 318.704 231.962 319.16 233.019 318.112C230.518 316.968 226.591 311.968 226.591 311.968H222.22C222.22 311.968 221.4 313.384 221.113 313.88Z" fill="#FFC2BC"/>
<path d="M226.427 314.376L232.15 294.312L224.09 293.52L221.876 312.752" fill="#FFC2BC"/>
<path d="M241.457 248.224C226.107 231.048 198.342 207.2 198.342 207.2C196.26 209.057 194.62 211.334 193.535 213.874C192.45 216.414 191.947 219.154 192.061 221.904C192.175 224.653 192.903 227.345 194.195 229.79C195.487 232.236 197.31 234.377 199.539 236.064C209.458 243.444 219.984 250.013 231.01 255.704C224.319 274.904 222.072 295.616 221.835 308.96C222.904 309.484 224.053 309.838 225.238 310.008C226.661 310.291 228.128 310.291 229.551 310.008C233.429 294.368 239.53 274.152 243.392 259.248C244.729 254.304 244.499 251.104 241.457 248.224Z" fill="#263238"/>
<path opacity="0.2" d="M241.457 248.224C226.107 231.048 198.342 207.2 198.342 207.2C196.26 209.057 194.62 211.334 193.535 213.874C192.45 216.414 191.947 219.154 192.061 221.904C192.175 224.653 192.903 227.345 194.195 229.79C195.487 232.236 197.31 234.377 199.539 236.064C209.458 243.444 219.984 250.013 231.01 255.704C224.319 274.904 222.072 295.616 221.835 308.96C222.904 309.484 224.053 309.838 225.238 310.008C226.661 310.291 228.128 310.291 229.551 310.008C233.429 294.368 239.53 274.152 243.392 259.248C244.729 254.304 244.499 251.104 241.457 248.224Z" fill="white"/>
<path d="M260.465 158.936L264.565 154.088L267.796 159.256C267.796 159.256 263.179 163.2 261.654 162.056L260.465 158.936Z" fill="#EEC1BB"/>
<path d="M270.37 153.912L271.666 158.072L267.828 159.256L264.598 154.088L270.37 153.912Z" fill="#EEC1BB"/>
<path d="M258.193 158.976L260.555 164.344L262.744 163.128L260.58 158.088L258.193 158.976Z" fill="#3F37C9"/>
<path opacity="0.4" d="M258.193 158.976L260.555 164.344L262.744 163.128L260.58 158.088L258.193 158.976Z" fill="white"/>
<path d="M200.203 172.272C200.203 172.272 211.175 176.728 209.928 170.32C209.928 170.32 217.152 169.664 222.86 169.056C222.86 169.056 224.409 183.456 222.327 206.352L223.811 217.424L215.234 220L212.38 211.92L208.952 220.376L191.06 214.904L196.472 204.264C196.472 204.264 195.603 187.68 191.06 178.712C191.06 178.712 191.814 175.512 200.203 172.272Z" fill="#3F37C9"/>
<path d="M201.105 160.088C202.105 163.704 203.335 170.32 200.933 172.736C200.933 172.736 197.563 175.936 207.345 175.608C208.165 177.6 211.486 181.208 211.486 181.208C211.486 181.208 212.126 175.608 211.445 174.16C214.184 171.592 208.608 169.664 208.608 169.664C208.608 169.664 208.116 168.752 208.608 165.944L201.105 160.088Z" fill="#EEC1BB"/>
<path opacity="0.2" d="M204.18 162.488L208.624 165.968C208.495 166.625 208.429 167.291 208.428 167.96C206.829 167.744 204.533 166.048 204.246 164.44C204.101 163.799 204.078 163.137 204.18 162.488Z" fill="black"/>
<path d="M197.948 152.8C199.071 158.64 199.416 161.12 202.827 163.92C207.96 168.128 215.012 165.904 215.685 159.96C216.291 154.6 214.356 145.96 208.19 144.032C206.881 143.574 205.471 143.466 204.105 143.72C202.739 143.973 201.467 144.579 200.422 145.473C199.377 146.368 198.597 147.519 198.162 148.808C197.726 150.096 197.653 151.474 197.948 152.8Z" fill="#EEC1BB"/>
<path d="M203.089 148.624C199.809 152.776 206.566 157.552 199.809 157.28C193.053 157.008 195.783 147.68 199.809 145.536C203.836 143.392 203.089 148.624 203.089 148.624Z" fill="#263238"/>
<path d="M207.46 153.808C207.534 154.304 207.854 154.68 208.173 154.656C208.493 154.632 208.706 154.216 208.633 153.72C208.559 153.224 208.239 152.848 207.911 152.872C207.583 152.896 207.345 153.312 207.46 153.808Z" fill="#263238"/>
<path d="M213.528 153.456C213.594 153.952 213.922 154.328 214.241 154.312C214.561 154.296 214.774 153.864 214.701 153.376C214.627 152.888 214.307 152.496 213.979 152.52C213.651 152.544 213.454 152.96 213.528 153.456Z" fill="#263238"/>
<path d="M213.84 152.56L214.979 152.128C214.979 152.128 214.504 153.104 213.84 152.56Z" fill="#263238"/>
<path d="M211.945 154.4C212.554 155.494 213.303 156.508 214.176 157.416C213.943 157.615 213.668 157.76 213.369 157.841C213.071 157.921 212.758 157.935 212.454 157.88L211.945 154.4Z" fill="#D4827D"/>
<path d="M209.92 159.896C210.193 159.919 210.467 159.919 210.74 159.896C210.759 159.894 210.778 159.888 210.794 159.879C210.811 159.87 210.826 159.857 210.837 159.842C210.849 159.827 210.857 159.81 210.862 159.792C210.866 159.774 210.867 159.755 210.863 159.736C210.857 159.698 210.837 159.663 210.807 159.638C210.777 159.613 210.739 159.6 210.699 159.6C210.065 159.648 209.427 159.557 208.834 159.333C208.241 159.108 207.707 158.757 207.271 158.304C207.244 158.278 207.207 158.264 207.169 158.264C207.131 158.264 207.094 158.278 207.066 158.304C207.052 158.317 207.041 158.332 207.033 158.349C207.025 158.367 207.021 158.385 207.021 158.404C207.021 158.423 207.025 158.441 207.033 158.459C207.041 158.476 207.052 158.491 207.066 158.504C207.811 159.293 208.826 159.788 209.92 159.896Z" fill="#263238"/>
<path d="M205.713 151.152C205.752 151.156 205.792 151.15 205.828 151.134C205.864 151.119 205.895 151.095 205.918 151.064C206.156 150.799 206.457 150.594 206.794 150.469C207.131 150.343 207.495 150.3 207.854 150.344C207.891 150.352 207.93 150.352 207.967 150.345C208.005 150.337 208.04 150.322 208.071 150.3C208.102 150.278 208.128 150.25 208.147 150.218C208.166 150.185 208.178 150.149 208.182 150.112C208.191 150.035 208.17 149.957 208.123 149.895C208.076 149.832 208.006 149.79 207.927 149.776C207.474 149.709 207.01 149.755 206.58 149.91C206.149 150.065 205.767 150.325 205.467 150.664C205.419 150.724 205.396 150.8 205.404 150.876C205.411 150.952 205.449 151.022 205.508 151.072C205.535 151.098 205.568 151.118 205.603 151.132C205.638 151.146 205.676 151.153 205.713 151.152Z" fill="#263238"/>
<path d="M214.897 150.624C214.971 150.627 215.044 150.605 215.102 150.56C215.13 150.533 215.152 150.502 215.167 150.467C215.182 150.432 215.189 150.394 215.189 150.356C215.189 150.318 215.182 150.281 215.167 150.246C215.152 150.211 215.13 150.179 215.102 150.152C214.797 149.79 214.411 149.502 213.973 149.311C213.534 149.119 213.057 149.029 212.577 149.048C212.539 149.052 212.502 149.063 212.469 149.082C212.435 149.1 212.407 149.126 212.384 149.156C212.362 149.186 212.346 149.221 212.338 149.257C212.33 149.294 212.331 149.332 212.339 149.368C212.353 149.445 212.396 149.514 212.46 149.562C212.524 149.609 212.604 149.631 212.683 149.624C213.064 149.613 213.442 149.688 213.788 149.843C214.134 149.999 214.438 150.231 214.676 150.52C214.734 150.581 214.813 150.618 214.897 150.624Z" fill="#263238"/>
<path d="M207.731 152.912L208.87 152.48C208.87 152.48 208.395 153.456 207.731 152.912Z" fill="#263238"/>
<path d="M205.402 145.384C205.402 145.384 204.229 152.264 199.547 153.384C194.865 154.504 198.661 146.312 198.661 146.312C198.661 146.312 199.645 142.584 205.976 142.584C212.306 142.584 219.596 148.856 217.571 157.864C217.74 156.011 217.374 154.148 216.513 152.488C215.111 150.152 213.667 152.192 205.402 145.384Z" fill="#263238"/>
<path d="M197.366 158.464C197.611 158.979 197.964 159.437 198.402 159.811C198.839 160.184 199.352 160.464 199.908 160.632C201.294 160.992 201.9 159.44 201.441 157.888C201.023 156.488 199.801 154.608 198.432 154.952C197.062 155.296 196.661 157.096 197.366 158.464Z" fill="#EEC1BB"/>
<path d="M198.916 172.104C198.916 172.104 200.851 193.936 192.897 208.176C184.943 222.416 181.22 224.56 181.22 224.56L177.94 218.4C177.94 218.4 192.651 202.28 193.11 200.176C193.569 198.072 190.42 178.04 190.42 178.04C192.97 175.702 195.827 173.706 198.916 172.104Z" fill="#263238"/>
<path opacity="0.4" d="M192.897 208.176C184.951 222.4 181.22 224.56 181.22 224.56L177.94 218.4C177.94 218.4 192.651 202.28 193.11 200.176C193.155 198.286 193.029 196.396 192.733 194.528C192.397 191.6 191.913 188.032 191.462 184.968C190.904 181.104 190.42 178.04 190.42 178.04C192.962 175.701 195.81 173.702 198.891 172.096C198.891 172.096 200.851 193.936 192.897 208.176Z" fill="white"/>
<path d="M200.26 170.664C200.26 170.664 197.874 170.952 197.333 172.096C196.792 173.24 191.814 179.296 191.814 179.296L197.03 178.048L193.963 180.704C195.573 185.752 196.671 190.943 197.243 196.2C197.243 196.2 201.892 184 198.883 172.104L200.26 170.664Z" fill="#263238"/>
<path opacity="0.25" d="M200.26 170.664C200.26 170.664 197.874 170.952 197.333 172.096C196.792 173.24 191.814 179.296 191.814 179.296L197.03 178.048L193.963 180.704C195.573 185.752 196.671 190.943 197.243 196.2C197.243 196.2 201.892 184 198.883 172.104L200.26 170.664Z" fill="white"/>
<path d="M213.446 169.52C213.446 169.52 221.646 172.448 222.802 200.424C222.802 200.424 224.647 179.064 223.188 168.616L213.446 169.52Z" fill="#263238"/>
<path opacity="0.4" d="M213.446 169.52C213.446 169.52 221.646 172.448 222.802 200.424C222.802 200.424 224.647 179.064 223.188 168.616L213.446 169.52Z" fill="white"/>
<path d="M210.289 169.056L213.208 168.616C214.397 168.432 223.614 173.496 223.614 173.496L219.161 174.4L222.441 175.552C222.441 175.552 223.581 185.952 222.146 192.448C222.146 192.448 219.498 176.968 214.012 170.704C213.561 170.171 212.991 169.745 212.346 169.459C211.701 169.174 210.997 169.036 210.289 169.056Z" fill="#263238"/>
<path opacity="0.25" d="M210.289 169.056L213.208 168.616C214.397 168.432 223.614 173.496 223.614 173.496L219.161 174.4L222.441 175.552C222.441 175.552 223.581 185.952 222.146 192.448C222.146 192.448 219.498 176.968 214.012 170.704C213.561 170.171 212.991 169.745 212.346 169.459C211.701 169.174 210.997 169.036 210.289 169.056Z" fill="white"/>
<path d="M208.608 169.696C208.608 169.696 211.831 171.888 211.445 174.192L217.915 174.36C217.915 174.36 213.692 170.08 208.608 169.696Z" fill="#3F37C9"/>
<path d="M199.645 178.048L207.345 175.608C207.345 175.608 203.245 172.408 201.999 170.664L199.457 172.528C199.391 172.672 198.637 174.496 199.645 178.048Z" fill="#3F37C9"/>
<path opacity="0.4" d="M208.608 169.696C208.608 169.696 211.831 171.888 211.445 174.192L217.915 174.36C217.915 174.36 213.692 170.08 208.608 169.696Z" fill="white"/>
<path opacity="0.4" d="M199.645 178.048L207.345 175.608C207.345 175.608 203.245 172.408 201.999 170.664L199.457 172.528C199.391 172.672 198.637 174.496 199.645 178.048Z" fill="white"/>
<path d="M162.139 194.824L156.292 192.136L155.603 198.152C155.603 198.152 161.499 199.824 162.385 198.152L162.139 194.824Z" fill="#EEC1BB"/>
<path d="M150.987 194.36L151.618 198.664L155.603 198.152L156.292 192.136L150.987 194.36Z" fill="#EEC1BB"/>
<path d="M160.564 138.856C160.564 138.856 145.845 132.888 132.414 142.304C124.607 147.768 119.646 160.36 102.18 155.464C102.18 155.464 118.088 172.736 128.51 170.576C138.933 168.416 136.842 162.688 157.948 168.312L160.564 138.856Z" fill="#3F37C9"/>
<path d="M155.16 137.28H153.201V332.072H155.16V137.28Z" fill="#263238"/>
<path d="M161.868 137.448C161.801 137.699 161.659 137.925 161.46 138.098C161.261 138.27 161.014 138.381 160.751 138.417C160.487 138.452 160.218 138.41 159.979 138.297C159.74 138.184 159.54 138.003 159.406 137.779C159.272 137.555 159.208 137.297 159.224 137.038C159.24 136.779 159.335 136.53 159.496 136.324C159.656 136.117 159.877 135.961 160.128 135.877C160.38 135.792 160.651 135.782 160.909 135.848C161.252 135.938 161.545 136.157 161.725 136.456C161.904 136.756 161.956 137.112 161.868 137.448Z" fill="#263238"/>
<path d="M183.114 158C183.087 157.999 183.061 157.993 183.036 157.982C183.012 157.971 182.99 157.955 182.972 157.936C182.953 157.916 182.939 157.894 182.93 157.869C182.921 157.844 182.916 157.818 182.917 157.792C182.923 157.742 182.947 157.695 182.984 157.66C183.022 157.625 183.071 157.603 183.122 157.6C183.352 157.6 188.862 157.6 190.83 151.104C191.388 149.18 192.483 147.445 193.994 146.093C195.504 144.741 197.37 143.825 199.383 143.448C199.437 143.441 199.493 143.455 199.536 143.487C199.58 143.519 199.609 143.567 199.617 143.62C199.624 143.673 199.61 143.727 199.577 143.77C199.544 143.812 199.495 143.841 199.44 143.848C197.51 144.218 195.722 145.102 194.275 146.403C192.827 147.703 191.777 149.369 191.24 151.216C189.149 157.928 183.311 158 183.114 158Z" fill="#263238"/>
<path d="M216.308 160.888C216.264 160.887 216.222 160.872 216.187 160.846C216.152 160.82 216.127 160.784 216.115 160.743C216.103 160.701 216.105 160.658 216.121 160.617C216.136 160.577 216.164 160.543 216.201 160.52C216.431 160.376 221.72 156.992 217.726 149.128C214.036 141.856 205.115 142.808 205.025 142.816C204.998 142.819 204.97 142.818 204.944 142.81C204.918 142.803 204.893 142.791 204.872 142.775C204.851 142.759 204.833 142.738 204.82 142.715C204.806 142.692 204.798 142.666 204.795 142.64C204.79 142.611 204.792 142.581 204.8 142.553C204.808 142.524 204.822 142.498 204.842 142.475C204.861 142.452 204.885 142.434 204.913 142.421C204.94 142.408 204.97 142.401 205 142.4C205.09 142.4 214.299 141.408 218.12 148.936C222.286 157.128 216.48 160.808 216.439 160.84C216.422 160.857 216.402 160.87 216.379 160.878C216.356 160.887 216.332 160.89 216.308 160.888Z" fill="#263238"/>
<path opacity="0.2" d="M192.757 194.536C192.421 191.608 191.937 188.04 191.486 184.976C191.775 184.644 192.14 184.383 192.552 184.216C192.552 184.216 195.16 190.168 192.757 194.536Z" fill="black"/>
<path d="M190.445 178.048C190.445 178.048 180.794 192.768 178.629 193.8C176.464 194.832 163.18 194.4 163.18 194.4L162.36 199.296C162.36 199.296 177.505 201.84 181.614 200.424C185.722 199.008 192.544 189.984 192.544 189.984C192.544 189.984 193.52 181.44 190.445 178.048Z" fill="#263238"/>
<path opacity="0.4" d="M190.445 178.048C190.445 178.048 180.794 192.768 178.629 193.8C176.464 194.832 163.18 194.4 163.18 194.4L162.36 199.296C162.36 199.296 177.505 201.84 181.614 200.424C185.722 199.008 192.544 189.984 192.544 189.984C192.544 189.984 193.52 181.44 190.445 178.048Z" fill="white"/>
<path d="M163.229 199.912L164 194.12L161.483 194.072L160.704 199.48L163.229 199.912Z" fill="#3F37C9"/>
<path opacity="0.4" d="M163.229 199.912L164 194.12L161.483 194.072L160.704 199.48L163.229 199.912Z" fill="white"/>
</svg>
