<svg xmlns="http://www.w3.org/2000/svg" version="1.1" xmlns:xlink="http://www.w3.org/1999/xlink" xmlns:svgjs="http://svgjs.dev/svgjs" width="1000" height="500" preserveAspectRatio="none" viewBox="0 0 1000 500"><g mask="url(&quot;#SvgjsMask1164&quot;)" fill="none"><path d="M-93.27 315.1L-93.27 315.1" stroke="rgba(63, 55, 201, 0.5)" stroke-width="1.5"></path><path d="M-93.27 315.1L-84.13 464.22" stroke="rgba(63, 55, 201, 0.5)" stroke-width="1.5"></path><path d="M-93.27 315.1L73.18 334.38" stroke="rgba(63, 55, 201, 0.5)" stroke-width="1.5"></path><path d="M-93.27 315.1L88.97 468.45" stroke="rgba(63, 55, 201, 0.5)" stroke-width="1.5"></path><path d="M-84.13 464.22L-84.13 464.22" stroke="rgba(63, 55, 201, 0.5)" stroke-width="1.5"></path><path d="M-84.13 464.22L-42.25 593.27" stroke="rgba(63, 55, 201, 0.5)" stroke-width="1.5"></path><path d="M-42.25 593.27L-42.25 593.27" stroke="rgba(63, 55, 201, 0.5)" stroke-width="1.5"></path><path d="M-42.25 593.27L88.97 468.45" stroke="rgba(63, 55, 201, 0.5)" stroke-width="1.5"></path><path d="M73.18 334.38L73.18 334.38" stroke="rgba(63, 55, 201, 0.5)" stroke-width="1.5"></path><path d="M73.18 334.38L88.97 468.45" stroke="rgba(63, 55, 201, 0.5)" stroke-width="1.5"></path><path d="M73.18 334.38L183.66 468.59" stroke="rgba(63, 55, 201, 0.5)" stroke-width="1.5"></path><path d="M73.18 334.38L-84.13 464.22" stroke="rgba(63, 55, 201, 0.5)" stroke-width="1.5"></path><path d="M88.97 468.45L88.97 468.45" stroke="rgba(63, 55, 201, 0.5)" stroke-width="1.5"></path><path d="M88.97 468.45L183.66 468.59" stroke="rgba(63, 55, 201, 0.5)" stroke-width="1.5"></path><path d="M183.66 468.59L183.66 468.59" stroke="rgba(63, 55, 201, 0.5)" stroke-width="1.5"></path><path d="M183.66 468.59L213.14 568.46" stroke="rgba(63, 55, 201, 0.5)" stroke-width="1.5"></path><path d="M183.66 468.59L285.65 556.3" stroke="rgba(63, 55, 201, 0.5)" stroke-width="1.5"></path><path d="M183.66 468.59L335.32 459.49" stroke="rgba(63, 55, 201, 0.5)" stroke-width="1.5"></path><path d="M183.66 468.59L317.47 336.53" stroke="rgba(63, 55, 201, 0.5)" stroke-width="1.5"></path><path d="M213.14 568.46L213.14 568.46" stroke="rgba(63, 55, 201, 0.5)" stroke-width="1.5"></path><path d="M213.14 568.46L285.65 556.3" stroke="rgba(63, 55, 201, 0.5)" stroke-width="1.5"></path><path d="M317.47 336.53L317.47 336.53" stroke="rgba(63, 55, 201, 0.5)" stroke-width="1.5"></path><path d="M317.47 336.53L335.32 459.49" stroke="rgba(63, 55, 201, 0.5)" stroke-width="1.5"></path><path d="M317.47 336.53L468.11 293.8" stroke="rgba(63, 55, 201, 0.5)" stroke-width="1.5"></path><path d="M335.32 459.49L335.32 459.49" stroke="rgba(63, 55, 201, 0.5)" stroke-width="1.5"></path><path d="M335.32 459.49L430.36 468.35" stroke="rgba(63, 55, 201, 0.5)" stroke-width="1.5"></path><path d="M335.32 459.49L285.65 556.3" stroke="rgba(63, 55, 201, 0.5)" stroke-width="1.5"></path><path d="M335.32 459.49L436.48 578.74" stroke="rgba(63, 55, 201, 0.5)" stroke-width="1.5"></path><path d="M285.65 556.3L285.65 556.3" stroke="rgba(63, 55, 201, 0.5)" stroke-width="1.5"></path><path d="M285.65 556.3L436.48 578.74" stroke="rgba(63, 55, 201, 0.5)" stroke-width="1.5"></path><path d="M468.11 293.8L468.11 293.8" stroke="rgba(63, 55, 201, 0.5)" stroke-width="1.5"></path><path d="M468.11 293.8L560.84 327.48" stroke="rgba(63, 55, 201, 0.5)" stroke-width="1.5"></path><path d="M468.11 293.8L578.59 201.2" stroke="rgba(63, 55, 201, 0.5)" stroke-width="1.5"></path><path d="M468.11 293.8L577.39 429.17" stroke="rgba(63, 55, 201, 0.5)" stroke-width="1.5"></path><path d="M468.11 293.8L430.36 468.35" stroke="rgba(63, 55, 201, 0.5)" stroke-width="1.5"></path><path d="M468.11 293.8L335.32 459.49" stroke="rgba(63, 55, 201, 0.5)" stroke-width="1.5"></path><path d="M430.36 468.35L430.36 468.35" stroke="rgba(63, 55, 201, 0.5)" stroke-width="1.5"></path><path d="M430.36 468.35L436.48 578.74" stroke="rgba(63, 55, 201, 0.5)" stroke-width="1.5"></path><path d="M436.48 578.74L436.48 578.74" stroke="rgba(63, 55, 201, 0.5)" stroke-width="1.5"></path><path d="M436.48 578.74L555.45 543.6" stroke="rgba(63, 55, 201, 0.5)" stroke-width="1.5"></path><path d="M578.59 201.2L578.59 201.2" stroke="rgba(63, 55, 201, 0.5)" stroke-width="1.5"></path><path d="M578.59 201.2L665.86 186.48" stroke="rgba(63, 55, 201, 0.5)" stroke-width="1.5"></path><path d="M578.59 201.2L560.84 327.48" stroke="rgba(63, 55, 201, 0.5)" stroke-width="1.5"></path><path d="M560.84 327.48L560.84 327.48" stroke="rgba(63, 55, 201, 0.5)" stroke-width="1.5"></path><path d="M560.84 327.48L577.39 429.17" stroke="rgba(63, 55, 201, 0.5)" stroke-width="1.5"></path><path d="M577.39 429.17L577.39 429.17" stroke="rgba(63, 55, 201, 0.5)" stroke-width="1.5"></path><path d="M577.39 429.17L682.23 431.91" stroke="rgba(63, 55, 201, 0.5)" stroke-width="1.5"></path><path d="M555.45 543.6L555.45 543.6" stroke="rgba(63, 55, 201, 0.5)" stroke-width="1.5"></path><path d="M555.45 543.6L666.94 551.92" stroke="rgba(63, 55, 201, 0.5)" stroke-width="1.5"></path><path d="M688.6 -39.41L688.6 -39.41" stroke="rgba(63, 55, 201, 0.5)" stroke-width="1.5"></path><path d="M688.6 -39.41L682.1 92.12" stroke="rgba(63, 55, 201, 0.5)" stroke-width="1.5"></path><path d="M688.6 -39.41L842.75 -55.63" stroke="rgba(63, 55, 201, 0.5)" stroke-width="1.5"></path><path d="M688.6 -39.41L807.28 65.64" stroke="rgba(63, 55, 201, 0.5)" stroke-width="1.5"></path><path d="M682.1 92.12L682.1 92.12" stroke="rgba(63, 55, 201, 0.5)" stroke-width="1.5"></path><path d="M682.1 92.12L665.86 186.48" stroke="rgba(63, 55, 201, 0.5)" stroke-width="1.5"></path><path d="M682.1 92.12L807.28 65.64" stroke="rgba(63, 55, 201, 0.5)" stroke-width="1.5"></path><path d="M682.1 92.12L793.48 158.31" stroke="rgba(63, 55, 201, 0.5)" stroke-width="1.5"></path><path d="M665.86 186.48L665.86 186.48" stroke="rgba(63, 55, 201, 0.5)" stroke-width="1.5"></path><path d="M665.86 186.48L793.48 158.31" stroke="rgba(63, 55, 201, 0.5)" stroke-width="1.5"></path><path d="M665.86 186.48L560.84 327.48" stroke="rgba(63, 55, 201, 0.5)" stroke-width="1.5"></path><path d="M665.86 186.48L807.28 65.64" stroke="rgba(63, 55, 201, 0.5)" stroke-width="1.5"></path><path d="M682.23 431.91L682.23 431.91" stroke="rgba(63, 55, 201, 0.5)" stroke-width="1.5"></path><path d="M682.23 431.91L796.07 455.94" stroke="rgba(63, 55, 201, 0.5)" stroke-width="1.5"></path><path d="M682.23 431.91L666.94 551.92" stroke="rgba(63, 55, 201, 0.5)" stroke-width="1.5"></path><path d="M682.23 431.91L560.84 327.48" stroke="rgba(63, 55, 201, 0.5)" stroke-width="1.5"></path><path d="M682.23 431.91L555.45 543.6" stroke="rgba(63, 55, 201, 0.5)" stroke-width="1.5"></path><path d="M666.94 551.92L666.94 551.92" stroke="rgba(63, 55, 201, 0.5)" stroke-width="1.5"></path><path d="M666.94 551.92L792.66 576.78" stroke="rgba(63, 55, 201, 0.5)" stroke-width="1.5"></path><path d="M842.75 -55.63L842.75 -55.63" stroke="rgba(63, 55, 201, 0.5)" stroke-width="1.5"></path><path d="M842.75 -55.63L926.21 -83.32" stroke="rgba(63, 55, 201, 0.5)" stroke-width="1.5"></path><path d="M842.75 -55.63L807.28 65.64" stroke="rgba(63, 55, 201, 0.5)" stroke-width="1.5"></path><path d="M807.28 65.64L807.28 65.64" stroke="rgba(63, 55, 201, 0.5)" stroke-width="1.5"></path><path d="M807.28 65.64L793.48 158.31" stroke="rgba(63, 55, 201, 0.5)" stroke-width="1.5"></path><path d="M807.28 65.64L932.04 40.73" stroke="rgba(63, 55, 201, 0.5)" stroke-width="1.5"></path><path d="M807.28 65.64L915.16 201.75" stroke="rgba(63, 55, 201, 0.5)" stroke-width="1.5"></path><path d="M793.48 158.31L793.48 158.31" stroke="rgba(63, 55, 201, 0.5)" stroke-width="1.5"></path><path d="M793.48 158.31L915.16 201.75" stroke="rgba(63, 55, 201, 0.5)" stroke-width="1.5"></path><path d="M793.48 158.31L843.35 291.99" stroke="rgba(63, 55, 201, 0.5)" stroke-width="1.5"></path><path d="M793.48 158.31L932.04 40.73" stroke="rgba(63, 55, 201, 0.5)" stroke-width="1.5"></path><path d="M843.35 291.99L843.35 291.99" stroke="rgba(63, 55, 201, 0.5)" stroke-width="1.5"></path><path d="M843.35 291.99L915.16 201.75" stroke="rgba(63, 55, 201, 0.5)" stroke-width="1.5"></path><path d="M843.35 291.99L906.87 406.74" stroke="rgba(63, 55, 201, 0.5)" stroke-width="1.5"></path><path d="M843.35 291.99L796.07 455.94" stroke="rgba(63, 55, 201, 0.5)" stroke-width="1.5"></path><path d="M796.07 455.94L796.07 455.94" stroke="rgba(63, 55, 201, 0.5)" stroke-width="1.5"></path><path d="M796.07 455.94L792.66 576.78" stroke="rgba(63, 55, 201, 0.5)" stroke-width="1.5"></path><path d="M792.66 576.78L792.66 576.78" stroke="rgba(63, 55, 201, 0.5)" stroke-width="1.5"></path><path d="M926.21 -83.32L926.21 -83.32" stroke="rgba(63, 55, 201, 0.5)" stroke-width="1.5"></path><path d="M926.21 -83.32L932.04 40.73" stroke="rgba(63, 55, 201, 0.5)" stroke-width="1.5"></path><path d="M926.21 -83.32L1048.21 -51.62" stroke="rgba(63, 55, 201, 0.5)" stroke-width="1.5"></path><path d="M926.21 -83.32L807.28 65.64" stroke="rgba(63, 55, 201, 0.5)" stroke-width="1.5"></path><path d="M926.21 -83.32L1040.98 72.52" stroke="rgba(63, 55, 201, 0.5)" stroke-width="1.5"></path><path d="M926.21 -83.32L688.6 -39.41" stroke="rgba(63, 55, 201, 0.5)" stroke-width="1.5"></path><path d="M932.04 40.73L932.04 40.73" stroke="rgba(63, 55, 201, 0.5)" stroke-width="1.5"></path><path d="M932.04 40.73L1040.98 72.52" stroke="rgba(63, 55, 201, 0.5)" stroke-width="1.5"></path><path d="M932.04 40.73L842.75 -55.63" stroke="rgba(63, 55, 201, 0.5)" stroke-width="1.5"></path><path d="M932.04 40.73L1048.21 -51.62" stroke="rgba(63, 55, 201, 0.5)" stroke-width="1.5"></path><path d="M932.04 40.73L915.16 201.75" stroke="rgba(63, 55, 201, 0.5)" stroke-width="1.5"></path><path d="M915.16 201.75L915.16 201.75" stroke="rgba(63, 55, 201, 0.5)" stroke-width="1.5"></path><path d="M915.16 201.75L1032.86 168.56" stroke="rgba(63, 55, 201, 0.5)" stroke-width="1.5"></path><path d="M906.87 406.74L906.87 406.74" stroke="rgba(63, 55, 201, 0.5)" stroke-width="1.5"></path><path d="M906.87 406.74L796.07 455.94" stroke="rgba(63, 55, 201, 0.5)" stroke-width="1.5"></path><path d="M906.87 406.74L1047.58 423.3" stroke="rgba(63, 55, 201, 0.5)" stroke-width="1.5"></path><path d="M906.87 406.74L960.05 545.23" stroke="rgba(63, 55, 201, 0.5)" stroke-width="1.5"></path><path d="M906.87 406.74L1086.61 332.63" stroke="rgba(63, 55, 201, 0.5)" stroke-width="1.5"></path><path d="M960.05 545.23L960.05 545.23" stroke="rgba(63, 55, 201, 0.5)" stroke-width="1.5"></path><path d="M960.05 545.23L1087.44 536.13" stroke="rgba(63, 55, 201, 0.5)" stroke-width="1.5"></path><path d="M960.05 545.23L1047.58 423.3" stroke="rgba(63, 55, 201, 0.5)" stroke-width="1.5"></path><path d="M960.05 545.23L792.66 576.78" stroke="rgba(63, 55, 201, 0.5)" stroke-width="1.5"></path><path d="M960.05 545.23L796.07 455.94" stroke="rgba(63, 55, 201, 0.5)" stroke-width="1.5"></path><path d="M960.05 545.23L1086.61 332.63" stroke="rgba(63, 55, 201, 0.5)" stroke-width="1.5"></path><path d="M1048.21 -51.62L1048.21 -51.62" stroke="rgba(63, 55, 201, 0.5)" stroke-width="1.5"></path><path d="M1048.21 -51.62L1040.98 72.52" stroke="rgba(63, 55, 201, 0.5)" stroke-width="1.5"></path><path d="M1048.21 -51.62L842.75 -55.63" stroke="rgba(63, 55, 201, 0.5)" stroke-width="1.5"></path><path d="M1048.21 -51.62L1032.86 168.56" stroke="rgba(63, 55, 201, 0.5)" stroke-width="1.5"></path><path d="M1040.98 72.52L1040.98 72.52" stroke="rgba(63, 55, 201, 0.5)" stroke-width="1.5"></path><path d="M1040.98 72.52L1032.86 168.56" stroke="rgba(63, 55, 201, 0.5)" stroke-width="1.5"></path><path d="M1040.98 72.52L915.16 201.75" stroke="rgba(63, 55, 201, 0.5)" stroke-width="1.5"></path><path d="M1032.86 168.56L1032.86 168.56" stroke="rgba(63, 55, 201, 0.5)" stroke-width="1.5"></path><path d="M1032.86 168.56L932.04 40.73" stroke="rgba(63, 55, 201, 0.5)" stroke-width="1.5"></path><path d="M1032.86 168.56L1086.61 332.63" stroke="rgba(63, 55, 201, 0.5)" stroke-width="1.5"></path><path d="M1032.86 168.56L843.35 291.99" stroke="rgba(63, 55, 201, 0.5)" stroke-width="1.5"></path><path d="M1086.61 332.63L1086.61 332.63" stroke="rgba(63, 55, 201, 0.5)" stroke-width="1.5"></path><path d="M1086.61 332.63L1047.58 423.3" stroke="rgba(63, 55, 201, 0.5)" stroke-width="1.5"></path><path d="M1047.58 423.3L1047.58 423.3" stroke="rgba(63, 55, 201, 0.5)" stroke-width="1.5"></path><path d="M1047.58 423.3L1087.44 536.13" stroke="rgba(63, 55, 201, 0.5)" stroke-width="1.5"></path><path d="M1047.58 423.3L843.35 291.99" stroke="rgba(63, 55, 201, 0.5)" stroke-width="1.5"></path><path d="M1087.44 536.13L1087.44 536.13" stroke="rgba(63, 55, 201, 0.5)" stroke-width="1.5"></path><path d="M1087.44 536.13L1086.61 332.63" stroke="rgba(63, 55, 201, 0.5)" stroke-width="1.5"></path><path d="M1087.44 536.13L906.87 406.74" stroke="rgba(63, 55, 201, 0.5)" stroke-width="1.5"></path><circle r="5" cx="-93.27" cy="315.1" fill="rgba(63, 55, 201, 0.5)"></circle><circle r="5" cx="-84.13" cy="464.22" fill="rgba(63, 55, 201, 0.5)"></circle><circle r="5" cx="-42.25" cy="593.27" fill="rgba(63, 55, 201, 0.5)"></circle><circle r="5" cx="73.18" cy="334.38" fill="rgba(63, 55, 201, 0.5)"></circle><circle r="5" cx="88.97" cy="468.45" fill="rgba(63, 55, 201, 0.5)"></circle><circle r="5" cx="183.66" cy="468.59" fill="rgba(63, 55, 201, 0.5)"></circle><circle r="5" cx="213.14" cy="568.46" fill="rgba(63, 55, 201, 0.5)"></circle><circle r="5" cx="317.47" cy="336.53" fill="rgba(63, 55, 201, 0.5)"></circle><circle r="5" cx="335.32" cy="459.49" fill="rgba(63, 55, 201, 0.5)"></circle><circle r="5" cx="285.65" cy="556.3" fill="rgba(63, 55, 201, 0.5)"></circle><circle r="5" cx="468.11" cy="293.8" fill="rgba(63, 55, 201, 0.5)"></circle><circle r="5" cx="430.36" cy="468.35" fill="rgba(63, 55, 201, 0.5)"></circle><circle r="5" cx="436.48" cy="578.74" fill="rgba(63, 55, 201, 0.5)"></circle><circle r="5" cx="578.59" cy="201.2" fill="rgba(63, 55, 201, 0.5)"></circle><circle r="5" cx="560.84" cy="327.48" fill="rgba(63, 55, 201, 0.5)"></circle><circle r="5" cx="577.39" cy="429.17" fill="rgba(63, 55, 201, 0.5)"></circle><circle r="5" cx="555.45" cy="543.6" fill="rgba(63, 55, 201, 0.5)"></circle><circle r="5" cx="688.6" cy="-39.41" fill="rgba(63, 55, 201, 0.5)"></circle><circle r="5" cx="682.1" cy="92.12" fill="rgba(63, 55, 201, 0.5)"></circle><circle r="5" cx="665.86" cy="186.48" fill="rgba(63, 55, 201, 0.5)"></circle><circle r="5" cx="682.23" cy="431.91" fill="rgba(63, 55, 201, 0.5)"></circle><circle r="5" cx="666.94" cy="551.92" fill="rgba(63, 55, 201, 0.5)"></circle><circle r="5" cx="842.75" cy="-55.63" fill="rgba(63, 55, 201, 0.5)"></circle><circle r="5" cx="807.28" cy="65.64" fill="rgba(63, 55, 201, 0.5)"></circle><circle r="5" cx="793.48" cy="158.31" fill="rgba(63, 55, 201, 0.5)"></circle><circle r="5" cx="843.35" cy="291.99" fill="rgba(63, 55, 201, 0.5)"></circle><circle r="5" cx="796.07" cy="455.94" fill="rgba(63, 55, 201, 0.5)"></circle><circle r="5" cx="792.66" cy="576.78" fill="rgba(63, 55, 201, 0.5)"></circle><circle r="5" cx="926.21" cy="-83.32" fill="rgba(63, 55, 201, 0.5)"></circle><circle r="5" cx="932.04" cy="40.73" fill="rgba(63, 55, 201, 0.5)"></circle><circle r="5" cx="915.16" cy="201.75" fill="rgba(63, 55, 201, 0.5)"></circle><circle r="5" cx="906.87" cy="406.74" fill="rgba(63, 55, 201, 0.5)"></circle><circle r="5" cx="960.05" cy="545.23" fill="rgba(63, 55, 201, 0.5)"></circle><circle r="5" cx="1048.21" cy="-51.62" fill="rgba(63, 55, 201, 0.5)"></circle><circle r="5" cx="1040.98" cy="72.52" fill="rgba(63, 55, 201, 0.5)"></circle><circle r="5" cx="1032.86" cy="168.56" fill="rgba(63, 55, 201, 0.5)"></circle><circle r="5" cx="1086.61" cy="332.63" fill="rgba(63, 55, 201, 0.5)"></circle><circle r="5" cx="1047.58" cy="423.3" fill="rgba(63, 55, 201, 0.5)"></circle><circle r="5" cx="1087.44" cy="536.13" fill="rgba(63, 55, 201, 0.5)"></circle><path d="M172.33 572.1L172.33 572.1" stroke="hsla(243.29999999999995, 57.5%, 65.3%, 0.25)" stroke-width="1.5"></path><path d="M172.33 572.1L68.59 543.11" stroke="hsla(243.29999999999995, 57.5%, 65.3%, 0.25)" stroke-width="1.5"></path><path d="M172.33 572.1L217.49 443.82" stroke="hsla(243.29999999999995, 57.5%, 65.3%, 0.25)" stroke-width="1.5"></path><path d="M172.33 572.1L312.89 543.76" stroke="hsla(243.29999999999995, 57.5%, 65.3%, 0.25)" stroke-width="1.5"></path><path d="M323.36 410.08L323.36 410.08" stroke="hsla(243.29999999999995, 57.5%, 65.3%, 0.25)" stroke-width="1.5"></path><path d="M323.36 410.08L217.49 443.82" stroke="hsla(243.29999999999995, 57.5%, 65.3%, 0.25)" stroke-width="1.5"></path><path d="M323.36 410.08L436.16 459.06" stroke="hsla(243.29999999999995, 57.5%, 65.3%, 0.25)" stroke-width="1.5"></path><path d="M436.16 459.06L436.16 459.06" stroke="hsla(243.29999999999995, 57.5%, 65.3%, 0.25)" stroke-width="1.5"></path><path d="M436.16 459.06L448.12 547.06" stroke="hsla(243.29999999999995, 57.5%, 65.3%, 0.25)" stroke-width="1.5"></path><path d="M436.16 459.06L567.44 439.3" stroke="hsla(243.29999999999995, 57.5%, 65.3%, 0.25)" stroke-width="1.5"></path><path d="M436.16 459.06L312.89 543.76" stroke="hsla(243.29999999999995, 57.5%, 65.3%, 0.25)" stroke-width="1.5"></path><path d="M436.16 459.06L545.54 567.1" stroke="hsla(243.29999999999995, 57.5%, 65.3%, 0.25)" stroke-width="1.5"></path><path d="M436.16 459.06L563.71 285.37" stroke="hsla(243.29999999999995, 57.5%, 65.3%, 0.25)" stroke-width="1.5"></path><path d="M567.44 439.3L567.44 439.3" stroke="hsla(243.29999999999995, 57.5%, 65.3%, 0.25)" stroke-width="1.5"></path><path d="M567.44 439.3L545.54 567.1" stroke="hsla(243.29999999999995, 57.5%, 65.3%, 0.25)" stroke-width="1.5"></path><path d="M567.44 439.3L697.61 422.37" stroke="hsla(243.29999999999995, 57.5%, 65.3%, 0.25)" stroke-width="1.5"></path><path d="M567.44 439.3L563.71 285.37" stroke="hsla(243.29999999999995, 57.5%, 65.3%, 0.25)" stroke-width="1.5"></path><path d="M567.44 439.3L448.12 547.06" stroke="hsla(243.29999999999995, 57.5%, 65.3%, 0.25)" stroke-width="1.5"></path><path d="M567.44 439.3L692.82 567.09" stroke="hsla(243.29999999999995, 57.5%, 65.3%, 0.25)" stroke-width="1.5"></path><path d="M915.5 -91.69L915.5 -91.69" stroke="hsla(243.29999999999995, 57.5%, 65.3%, 0.25)" stroke-width="1.5"></path><path d="M915.5 -91.69L952.27 45.82" stroke="hsla(243.29999999999995, 57.5%, 65.3%, 0.25)" stroke-width="1.5"></path><path d="M915.5 -91.69L1069.23 -70.43" stroke="hsla(243.29999999999995, 57.5%, 65.3%, 0.25)" stroke-width="1.5"></path><path d="M915.5 -91.69L828.25 75.35" stroke="hsla(243.29999999999995, 57.5%, 65.3%, 0.25)" stroke-width="1.5"></path><path d="M915.5 -91.69L1053.18 56.97" stroke="hsla(243.29999999999995, 57.5%, 65.3%, 0.25)" stroke-width="1.5"></path><path d="M915.5 -91.69L817.42 179.34" stroke="hsla(243.29999999999995, 57.5%, 65.3%, 0.25)" stroke-width="1.5"></path><path d="M915.5 -91.69L950.96 209.13" stroke="hsla(243.29999999999995, 57.5%, 65.3%, 0.25)" stroke-width="1.5"></path><path d="M932.19 410.81L932.19 410.81" stroke="hsla(243.29999999999995, 57.5%, 65.3%, 0.25)" stroke-width="1.5"></path><path d="M932.19 410.81L947.14 315.77" stroke="hsla(243.29999999999995, 57.5%, 65.3%, 0.25)" stroke-width="1.5"></path><path d="M932.19 410.81L949.61 547.52" stroke="hsla(243.29999999999995, 57.5%, 65.3%, 0.25)" stroke-width="1.5"></path><path d="M932.19 410.81L1071.19 408.93" stroke="hsla(243.29999999999995, 57.5%, 65.3%, 0.25)" stroke-width="1.5"></path><path d="M932.19 410.81L793.96 426.22" stroke="hsla(243.29999999999995, 57.5%, 65.3%, 0.25)" stroke-width="1.5"></path><path d="M932.19 410.81L1046.38 310.32" stroke="hsla(243.29999999999995, 57.5%, 65.3%, 0.25)" stroke-width="1.5"></path><path d="M-36.68 412.93L-36.68 412.93" stroke="hsla(243.29999999999995, 57.5%, 65.3%, 0.25)" stroke-width="1.5"></path><path d="M-36.68 412.93L80.59 420.59" stroke="hsla(243.29999999999995, 57.5%, 65.3%, 0.25)" stroke-width="1.5"></path><path d="M-36.68 412.93L-59.55 565.67" stroke="hsla(243.29999999999995, 57.5%, 65.3%, 0.25)" stroke-width="1.5"></path><path d="M-59.55 565.67L-59.55 565.67" stroke="hsla(243.29999999999995, 57.5%, 65.3%, 0.25)" stroke-width="1.5"></path><path d="M-59.55 565.67L68.59 543.11" stroke="hsla(243.29999999999995, 57.5%, 65.3%, 0.25)" stroke-width="1.5"></path><path d="M-59.55 565.67L80.59 420.59" stroke="hsla(243.29999999999995, 57.5%, 65.3%, 0.25)" stroke-width="1.5"></path><path d="M80.59 420.59L80.59 420.59" stroke="hsla(243.29999999999995, 57.5%, 65.3%, 0.25)" stroke-width="1.5"></path><path d="M80.59 420.59L68.59 543.11" stroke="hsla(243.29999999999995, 57.5%, 65.3%, 0.25)" stroke-width="1.5"></path><path d="M80.59 420.59L217.49 443.82" stroke="hsla(243.29999999999995, 57.5%, 65.3%, 0.25)" stroke-width="1.5"></path><path d="M80.59 420.59L172.33 572.1" stroke="hsla(243.29999999999995, 57.5%, 65.3%, 0.25)" stroke-width="1.5"></path><path d="M68.59 543.11L68.59 543.11" stroke="hsla(243.29999999999995, 57.5%, 65.3%, 0.25)" stroke-width="1.5"></path><path d="M217.49 443.82L217.49 443.82" stroke="hsla(243.29999999999995, 57.5%, 65.3%, 0.25)" stroke-width="1.5"></path><path d="M217.49 443.82L312.89 543.76" stroke="hsla(243.29999999999995, 57.5%, 65.3%, 0.25)" stroke-width="1.5"></path><path d="M217.49 443.82L68.59 543.11" stroke="hsla(243.29999999999995, 57.5%, 65.3%, 0.25)" stroke-width="1.5"></path><path d="M312.89 543.76L312.89 543.76" stroke="hsla(243.29999999999995, 57.5%, 65.3%, 0.25)" stroke-width="1.5"></path><path d="M312.89 543.76L323.36 410.08" stroke="hsla(243.29999999999995, 57.5%, 65.3%, 0.25)" stroke-width="1.5"></path><path d="M312.89 543.76L448.12 547.06" stroke="hsla(243.29999999999995, 57.5%, 65.3%, 0.25)" stroke-width="1.5"></path><path d="M448.12 547.06L448.12 547.06" stroke="hsla(243.29999999999995, 57.5%, 65.3%, 0.25)" stroke-width="1.5"></path><path d="M448.12 547.06L545.54 567.1" stroke="hsla(243.29999999999995, 57.5%, 65.3%, 0.25)" stroke-width="1.5"></path><path d="M448.12 547.06L323.36 410.08" stroke="hsla(243.29999999999995, 57.5%, 65.3%, 0.25)" stroke-width="1.5"></path><path d="M448.12 547.06L692.82 567.09" stroke="hsla(243.29999999999995, 57.5%, 65.3%, 0.25)" stroke-width="1.5"></path><path d="M563.71 285.37L563.71 285.37" stroke="hsla(243.29999999999995, 57.5%, 65.3%, 0.25)" stroke-width="1.5"></path><path d="M563.71 285.37L693.41 298.31" stroke="hsla(243.29999999999995, 57.5%, 65.3%, 0.25)" stroke-width="1.5"></path><path d="M545.54 567.1L545.54 567.1" stroke="hsla(243.29999999999995, 57.5%, 65.3%, 0.25)" stroke-width="1.5"></path><path d="M693.41 298.31L693.41 298.31" stroke="hsla(243.29999999999995, 57.5%, 65.3%, 0.25)" stroke-width="1.5"></path><path d="M693.41 298.31L697.61 422.37" stroke="hsla(243.29999999999995, 57.5%, 65.3%, 0.25)" stroke-width="1.5"></path><path d="M693.41 298.31L793.96 426.22" stroke="hsla(243.29999999999995, 57.5%, 65.3%, 0.25)" stroke-width="1.5"></path><path d="M693.41 298.31L817.42 179.34" stroke="hsla(243.29999999999995, 57.5%, 65.3%, 0.25)" stroke-width="1.5"></path><path d="M697.61 422.37L697.61 422.37" stroke="hsla(243.29999999999995, 57.5%, 65.3%, 0.25)" stroke-width="1.5"></path><path d="M697.61 422.37L793.96 426.22" stroke="hsla(243.29999999999995, 57.5%, 65.3%, 0.25)" stroke-width="1.5"></path><path d="M697.61 422.37L692.82 567.09" stroke="hsla(243.29999999999995, 57.5%, 65.3%, 0.25)" stroke-width="1.5"></path><path d="M692.82 567.09L692.82 567.09" stroke="hsla(243.29999999999995, 57.5%, 65.3%, 0.25)" stroke-width="1.5"></path><path d="M692.82 567.09L545.54 567.1" stroke="hsla(243.29999999999995, 57.5%, 65.3%, 0.25)" stroke-width="1.5"></path><path d="M692.82 567.09L840.19 591.65" stroke="hsla(243.29999999999995, 57.5%, 65.3%, 0.25)" stroke-width="1.5"></path><path d="M692.82 567.09L793.96 426.22" stroke="hsla(243.29999999999995, 57.5%, 65.3%, 0.25)" stroke-width="1.5"></path><path d="M828.25 75.35L828.25 75.35" stroke="hsla(243.29999999999995, 57.5%, 65.3%, 0.25)" stroke-width="1.5"></path><path d="M828.25 75.35L817.42 179.34" stroke="hsla(243.29999999999995, 57.5%, 65.3%, 0.25)" stroke-width="1.5"></path><path d="M828.25 75.35L952.27 45.82" stroke="hsla(243.29999999999995, 57.5%, 65.3%, 0.25)" stroke-width="1.5"></path><path d="M828.25 75.35L950.96 209.13" stroke="hsla(243.29999999999995, 57.5%, 65.3%, 0.25)" stroke-width="1.5"></path><path d="M817.42 179.34L817.42 179.34" stroke="hsla(243.29999999999995, 57.5%, 65.3%, 0.25)" stroke-width="1.5"></path><path d="M817.42 179.34L950.96 209.13" stroke="hsla(243.29999999999995, 57.5%, 65.3%, 0.25)" stroke-width="1.5"></path><path d="M817.42 179.34L947.14 315.77" stroke="hsla(243.29999999999995, 57.5%, 65.3%, 0.25)" stroke-width="1.5"></path><path d="M793.96 426.22L793.96 426.22" stroke="hsla(243.29999999999995, 57.5%, 65.3%, 0.25)" stroke-width="1.5"></path><path d="M840.19 591.65L840.19 591.65" stroke="hsla(243.29999999999995, 57.5%, 65.3%, 0.25)" stroke-width="1.5"></path><path d="M840.19 591.65L949.61 547.52" stroke="hsla(243.29999999999995, 57.5%, 65.3%, 0.25)" stroke-width="1.5"></path><path d="M840.19 591.65L793.96 426.22" stroke="hsla(243.29999999999995, 57.5%, 65.3%, 0.25)" stroke-width="1.5"></path><path d="M840.19 591.65L932.19 410.81" stroke="hsla(243.29999999999995, 57.5%, 65.3%, 0.25)" stroke-width="1.5"></path><path d="M840.19 591.65L697.61 422.37" stroke="hsla(243.29999999999995, 57.5%, 65.3%, 0.25)" stroke-width="1.5"></path><path d="M840.19 591.65L1083.4 551.62" stroke="hsla(243.29999999999995, 57.5%, 65.3%, 0.25)" stroke-width="1.5"></path><path d="M952.27 45.82L952.27 45.82" stroke="hsla(243.29999999999995, 57.5%, 65.3%, 0.25)" stroke-width="1.5"></path><path d="M952.27 45.82L1053.18 56.97" stroke="hsla(243.29999999999995, 57.5%, 65.3%, 0.25)" stroke-width="1.5"></path><path d="M952.27 45.82L950.96 209.13" stroke="hsla(243.29999999999995, 57.5%, 65.3%, 0.25)" stroke-width="1.5"></path><path d="M952.27 45.82L1069.23 -70.43" stroke="hsla(243.29999999999995, 57.5%, 65.3%, 0.25)" stroke-width="1.5"></path><path d="M952.27 45.82L817.42 179.34" stroke="hsla(243.29999999999995, 57.5%, 65.3%, 0.25)" stroke-width="1.5"></path><path d="M950.96 209.13L950.96 209.13" stroke="hsla(243.29999999999995, 57.5%, 65.3%, 0.25)" stroke-width="1.5"></path><path d="M950.96 209.13L1050.27 217.5" stroke="hsla(243.29999999999995, 57.5%, 65.3%, 0.25)" stroke-width="1.5"></path><path d="M950.96 209.13L947.14 315.77" stroke="hsla(243.29999999999995, 57.5%, 65.3%, 0.25)" stroke-width="1.5"></path><path d="M950.96 209.13L1046.38 310.32" stroke="hsla(243.29999999999995, 57.5%, 65.3%, 0.25)" stroke-width="1.5"></path><path d="M947.14 315.77L947.14 315.77" stroke="hsla(243.29999999999995, 57.5%, 65.3%, 0.25)" stroke-width="1.5"></path><path d="M947.14 315.77L1046.38 310.32" stroke="hsla(243.29999999999995, 57.5%, 65.3%, 0.25)" stroke-width="1.5"></path><path d="M947.14 315.77L1050.27 217.5" stroke="hsla(243.29999999999995, 57.5%, 65.3%, 0.25)" stroke-width="1.5"></path><path d="M949.61 547.52L949.61 547.52" stroke="hsla(243.29999999999995, 57.5%, 65.3%, 0.25)" stroke-width="1.5"></path><path d="M949.61 547.52L1083.4 551.62" stroke="hsla(243.29999999999995, 57.5%, 65.3%, 0.25)" stroke-width="1.5"></path><path d="M949.61 547.52L1071.19 408.93" stroke="hsla(243.29999999999995, 57.5%, 65.3%, 0.25)" stroke-width="1.5"></path><path d="M1069.23 -70.43L1069.23 -70.43" stroke="hsla(243.29999999999995, 57.5%, 65.3%, 0.25)" stroke-width="1.5"></path><path d="M1069.23 -70.43L1053.18 56.97" stroke="hsla(243.29999999999995, 57.5%, 65.3%, 0.25)" stroke-width="1.5"></path><path d="M1069.23 -70.43L828.25 75.35" stroke="hsla(243.29999999999995, 57.5%, 65.3%, 0.25)" stroke-width="1.5"></path><path d="M1053.18 56.97L1053.18 56.97" stroke="hsla(243.29999999999995, 57.5%, 65.3%, 0.25)" stroke-width="1.5"></path><path d="M1050.27 217.5L1050.27 217.5" stroke="hsla(243.29999999999995, 57.5%, 65.3%, 0.25)" stroke-width="1.5"></path><path d="M1050.27 217.5L1046.38 310.32" stroke="hsla(243.29999999999995, 57.5%, 65.3%, 0.25)" stroke-width="1.5"></path><path d="M1050.27 217.5L1053.18 56.97" stroke="hsla(243.29999999999995, 57.5%, 65.3%, 0.25)" stroke-width="1.5"></path><path d="M1050.27 217.5L1071.19 408.93" stroke="hsla(243.29999999999995, 57.5%, 65.3%, 0.25)" stroke-width="1.5"></path><path d="M1046.38 310.32L1046.38 310.32" stroke="hsla(243.29999999999995, 57.5%, 65.3%, 0.25)" stroke-width="1.5"></path><path d="M1046.38 310.32L1071.19 408.93" stroke="hsla(243.29999999999995, 57.5%, 65.3%, 0.25)" stroke-width="1.5"></path><path d="M1071.19 408.93L1071.19 408.93" stroke="hsla(243.29999999999995, 57.5%, 65.3%, 0.25)" stroke-width="1.5"></path><path d="M1071.19 408.93L1083.4 551.62" stroke="hsla(243.29999999999995, 57.5%, 65.3%, 0.25)" stroke-width="1.5"></path><path d="M1071.19 408.93L947.14 315.77" stroke="hsla(243.29999999999995, 57.5%, 65.3%, 0.25)" stroke-width="1.5"></path><path d="M1083.4 551.62L1083.4 551.62" stroke="hsla(243.29999999999995, 57.5%, 65.3%, 0.25)" stroke-width="1.5"></path><path d="M1083.4 551.62L932.19 410.81" stroke="hsla(243.29999999999995, 57.5%, 65.3%, 0.25)" stroke-width="1.5"></path><circle r="25" cx="172.33" cy="572.1" fill="url(&quot;#SvgjsRadialGradient1165&quot;)"></circle><circle r="25" cx="323.36" cy="410.08" fill="url(&quot;#SvgjsRadialGradient1165&quot;)"></circle><circle r="25" cx="436.16" cy="459.06" fill="url(&quot;#SvgjsRadialGradient1165&quot;)"></circle><circle r="25" cx="567.44" cy="439.3" fill="url(&quot;#SvgjsRadialGradient1165&quot;)"></circle><circle r="25" cx="915.5" cy="-91.69" fill="url(&quot;#SvgjsRadialGradient1165&quot;)"></circle><circle r="25" cx="932.19" cy="410.81" fill="url(&quot;#SvgjsRadialGradient1165&quot;)"></circle><circle r="5" cx="-36.68" cy="412.93" fill="rgba(231, 230, 248, 0.625)"></circle><circle r="5" cx="-59.55" cy="565.67" fill="rgba(231, 230, 248, 0.625)"></circle><circle r="5" cx="80.59" cy="420.59" fill="rgba(231, 230, 248, 0.625)"></circle><circle r="5" cx="68.59" cy="543.11" fill="rgba(231, 230, 248, 0.625)"></circle><circle r="5" cx="217.49" cy="443.82" fill="rgba(231, 230, 248, 0.625)"></circle><circle r="5" cx="312.89" cy="543.76" fill="rgba(231, 230, 248, 0.625)"></circle><circle r="5" cx="448.12" cy="547.06" fill="rgba(231, 230, 248, 0.625)"></circle><circle r="5" cx="563.71" cy="285.37" fill="rgba(231, 230, 248, 0.625)"></circle><circle r="5" cx="545.54" cy="567.1" fill="rgba(231, 230, 248, 0.625)"></circle><circle r="5" cx="693.41" cy="298.31" fill="rgba(231, 230, 248, 0.625)"></circle><circle r="5" cx="697.61" cy="422.37" fill="rgba(231, 230, 248, 0.625)"></circle><circle r="5" cx="692.82" cy="567.09" fill="rgba(231, 230, 248, 0.625)"></circle><circle r="5" cx="828.25" cy="75.35" fill="rgba(231, 230, 248, 0.625)"></circle><circle r="5" cx="817.42" cy="179.34" fill="rgba(231, 230, 248, 0.625)"></circle><circle r="5" cx="793.96" cy="426.22" fill="rgba(231, 230, 248, 0.625)"></circle><circle r="5" cx="840.19" cy="591.65" fill="rgba(231, 230, 248, 0.625)"></circle><circle r="5" cx="952.27" cy="45.82" fill="rgba(231, 230, 248, 0.625)"></circle><circle r="5" cx="950.96" cy="209.13" fill="rgba(231, 230, 248, 0.625)"></circle><circle r="5" cx="947.14" cy="315.77" fill="rgba(231, 230, 248, 0.625)"></circle><circle r="5" cx="949.61" cy="547.52" fill="rgba(231, 230, 248, 0.625)"></circle><circle r="5" cx="1069.23" cy="-70.43" fill="rgba(231, 230, 248, 0.625)"></circle><circle r="5" cx="1053.18" cy="56.97" fill="rgba(231, 230, 248, 0.625)"></circle><circle r="5" cx="1050.27" cy="217.5" fill="rgba(231, 230, 248, 0.625)"></circle><circle r="5" cx="1046.38" cy="310.32" fill="rgba(231, 230, 248, 0.625)"></circle><circle r="5" cx="1071.19" cy="408.93" fill="rgba(231, 230, 248, 0.625)"></circle><circle r="5" cx="1083.4" cy="551.62" fill="rgba(231, 230, 248, 0.625)"></circle></g><defs><mask id="SvgjsMask1164"><rect width="1000" height="500" fill="#ffffff"></rect></mask><radialGradient id="SvgjsRadialGradient1165"><stop stop-color="#ffffff" offset="0.1"></stop><stop stop-color="rgba(63, 55, 201, 0.25)" offset="0.2"></stop><stop stop-color="rgba(63, 55, 201, 0)" offset="1"></stop></radialGradient></defs></svg>