<svg xmlns="http://www.w3.org/2000/svg" version="1.1" xmlns:xlink="http://www.w3.org/1999/xlink" xmlns:svgjs="http://svgjs.dev/svgjs" width="1440" height="700" preserveAspectRatio="none" viewBox="0 0 1440 700"><g mask="url(&quot;#SvgjsMask1038&quot;)" fill="none"><path d="M-67.29 524.72L-67.29 524.72" stroke="rgba(63, 55, 201, 0.7)" stroke-width="1.5"></path><path d="M-67.29 524.72L56.98 639.54" stroke="rgba(63, 55, 201, 0.7)" stroke-width="1.5"></path><path d="M-67.29 524.72L-50.84 831.74" stroke="rgba(63, 55, 201, 0.7)" stroke-width="1.5"></path><path d="M-67.29 524.72L72.71 841.19" stroke="rgba(63, 55, 201, 0.7)" stroke-width="1.5"></path><path d="M-67.29 524.72L258.02 644" stroke="rgba(63, 55, 201, 0.7)" stroke-width="1.5"></path><path d="M-67.29 524.72L233.96 811.21" stroke="rgba(63, 55, 201, 0.7)" stroke-width="1.5"></path><path d="M-50.84 831.74L-50.84 831.74" stroke="rgba(63, 55, 201, 0.7)" stroke-width="1.5"></path><path d="M-50.84 831.74L72.71 841.19" stroke="rgba(63, 55, 201, 0.7)" stroke-width="1.5"></path><path d="M-50.84 831.74L56.98 639.54" stroke="rgba(63, 55, 201, 0.7)" stroke-width="1.5"></path><path d="M-50.84 831.74L233.96 811.21" stroke="rgba(63, 55, 201, 0.7)" stroke-width="1.5"></path><path d="M56.98 639.54L56.98 639.54" stroke="rgba(63, 55, 201, 0.7)" stroke-width="1.5"></path><path d="M56.98 639.54L258.02 644" stroke="rgba(63, 55, 201, 0.7)" stroke-width="1.5"></path><path d="M56.98 639.54L72.71 841.19" stroke="rgba(63, 55, 201, 0.7)" stroke-width="1.5"></path><path d="M56.98 639.54L233.96 811.21" stroke="rgba(63, 55, 201, 0.7)" stroke-width="1.5"></path><path d="M56.98 639.54L355.7 543.16" stroke="rgba(63, 55, 201, 0.7)" stroke-width="1.5"></path><path d="M72.71 841.19L72.71 841.19" stroke="rgba(63, 55, 201, 0.7)" stroke-width="1.5"></path><path d="M72.71 841.19L233.96 811.21" stroke="rgba(63, 55, 201, 0.7)" stroke-width="1.5"></path><path d="M72.71 841.19L258.02 644" stroke="rgba(63, 55, 201, 0.7)" stroke-width="1.5"></path><path d="M72.71 841.19L385.57 653" stroke="rgba(63, 55, 201, 0.7)" stroke-width="1.5"></path><path d="M258.02 644L258.02 644" stroke="rgba(63, 55, 201, 0.7)" stroke-width="1.5"></path><path d="M258.02 644L385.57 653" stroke="rgba(63, 55, 201, 0.7)" stroke-width="1.5"></path><path d="M258.02 644L355.7 543.16" stroke="rgba(63, 55, 201, 0.7)" stroke-width="1.5"></path><path d="M258.02 644L233.96 811.21" stroke="rgba(63, 55, 201, 0.7)" stroke-width="1.5"></path><path d="M233.96 811.21L233.96 811.21" stroke="rgba(63, 55, 201, 0.7)" stroke-width="1.5"></path><path d="M355.7 543.16L355.7 543.16" stroke="rgba(63, 55, 201, 0.7)" stroke-width="1.5"></path><path d="M355.7 543.16L385.57 653" stroke="rgba(63, 55, 201, 0.7)" stroke-width="1.5"></path><path d="M355.7 543.16L534.96 667.9" stroke="rgba(63, 55, 201, 0.7)" stroke-width="1.5"></path><path d="M385.57 653L385.57 653" stroke="rgba(63, 55, 201, 0.7)" stroke-width="1.5"></path><path d="M385.57 653L534.96 667.9" stroke="rgba(63, 55, 201, 0.7)" stroke-width="1.5"></path><path d="M385.57 653L233.96 811.21" stroke="rgba(63, 55, 201, 0.7)" stroke-width="1.5"></path><path d="M385.57 653L557.84 807.04" stroke="rgba(63, 55, 201, 0.7)" stroke-width="1.5"></path><path d="M385.57 653L649.3 640.53" stroke="rgba(63, 55, 201, 0.7)" stroke-width="1.5"></path><path d="M539.98 378.76L539.98 378.76" stroke="rgba(63, 55, 201, 0.7)" stroke-width="1.5"></path><path d="M539.98 378.76L704.39 373.55" stroke="rgba(63, 55, 201, 0.7)" stroke-width="1.5"></path><path d="M539.98 378.76L684.2 516.8" stroke="rgba(63, 55, 201, 0.7)" stroke-width="1.5"></path><path d="M539.98 378.76L355.7 543.16" stroke="rgba(63, 55, 201, 0.7)" stroke-width="1.5"></path><path d="M539.98 378.76L821.82 409.65" stroke="rgba(63, 55, 201, 0.7)" stroke-width="1.5"></path><path d="M539.98 378.76L649.3 640.53" stroke="rgba(63, 55, 201, 0.7)" stroke-width="1.5"></path><path d="M534.96 667.9L534.96 667.9" stroke="rgba(63, 55, 201, 0.7)" stroke-width="1.5"></path><path d="M534.96 667.9L649.3 640.53" stroke="rgba(63, 55, 201, 0.7)" stroke-width="1.5"></path><path d="M534.96 667.9L557.84 807.04" stroke="rgba(63, 55, 201, 0.7)" stroke-width="1.5"></path><path d="M534.96 667.9L656.62 792.47" stroke="rgba(63, 55, 201, 0.7)" stroke-width="1.5"></path><path d="M557.84 807.04L557.84 807.04" stroke="rgba(63, 55, 201, 0.7)" stroke-width="1.5"></path><path d="M557.84 807.04L656.62 792.47" stroke="rgba(63, 55, 201, 0.7)" stroke-width="1.5"></path><path d="M557.84 807.04L649.3 640.53" stroke="rgba(63, 55, 201, 0.7)" stroke-width="1.5"></path><path d="M704.39 373.55L704.39 373.55" stroke="rgba(63, 55, 201, 0.7)" stroke-width="1.5"></path><path d="M704.39 373.55L821.82 409.65" stroke="rgba(63, 55, 201, 0.7)" stroke-width="1.5"></path><path d="M704.39 373.55L684.2 516.8" stroke="rgba(63, 55, 201, 0.7)" stroke-width="1.5"></path><path d="M684.2 516.8L684.2 516.8" stroke="rgba(63, 55, 201, 0.7)" stroke-width="1.5"></path><path d="M684.2 516.8L649.3 640.53" stroke="rgba(63, 55, 201, 0.7)" stroke-width="1.5"></path><path d="M684.2 516.8L821.82 409.65" stroke="rgba(63, 55, 201, 0.7)" stroke-width="1.5"></path><path d="M684.2 516.8L534.96 667.9" stroke="rgba(63, 55, 201, 0.7)" stroke-width="1.5"></path><path d="M649.3 640.53L649.3 640.53" stroke="rgba(63, 55, 201, 0.7)" stroke-width="1.5"></path><path d="M649.3 640.53L656.62 792.47" stroke="rgba(63, 55, 201, 0.7)" stroke-width="1.5"></path><path d="M649.3 640.53L790.39 705.09" stroke="rgba(63, 55, 201, 0.7)" stroke-width="1.5"></path><path d="M656.62 792.47L656.62 792.47" stroke="rgba(63, 55, 201, 0.7)" stroke-width="1.5"></path><path d="M821.82 409.65L821.82 409.65" stroke="rgba(63, 55, 201, 0.7)" stroke-width="1.5"></path><path d="M821.82 409.65L976.39 381.13" stroke="rgba(63, 55, 201, 0.7)" stroke-width="1.5"></path><path d="M790.39 705.09L790.39 705.09" stroke="rgba(63, 55, 201, 0.7)" stroke-width="1.5"></path><path d="M790.39 705.09L809.77 860.94" stroke="rgba(63, 55, 201, 0.7)" stroke-width="1.5"></path><path d="M790.39 705.09L656.62 792.47" stroke="rgba(63, 55, 201, 0.7)" stroke-width="1.5"></path><path d="M790.39 705.09L939.01 789.02" stroke="rgba(63, 55, 201, 0.7)" stroke-width="1.5"></path><path d="M790.39 705.09L972.31 653.19" stroke="rgba(63, 55, 201, 0.7)" stroke-width="1.5"></path><path d="M790.39 705.09L684.2 516.8" stroke="rgba(63, 55, 201, 0.7)" stroke-width="1.5"></path><path d="M809.77 860.94L809.77 860.94" stroke="rgba(63, 55, 201, 0.7)" stroke-width="1.5"></path><path d="M809.77 860.94L939.01 789.02" stroke="rgba(63, 55, 201, 0.7)" stroke-width="1.5"></path><path d="M942.13 -52.68L942.13 -52.68" stroke="rgba(63, 55, 201, 0.7)" stroke-width="1.5"></path><path d="M942.13 -52.68L945.84 76.29" stroke="rgba(63, 55, 201, 0.7)" stroke-width="1.5"></path><path d="M942.13 -52.68L1134.3 -63.14" stroke="rgba(63, 55, 201, 0.7)" stroke-width="1.5"></path><path d="M945.84 76.29L945.84 76.29" stroke="rgba(63, 55, 201, 0.7)" stroke-width="1.5"></path><path d="M945.84 76.29L989.06 195.63" stroke="rgba(63, 55, 201, 0.7)" stroke-width="1.5"></path><path d="M945.84 76.29L1140.31 38.33" stroke="rgba(63, 55, 201, 0.7)" stroke-width="1.5"></path><path d="M945.84 76.29L1119.1 211.61" stroke="rgba(63, 55, 201, 0.7)" stroke-width="1.5"></path><path d="M989.06 195.63L989.06 195.63" stroke="rgba(63, 55, 201, 0.7)" stroke-width="1.5"></path><path d="M989.06 195.63L1119.1 211.61" stroke="rgba(63, 55, 201, 0.7)" stroke-width="1.5"></path><path d="M976.39 381.13L976.39 381.13" stroke="rgba(63, 55, 201, 0.7)" stroke-width="1.5"></path><path d="M976.39 381.13L960.38 525.76" stroke="rgba(63, 55, 201, 0.7)" stroke-width="1.5"></path><path d="M976.39 381.13L1136.88 408.58" stroke="rgba(63, 55, 201, 0.7)" stroke-width="1.5"></path><path d="M976.39 381.13L989.06 195.63" stroke="rgba(63, 55, 201, 0.7)" stroke-width="1.5"></path><path d="M976.39 381.13L1155.57 505.01" stroke="rgba(63, 55, 201, 0.7)" stroke-width="1.5"></path><path d="M960.38 525.76L960.38 525.76" stroke="rgba(63, 55, 201, 0.7)" stroke-width="1.5"></path><path d="M960.38 525.76L972.31 653.19" stroke="rgba(63, 55, 201, 0.7)" stroke-width="1.5"></path><path d="M972.31 653.19L972.31 653.19" stroke="rgba(63, 55, 201, 0.7)" stroke-width="1.5"></path><path d="M972.31 653.19L939.01 789.02" stroke="rgba(63, 55, 201, 0.7)" stroke-width="1.5"></path><path d="M939.01 789.02L939.01 789.02" stroke="rgba(63, 55, 201, 0.7)" stroke-width="1.5"></path><path d="M939.01 789.02L1095.56 797.4" stroke="rgba(63, 55, 201, 0.7)" stroke-width="1.5"></path><path d="M1134.3 -63.14L1134.3 -63.14" stroke="rgba(63, 55, 201, 0.7)" stroke-width="1.5"></path><path d="M1134.3 -63.14L1140.31 38.33" stroke="rgba(63, 55, 201, 0.7)" stroke-width="1.5"></path><path d="M1134.3 -63.14L1274.03 -105.76" stroke="rgba(63, 55, 201, 0.7)" stroke-width="1.5"></path><path d="M1134.3 -63.14L1289.67 52.83" stroke="rgba(63, 55, 201, 0.7)" stroke-width="1.5"></path><path d="M1134.3 -63.14L945.84 76.29" stroke="rgba(63, 55, 201, 0.7)" stroke-width="1.5"></path><path d="M1134.3 -63.14L1119.1 211.61" stroke="rgba(63, 55, 201, 0.7)" stroke-width="1.5"></path><path d="M1140.31 38.33L1140.31 38.33" stroke="rgba(63, 55, 201, 0.7)" stroke-width="1.5"></path><path d="M1140.31 38.33L1289.67 52.83" stroke="rgba(63, 55, 201, 0.7)" stroke-width="1.5"></path><path d="M1140.31 38.33L1119.1 211.61" stroke="rgba(63, 55, 201, 0.7)" stroke-width="1.5"></path><path d="M1140.31 38.33L1274.03 -105.76" stroke="rgba(63, 55, 201, 0.7)" stroke-width="1.5"></path><path d="M1140.31 38.33L942.13 -52.68" stroke="rgba(63, 55, 201, 0.7)" stroke-width="1.5"></path><path d="M1119.1 211.61L1119.1 211.61" stroke="rgba(63, 55, 201, 0.7)" stroke-width="1.5"></path><path d="M1136.88 408.58L1136.88 408.58" stroke="rgba(63, 55, 201, 0.7)" stroke-width="1.5"></path><path d="M1136.88 408.58L1155.57 505.01" stroke="rgba(63, 55, 201, 0.7)" stroke-width="1.5"></path><path d="M1136.88 408.58L1275.55 393.89" stroke="rgba(63, 55, 201, 0.7)" stroke-width="1.5"></path><path d="M1136.88 408.58L1284.8 503.58" stroke="rgba(63, 55, 201, 0.7)" stroke-width="1.5"></path><path d="M1136.88 408.58L1119.1 211.61" stroke="rgba(63, 55, 201, 0.7)" stroke-width="1.5"></path><path d="M1155.57 505.01L1155.57 505.01" stroke="rgba(63, 55, 201, 0.7)" stroke-width="1.5"></path><path d="M1155.57 505.01L1284.8 503.58" stroke="rgba(63, 55, 201, 0.7)" stroke-width="1.5"></path><path d="M1155.57 505.01L1275.55 393.89" stroke="rgba(63, 55, 201, 0.7)" stroke-width="1.5"></path><path d="M1155.57 505.01L1244.14 646.25" stroke="rgba(63, 55, 201, 0.7)" stroke-width="1.5"></path><path d="M1155.57 505.01L1128.74 676.36" stroke="rgba(63, 55, 201, 0.7)" stroke-width="1.5"></path><path d="M1128.74 676.36L1128.74 676.36" stroke="rgba(63, 55, 201, 0.7)" stroke-width="1.5"></path><path d="M1128.74 676.36L1244.14 646.25" stroke="rgba(63, 55, 201, 0.7)" stroke-width="1.5"></path><path d="M1128.74 676.36L1095.56 797.4" stroke="rgba(63, 55, 201, 0.7)" stroke-width="1.5"></path><path d="M1128.74 676.36L972.31 653.19" stroke="rgba(63, 55, 201, 0.7)" stroke-width="1.5"></path><path d="M1095.56 797.4L1095.56 797.4" stroke="rgba(63, 55, 201, 0.7)" stroke-width="1.5"></path><path d="M1095.56 797.4L1264.99 833.41" stroke="rgba(63, 55, 201, 0.7)" stroke-width="1.5"></path><path d="M1274.03 -105.76L1274.03 -105.76" stroke="rgba(63, 55, 201, 0.7)" stroke-width="1.5"></path><path d="M1274.03 -105.76L1410.94 -93.25" stroke="rgba(63, 55, 201, 0.7)" stroke-width="1.5"></path><path d="M1289.67 52.83L1289.67 52.83" stroke="rgba(63, 55, 201, 0.7)" stroke-width="1.5"></path><path d="M1289.67 52.83L1438.35 80.14" stroke="rgba(63, 55, 201, 0.7)" stroke-width="1.5"></path><path d="M1289.67 52.83L1274.03 -105.76" stroke="rgba(63, 55, 201, 0.7)" stroke-width="1.5"></path><path d="M1289.67 52.83L1410.94 -93.25" stroke="rgba(63, 55, 201, 0.7)" stroke-width="1.5"></path><path d="M1289.67 52.83L1461.62 203.55" stroke="rgba(63, 55, 201, 0.7)" stroke-width="1.5"></path><path d="M1275.55 393.89L1275.55 393.89" stroke="rgba(63, 55, 201, 0.7)" stroke-width="1.5"></path><path d="M1275.55 393.89L1284.8 503.58" stroke="rgba(63, 55, 201, 0.7)" stroke-width="1.5"></path><path d="M1275.55 393.89L1455.65 358.03" stroke="rgba(63, 55, 201, 0.7)" stroke-width="1.5"></path><path d="M1275.55 393.89L1409.55 548.62" stroke="rgba(63, 55, 201, 0.7)" stroke-width="1.5"></path><path d="M1284.8 503.58L1284.8 503.58" stroke="rgba(63, 55, 201, 0.7)" stroke-width="1.5"></path><path d="M1284.8 503.58L1409.55 548.62" stroke="rgba(63, 55, 201, 0.7)" stroke-width="1.5"></path><path d="M1284.8 503.58L1244.14 646.25" stroke="rgba(63, 55, 201, 0.7)" stroke-width="1.5"></path><path d="M1284.8 503.58L1455.65 358.03" stroke="rgba(63, 55, 201, 0.7)" stroke-width="1.5"></path><path d="M1244.14 646.25L1244.14 646.25" stroke="rgba(63, 55, 201, 0.7)" stroke-width="1.5"></path><path d="M1264.99 833.41L1264.99 833.41" stroke="rgba(63, 55, 201, 0.7)" stroke-width="1.5"></path><path d="M1264.99 833.41L1399.94 859.38" stroke="rgba(63, 55, 201, 0.7)" stroke-width="1.5"></path><path d="M1264.99 833.41L1244.14 646.25" stroke="rgba(63, 55, 201, 0.7)" stroke-width="1.5"></path><path d="M1264.99 833.41L1128.74 676.36" stroke="rgba(63, 55, 201, 0.7)" stroke-width="1.5"></path><path d="M1264.99 833.41L1444.75 676.59" stroke="rgba(63, 55, 201, 0.7)" stroke-width="1.5"></path><path d="M1264.99 833.41L1409.55 548.62" stroke="rgba(63, 55, 201, 0.7)" stroke-width="1.5"></path><path d="M1410.94 -93.25L1410.94 -93.25" stroke="rgba(63, 55, 201, 0.7)" stroke-width="1.5"></path><path d="M1410.94 -93.25L1556.93 -58.76" stroke="rgba(63, 55, 201, 0.7)" stroke-width="1.5"></path><path d="M1410.94 -93.25L1438.35 80.14" stroke="rgba(63, 55, 201, 0.7)" stroke-width="1.5"></path><path d="M1438.35 80.14L1438.35 80.14" stroke="rgba(63, 55, 201, 0.7)" stroke-width="1.5"></path><path d="M1438.35 80.14L1461.62 203.55" stroke="rgba(63, 55, 201, 0.7)" stroke-width="1.5"></path><path d="M1438.35 80.14L1551.78 189.72" stroke="rgba(63, 55, 201, 0.7)" stroke-width="1.5"></path><path d="M1461.62 203.55L1461.62 203.55" stroke="rgba(63, 55, 201, 0.7)" stroke-width="1.5"></path><path d="M1461.62 203.55L1551.78 189.72" stroke="rgba(63, 55, 201, 0.7)" stroke-width="1.5"></path><path d="M1455.65 358.03L1455.65 358.03" stroke="rgba(63, 55, 201, 0.7)" stroke-width="1.5"></path><path d="M1455.65 358.03L1583.53 388.08" stroke="rgba(63, 55, 201, 0.7)" stroke-width="1.5"></path><path d="M1455.65 358.03L1461.62 203.55" stroke="rgba(63, 55, 201, 0.7)" stroke-width="1.5"></path><path d="M1455.65 358.03L1551.78 189.72" stroke="rgba(63, 55, 201, 0.7)" stroke-width="1.5"></path><path d="M1455.65 358.03L1409.55 548.62" stroke="rgba(63, 55, 201, 0.7)" stroke-width="1.5"></path><path d="M1409.55 548.62L1409.55 548.62" stroke="rgba(63, 55, 201, 0.7)" stroke-width="1.5"></path><path d="M1409.55 548.62L1444.75 676.59" stroke="rgba(63, 55, 201, 0.7)" stroke-width="1.5"></path><path d="M1409.55 548.62L1549.92 544.27" stroke="rgba(63, 55, 201, 0.7)" stroke-width="1.5"></path><path d="M1409.55 548.62L1244.14 646.25" stroke="rgba(63, 55, 201, 0.7)" stroke-width="1.5"></path><path d="M1444.75 676.59L1444.75 676.59" stroke="rgba(63, 55, 201, 0.7)" stroke-width="1.5"></path><path d="M1444.75 676.59L1581.76 685.94" stroke="rgba(63, 55, 201, 0.7)" stroke-width="1.5"></path><path d="M1444.75 676.59L1549.92 544.27" stroke="rgba(63, 55, 201, 0.7)" stroke-width="1.5"></path><path d="M1399.94 859.38L1399.94 859.38" stroke="rgba(63, 55, 201, 0.7)" stroke-width="1.5"></path><path d="M1399.94 859.38L1444.75 676.59" stroke="rgba(63, 55, 201, 0.7)" stroke-width="1.5"></path><path d="M1399.94 859.38L1581.76 685.94" stroke="rgba(63, 55, 201, 0.7)" stroke-width="1.5"></path><path d="M1399.94 859.38L1244.14 646.25" stroke="rgba(63, 55, 201, 0.7)" stroke-width="1.5"></path><path d="M1399.94 859.38L1095.56 797.4" stroke="rgba(63, 55, 201, 0.7)" stroke-width="1.5"></path><path d="M1399.94 859.38L1409.55 548.62" stroke="rgba(63, 55, 201, 0.7)" stroke-width="1.5"></path><path d="M1556.93 -58.76L1556.93 -58.76" stroke="rgba(63, 55, 201, 0.7)" stroke-width="1.5"></path><path d="M1556.93 -58.76L1603.63 47.6" stroke="rgba(63, 55, 201, 0.7)" stroke-width="1.5"></path><path d="M1603.63 47.6L1603.63 47.6" stroke="rgba(63, 55, 201, 0.7)" stroke-width="1.5"></path><path d="M1603.63 47.6L1551.78 189.72" stroke="rgba(63, 55, 201, 0.7)" stroke-width="1.5"></path><path d="M1603.63 47.6L1438.35 80.14" stroke="rgba(63, 55, 201, 0.7)" stroke-width="1.5"></path><path d="M1603.63 47.6L1461.62 203.55" stroke="rgba(63, 55, 201, 0.7)" stroke-width="1.5"></path><path d="M1603.63 47.6L1410.94 -93.25" stroke="rgba(63, 55, 201, 0.7)" stroke-width="1.5"></path><path d="M1551.78 189.72L1551.78 189.72" stroke="rgba(63, 55, 201, 0.7)" stroke-width="1.5"></path><path d="M1583.53 388.08L1583.53 388.08" stroke="rgba(63, 55, 201, 0.7)" stroke-width="1.5"></path><path d="M1583.53 388.08L1549.92 544.27" stroke="rgba(63, 55, 201, 0.7)" stroke-width="1.5"></path><path d="M1583.53 388.08L1551.78 189.72" stroke="rgba(63, 55, 201, 0.7)" stroke-width="1.5"></path><path d="M1583.53 388.08L1461.62 203.55" stroke="rgba(63, 55, 201, 0.7)" stroke-width="1.5"></path><path d="M1583.53 388.08L1409.55 548.62" stroke="rgba(63, 55, 201, 0.7)" stroke-width="1.5"></path><path d="M1583.53 388.08L1581.76 685.94" stroke="rgba(63, 55, 201, 0.7)" stroke-width="1.5"></path><path d="M1549.92 544.27L1549.92 544.27" stroke="rgba(63, 55, 201, 0.7)" stroke-width="1.5"></path><path d="M1549.92 544.27L1581.76 685.94" stroke="rgba(63, 55, 201, 0.7)" stroke-width="1.5"></path><path d="M1549.92 544.27L1455.65 358.03" stroke="rgba(63, 55, 201, 0.7)" stroke-width="1.5"></path><path d="M1549.92 544.27L1284.8 503.58" stroke="rgba(63, 55, 201, 0.7)" stroke-width="1.5"></path><path d="M1581.76 685.94L1581.76 685.94" stroke="rgba(63, 55, 201, 0.7)" stroke-width="1.5"></path><circle r="5" cx="-67.29" cy="524.72" fill="rgba(63, 55, 201, 0.7)"></circle><circle r="5" cx="-50.84" cy="831.74" fill="rgba(63, 55, 201, 0.7)"></circle><circle r="5" cx="56.98" cy="639.54" fill="rgba(63, 55, 201, 0.7)"></circle><circle r="5" cx="72.71" cy="841.19" fill="rgba(63, 55, 201, 0.7)"></circle><circle r="5" cx="258.02" cy="644" fill="rgba(63, 55, 201, 0.7)"></circle><circle r="5" cx="233.96" cy="811.21" fill="rgba(63, 55, 201, 0.7)"></circle><circle r="5" cx="355.7" cy="543.16" fill="rgba(63, 55, 201, 0.7)"></circle><circle r="5" cx="385.57" cy="653" fill="rgba(63, 55, 201, 0.7)"></circle><circle r="5" cx="539.98" cy="378.76" fill="rgba(63, 55, 201, 0.7)"></circle><circle r="5" cx="534.96" cy="667.9" fill="rgba(63, 55, 201, 0.7)"></circle><circle r="5" cx="557.84" cy="807.04" fill="rgba(63, 55, 201, 0.7)"></circle><circle r="5" cx="704.39" cy="373.55" fill="rgba(63, 55, 201, 0.7)"></circle><circle r="5" cx="684.2" cy="516.8" fill="rgba(63, 55, 201, 0.7)"></circle><circle r="5" cx="649.3" cy="640.53" fill="rgba(63, 55, 201, 0.7)"></circle><circle r="5" cx="656.62" cy="792.47" fill="rgba(63, 55, 201, 0.7)"></circle><circle r="5" cx="821.82" cy="409.65" fill="rgba(63, 55, 201, 0.7)"></circle><circle r="5" cx="790.39" cy="705.09" fill="rgba(63, 55, 201, 0.7)"></circle><circle r="5" cx="809.77" cy="860.94" fill="rgba(63, 55, 201, 0.7)"></circle><circle r="5" cx="942.13" cy="-52.68" fill="rgba(63, 55, 201, 0.7)"></circle><circle r="5" cx="945.84" cy="76.29" fill="rgba(63, 55, 201, 0.7)"></circle><circle r="5" cx="989.06" cy="195.63" fill="rgba(63, 55, 201, 0.7)"></circle><circle r="5" cx="976.39" cy="381.13" fill="rgba(63, 55, 201, 0.7)"></circle><circle r="5" cx="960.38" cy="525.76" fill="rgba(63, 55, 201, 0.7)"></circle><circle r="5" cx="972.31" cy="653.19" fill="rgba(63, 55, 201, 0.7)"></circle><circle r="5" cx="939.01" cy="789.02" fill="rgba(63, 55, 201, 0.7)"></circle><circle r="5" cx="1134.3" cy="-63.14" fill="rgba(63, 55, 201, 0.7)"></circle><circle r="5" cx="1140.31" cy="38.33" fill="rgba(63, 55, 201, 0.7)"></circle><circle r="5" cx="1119.1" cy="211.61" fill="rgba(63, 55, 201, 0.7)"></circle><circle r="5" cx="1136.88" cy="408.58" fill="rgba(63, 55, 201, 0.7)"></circle><circle r="5" cx="1155.57" cy="505.01" fill="rgba(63, 55, 201, 0.7)"></circle><circle r="5" cx="1128.74" cy="676.36" fill="rgba(63, 55, 201, 0.7)"></circle><circle r="5" cx="1095.56" cy="797.4" fill="rgba(63, 55, 201, 0.7)"></circle><circle r="5" cx="1274.03" cy="-105.76" fill="rgba(63, 55, 201, 0.7)"></circle><circle r="5" cx="1289.67" cy="52.83" fill="rgba(63, 55, 201, 0.7)"></circle><circle r="5" cx="1275.55" cy="393.89" fill="rgba(63, 55, 201, 0.7)"></circle><circle r="5" cx="1284.8" cy="503.58" fill="rgba(63, 55, 201, 0.7)"></circle><circle r="5" cx="1244.14" cy="646.25" fill="rgba(63, 55, 201, 0.7)"></circle><circle r="5" cx="1264.99" cy="833.41" fill="rgba(63, 55, 201, 0.7)"></circle><circle r="5" cx="1410.94" cy="-93.25" fill="rgba(63, 55, 201, 0.7)"></circle><circle r="5" cx="1438.35" cy="80.14" fill="rgba(63, 55, 201, 0.7)"></circle><circle r="5" cx="1461.62" cy="203.55" fill="rgba(63, 55, 201, 0.7)"></circle><circle r="5" cx="1455.65" cy="358.03" fill="rgba(63, 55, 201, 0.7)"></circle><circle r="5" cx="1409.55" cy="548.62" fill="rgba(63, 55, 201, 0.7)"></circle><circle r="5" cx="1444.75" cy="676.59" fill="rgba(63, 55, 201, 0.7)"></circle><circle r="5" cx="1399.94" cy="859.38" fill="rgba(63, 55, 201, 0.7)"></circle><circle r="5" cx="1556.93" cy="-58.76" fill="rgba(63, 55, 201, 0.7)"></circle><circle r="5" cx="1603.63" cy="47.6" fill="rgba(63, 55, 201, 0.7)"></circle><circle r="5" cx="1551.78" cy="189.72" fill="rgba(63, 55, 201, 0.7)"></circle><circle r="5" cx="1583.53" cy="388.08" fill="rgba(63, 55, 201, 0.7)"></circle><circle r="5" cx="1549.92" cy="544.27" fill="rgba(63, 55, 201, 0.7)"></circle><circle r="5" cx="1581.76" cy="685.94" fill="rgba(63, 55, 201, 0.7)"></circle><path d="M-108.88 834.75L-108.88 834.75" stroke="hsla(243.29999999999995, 57.5%, 65.3%, 0.4)" stroke-width="1.5"></path><path d="M-108.88 834.75L-40.65 686.82" stroke="hsla(243.29999999999995, 57.5%, 65.3%, 0.4)" stroke-width="1.5"></path><path d="M-108.88 834.75L63.84 831.12" stroke="hsla(243.29999999999995, 57.5%, 65.3%, 0.4)" stroke-width="1.5"></path><path d="M-108.88 834.75L58.58 643.71" stroke="hsla(243.29999999999995, 57.5%, 65.3%, 0.4)" stroke-width="1.5"></path><path d="M-108.88 834.75L233.77 809.8" stroke="hsla(243.29999999999995, 57.5%, 65.3%, 0.4)" stroke-width="1.5"></path><path d="M-108.88 834.75L191.1 661" stroke="hsla(243.29999999999995, 57.5%, 65.3%, 0.4)" stroke-width="1.5"></path><path d="M231.17 549.6L231.17 549.6" stroke="hsla(243.29999999999995, 57.5%, 65.3%, 0.4)" stroke-width="1.5"></path><path d="M231.17 549.6L191.1 661" stroke="hsla(243.29999999999995, 57.5%, 65.3%, 0.4)" stroke-width="1.5"></path><path d="M231.17 549.6L343.95 699.78" stroke="hsla(243.29999999999995, 57.5%, 65.3%, 0.4)" stroke-width="1.5"></path><path d="M231.17 549.6L58.58 643.71" stroke="hsla(243.29999999999995, 57.5%, 65.3%, 0.4)" stroke-width="1.5"></path><path d="M191.1 661L191.1 661" stroke="hsla(243.29999999999995, 57.5%, 65.3%, 0.4)" stroke-width="1.5"></path><path d="M191.1 661L58.58 643.71" stroke="hsla(243.29999999999995, 57.5%, 65.3%, 0.4)" stroke-width="1.5"></path><path d="M343.95 699.78L343.95 699.78" stroke="hsla(243.29999999999995, 57.5%, 65.3%, 0.4)" stroke-width="1.5"></path><path d="M343.95 699.78L355.87 838.36" stroke="hsla(243.29999999999995, 57.5%, 65.3%, 0.4)" stroke-width="1.5"></path><path d="M343.95 699.78L233.77 809.8" stroke="hsla(243.29999999999995, 57.5%, 65.3%, 0.4)" stroke-width="1.5"></path><path d="M343.95 699.78L498.49 669.32" stroke="hsla(243.29999999999995, 57.5%, 65.3%, 0.4)" stroke-width="1.5"></path><path d="M343.95 699.78L191.1 661" stroke="hsla(243.29999999999995, 57.5%, 65.3%, 0.4)" stroke-width="1.5"></path><path d="M355.87 838.36L355.87 838.36" stroke="hsla(243.29999999999995, 57.5%, 65.3%, 0.4)" stroke-width="1.5"></path><path d="M355.87 838.36L233.77 809.8" stroke="hsla(243.29999999999995, 57.5%, 65.3%, 0.4)" stroke-width="1.5"></path><path d="M355.87 838.36L543.69 854.39" stroke="hsla(243.29999999999995, 57.5%, 65.3%, 0.4)" stroke-width="1.5"></path><path d="M355.87 838.36L498.49 669.32" stroke="hsla(243.29999999999995, 57.5%, 65.3%, 0.4)" stroke-width="1.5"></path><path d="M355.87 838.36L191.1 661" stroke="hsla(243.29999999999995, 57.5%, 65.3%, 0.4)" stroke-width="1.5"></path><path d="M666.59 495.01L666.59 495.01" stroke="hsla(243.29999999999995, 57.5%, 65.3%, 0.4)" stroke-width="1.5"></path><path d="M666.59 495.01L830.92 498.22" stroke="hsla(243.29999999999995, 57.5%, 65.3%, 0.4)" stroke-width="1.5"></path><path d="M830.92 498.22L830.92 498.22" stroke="hsla(243.29999999999995, 57.5%, 65.3%, 0.4)" stroke-width="1.5"></path><path d="M830.92 498.22L969.35 541.14" stroke="hsla(243.29999999999995, 57.5%, 65.3%, 0.4)" stroke-width="1.5"></path><path d="M830.92 498.22L796.11 645.39" stroke="hsla(243.29999999999995, 57.5%, 65.3%, 0.4)" stroke-width="1.5"></path><path d="M830.92 498.22L939.03 350.82" stroke="hsla(243.29999999999995, 57.5%, 65.3%, 0.4)" stroke-width="1.5"></path><path d="M830.92 498.22L661.63 670.61" stroke="hsla(243.29999999999995, 57.5%, 65.3%, 0.4)" stroke-width="1.5"></path><path d="M830.92 498.22L1004.9 687.25" stroke="hsla(243.29999999999995, 57.5%, 65.3%, 0.4)" stroke-width="1.5"></path><path d="M1089.94 258.16L1089.94 258.16" stroke="hsla(243.29999999999995, 57.5%, 65.3%, 0.4)" stroke-width="1.5"></path><path d="M1089.94 258.16L1134.36 362.6" stroke="hsla(243.29999999999995, 57.5%, 65.3%, 0.4)" stroke-width="1.5"></path><path d="M1089.94 258.16L1244.16 253.43" stroke="hsla(243.29999999999995, 57.5%, 65.3%, 0.4)" stroke-width="1.5"></path><path d="M1089.94 258.16L939.03 350.82" stroke="hsla(243.29999999999995, 57.5%, 65.3%, 0.4)" stroke-width="1.5"></path><path d="M1089.94 258.16L1261.55 354.29" stroke="hsla(243.29999999999995, 57.5%, 65.3%, 0.4)" stroke-width="1.5"></path><path d="M1089.94 258.16L1297.57 85.78" stroke="hsla(243.29999999999995, 57.5%, 65.3%, 0.4)" stroke-width="1.5"></path><path d="M1288.42 -41.63L1288.42 -41.63" stroke="hsla(243.29999999999995, 57.5%, 65.3%, 0.4)" stroke-width="1.5"></path><path d="M1288.42 -41.63L1297.57 85.78" stroke="hsla(243.29999999999995, 57.5%, 65.3%, 0.4)" stroke-width="1.5"></path><path d="M1288.42 -41.63L1419.45 -111.52" stroke="hsla(243.29999999999995, 57.5%, 65.3%, 0.4)" stroke-width="1.5"></path><path d="M1288.42 -41.63L1461.35 107.02" stroke="hsla(243.29999999999995, 57.5%, 65.3%, 0.4)" stroke-width="1.5"></path><path d="M1288.42 -41.63L1559.33 -45.38" stroke="hsla(243.29999999999995, 57.5%, 65.3%, 0.4)" stroke-width="1.5"></path><path d="M1288.42 -41.63L1244.16 253.43" stroke="hsla(243.29999999999995, 57.5%, 65.3%, 0.4)" stroke-width="1.5"></path><path d="M1288.42 -41.63L1460.83 236.91" stroke="hsla(243.29999999999995, 57.5%, 65.3%, 0.4)" stroke-width="1.5"></path><path d="M1244.16 253.43L1244.16 253.43" stroke="hsla(243.29999999999995, 57.5%, 65.3%, 0.4)" stroke-width="1.5"></path><path d="M1244.16 253.43L1261.55 354.29" stroke="hsla(243.29999999999995, 57.5%, 65.3%, 0.4)" stroke-width="1.5"></path><path d="M1244.16 253.43L1134.36 362.6" stroke="hsla(243.29999999999995, 57.5%, 65.3%, 0.4)" stroke-width="1.5"></path><path d="M1311.64 704.23L1311.64 704.23" stroke="hsla(243.29999999999995, 57.5%, 65.3%, 0.4)" stroke-width="1.5"></path><path d="M1311.64 704.23L1278.63 861.69" stroke="hsla(243.29999999999995, 57.5%, 65.3%, 0.4)" stroke-width="1.5"></path><path d="M1311.64 704.23L1409.29 840.77" stroke="hsla(243.29999999999995, 57.5%, 65.3%, 0.4)" stroke-width="1.5"></path><path d="M1311.64 704.23L1269.62 532.31" stroke="hsla(243.29999999999995, 57.5%, 65.3%, 0.4)" stroke-width="1.5"></path><path d="M1417.4 539.11L1417.4 539.11" stroke="hsla(243.29999999999995, 57.5%, 65.3%, 0.4)" stroke-width="1.5"></path><path d="M1417.4 539.11L1269.62 532.31" stroke="hsla(243.29999999999995, 57.5%, 65.3%, 0.4)" stroke-width="1.5"></path><path d="M1417.4 539.11L1555.1 408.85" stroke="hsla(243.29999999999995, 57.5%, 65.3%, 0.4)" stroke-width="1.5"></path><path d="M1409.29 840.77L1409.29 840.77" stroke="hsla(243.29999999999995, 57.5%, 65.3%, 0.4)" stroke-width="1.5"></path><path d="M1409.29 840.77L1278.63 861.69" stroke="hsla(243.29999999999995, 57.5%, 65.3%, 0.4)" stroke-width="1.5"></path><path d="M1559.33 -45.38L1559.33 -45.38" stroke="hsla(243.29999999999995, 57.5%, 65.3%, 0.4)" stroke-width="1.5"></path><path d="M1559.33 -45.38L1601.69 57.55" stroke="hsla(243.29999999999995, 57.5%, 65.3%, 0.4)" stroke-width="1.5"></path><path d="M1559.33 -45.38L1419.45 -111.52" stroke="hsla(243.29999999999995, 57.5%, 65.3%, 0.4)" stroke-width="1.5"></path><path d="M1559.33 -45.38L1461.35 107.02" stroke="hsla(243.29999999999995, 57.5%, 65.3%, 0.4)" stroke-width="1.5"></path><path d="M1559.33 -45.38L1540.48 203.89" stroke="hsla(243.29999999999995, 57.5%, 65.3%, 0.4)" stroke-width="1.5"></path><path d="M1601.69 57.55L1601.69 57.55" stroke="hsla(243.29999999999995, 57.5%, 65.3%, 0.4)" stroke-width="1.5"></path><path d="M1601.69 57.55L1461.35 107.02" stroke="hsla(243.29999999999995, 57.5%, 65.3%, 0.4)" stroke-width="1.5"></path><path d="M1601.69 57.55L1540.48 203.89" stroke="hsla(243.29999999999995, 57.5%, 65.3%, 0.4)" stroke-width="1.5"></path><path d="M1601.69 57.55L1460.83 236.91" stroke="hsla(243.29999999999995, 57.5%, 65.3%, 0.4)" stroke-width="1.5"></path><path d="M-40.65 686.82L-40.65 686.82" stroke="hsla(243.29999999999995, 57.5%, 65.3%, 0.4)" stroke-width="1.5"></path><path d="M-40.65 686.82L58.58 643.71" stroke="hsla(243.29999999999995, 57.5%, 65.3%, 0.4)" stroke-width="1.5"></path><path d="M-40.65 686.82L63.84 831.12" stroke="hsla(243.29999999999995, 57.5%, 65.3%, 0.4)" stroke-width="1.5"></path><path d="M-40.65 686.82L191.1 661" stroke="hsla(243.29999999999995, 57.5%, 65.3%, 0.4)" stroke-width="1.5"></path><path d="M-40.65 686.82L233.77 809.8" stroke="hsla(243.29999999999995, 57.5%, 65.3%, 0.4)" stroke-width="1.5"></path><path d="M-40.65 686.82L231.17 549.6" stroke="hsla(243.29999999999995, 57.5%, 65.3%, 0.4)" stroke-width="1.5"></path><path d="M58.58 643.71L58.58 643.71" stroke="hsla(243.29999999999995, 57.5%, 65.3%, 0.4)" stroke-width="1.5"></path><path d="M63.84 831.12L63.84 831.12" stroke="hsla(243.29999999999995, 57.5%, 65.3%, 0.4)" stroke-width="1.5"></path><path d="M63.84 831.12L233.77 809.8" stroke="hsla(243.29999999999995, 57.5%, 65.3%, 0.4)" stroke-width="1.5"></path><path d="M63.84 831.12L58.58 643.71" stroke="hsla(243.29999999999995, 57.5%, 65.3%, 0.4)" stroke-width="1.5"></path><path d="M63.84 831.12L191.1 661" stroke="hsla(243.29999999999995, 57.5%, 65.3%, 0.4)" stroke-width="1.5"></path><path d="M63.84 831.12L355.87 838.36" stroke="hsla(243.29999999999995, 57.5%, 65.3%, 0.4)" stroke-width="1.5"></path><path d="M233.77 809.8L233.77 809.8" stroke="hsla(243.29999999999995, 57.5%, 65.3%, 0.4)" stroke-width="1.5"></path><path d="M495.3 549.69L495.3 549.69" stroke="hsla(243.29999999999995, 57.5%, 65.3%, 0.4)" stroke-width="1.5"></path><path d="M495.3 549.69L498.49 669.32" stroke="hsla(243.29999999999995, 57.5%, 65.3%, 0.4)" stroke-width="1.5"></path><path d="M495.3 549.69L666.59 495.01" stroke="hsla(243.29999999999995, 57.5%, 65.3%, 0.4)" stroke-width="1.5"></path><path d="M495.3 549.69L661.63 670.61" stroke="hsla(243.29999999999995, 57.5%, 65.3%, 0.4)" stroke-width="1.5"></path><path d="M495.3 549.69L343.95 699.78" stroke="hsla(243.29999999999995, 57.5%, 65.3%, 0.4)" stroke-width="1.5"></path><path d="M495.3 549.69L231.17 549.6" stroke="hsla(243.29999999999995, 57.5%, 65.3%, 0.4)" stroke-width="1.5"></path><path d="M495.3 549.69L543.69 854.39" stroke="hsla(243.29999999999995, 57.5%, 65.3%, 0.4)" stroke-width="1.5"></path><path d="M498.49 669.32L498.49 669.32" stroke="hsla(243.29999999999995, 57.5%, 65.3%, 0.4)" stroke-width="1.5"></path><path d="M543.69 854.39L543.69 854.39" stroke="hsla(243.29999999999995, 57.5%, 65.3%, 0.4)" stroke-width="1.5"></path><path d="M543.69 854.39L687.29 834.78" stroke="hsla(243.29999999999995, 57.5%, 65.3%, 0.4)" stroke-width="1.5"></path><path d="M543.69 854.39L498.49 669.32" stroke="hsla(243.29999999999995, 57.5%, 65.3%, 0.4)" stroke-width="1.5"></path><path d="M543.69 854.39L661.63 670.61" stroke="hsla(243.29999999999995, 57.5%, 65.3%, 0.4)" stroke-width="1.5"></path><path d="M543.69 854.39L343.95 699.78" stroke="hsla(243.29999999999995, 57.5%, 65.3%, 0.4)" stroke-width="1.5"></path><path d="M543.69 854.39L820.47 859.17" stroke="hsla(243.29999999999995, 57.5%, 65.3%, 0.4)" stroke-width="1.5"></path><path d="M661.63 670.61L661.63 670.61" stroke="hsla(243.29999999999995, 57.5%, 65.3%, 0.4)" stroke-width="1.5"></path><path d="M661.63 670.61L796.11 645.39" stroke="hsla(243.29999999999995, 57.5%, 65.3%, 0.4)" stroke-width="1.5"></path><path d="M661.63 670.61L498.49 669.32" stroke="hsla(243.29999999999995, 57.5%, 65.3%, 0.4)" stroke-width="1.5"></path><path d="M661.63 670.61L687.29 834.78" stroke="hsla(243.29999999999995, 57.5%, 65.3%, 0.4)" stroke-width="1.5"></path><path d="M661.63 670.61L666.59 495.01" stroke="hsla(243.29999999999995, 57.5%, 65.3%, 0.4)" stroke-width="1.5"></path><path d="M687.29 834.78L687.29 834.78" stroke="hsla(243.29999999999995, 57.5%, 65.3%, 0.4)" stroke-width="1.5"></path><path d="M687.29 834.78L820.47 859.17" stroke="hsla(243.29999999999995, 57.5%, 65.3%, 0.4)" stroke-width="1.5"></path><path d="M687.29 834.78L796.11 645.39" stroke="hsla(243.29999999999995, 57.5%, 65.3%, 0.4)" stroke-width="1.5"></path><path d="M796.11 645.39L796.11 645.39" stroke="hsla(243.29999999999995, 57.5%, 65.3%, 0.4)" stroke-width="1.5"></path><path d="M796.11 645.39L666.59 495.01" stroke="hsla(243.29999999999995, 57.5%, 65.3%, 0.4)" stroke-width="1.5"></path><path d="M796.11 645.39L969.35 541.14" stroke="hsla(243.29999999999995, 57.5%, 65.3%, 0.4)" stroke-width="1.5"></path><path d="M796.11 645.39L1004.9 687.25" stroke="hsla(243.29999999999995, 57.5%, 65.3%, 0.4)" stroke-width="1.5"></path><path d="M796.11 645.39L820.47 859.17" stroke="hsla(243.29999999999995, 57.5%, 65.3%, 0.4)" stroke-width="1.5"></path><path d="M820.47 859.17L820.47 859.17" stroke="hsla(243.29999999999995, 57.5%, 65.3%, 0.4)" stroke-width="1.5"></path><path d="M820.47 859.17L988.43 831.45" stroke="hsla(243.29999999999995, 57.5%, 65.3%, 0.4)" stroke-width="1.5"></path><path d="M820.47 859.17L661.63 670.61" stroke="hsla(243.29999999999995, 57.5%, 65.3%, 0.4)" stroke-width="1.5"></path><path d="M939.03 350.82L939.03 350.82" stroke="hsla(243.29999999999995, 57.5%, 65.3%, 0.4)" stroke-width="1.5"></path><path d="M939.03 350.82L969.35 541.14" stroke="hsla(243.29999999999995, 57.5%, 65.3%, 0.4)" stroke-width="1.5"></path><path d="M939.03 350.82L1134.36 362.6" stroke="hsla(243.29999999999995, 57.5%, 65.3%, 0.4)" stroke-width="1.5"></path><path d="M939.03 350.82L1126.29 534.2" stroke="hsla(243.29999999999995, 57.5%, 65.3%, 0.4)" stroke-width="1.5"></path><path d="M969.35 541.14L969.35 541.14" stroke="hsla(243.29999999999995, 57.5%, 65.3%, 0.4)" stroke-width="1.5"></path><path d="M969.35 541.14L1004.9 687.25" stroke="hsla(243.29999999999995, 57.5%, 65.3%, 0.4)" stroke-width="1.5"></path><path d="M969.35 541.14L1126.29 534.2" stroke="hsla(243.29999999999995, 57.5%, 65.3%, 0.4)" stroke-width="1.5"></path><path d="M1004.9 687.25L1004.9 687.25" stroke="hsla(243.29999999999995, 57.5%, 65.3%, 0.4)" stroke-width="1.5"></path><path d="M1004.9 687.25L1111.42 657.37" stroke="hsla(243.29999999999995, 57.5%, 65.3%, 0.4)" stroke-width="1.5"></path><path d="M1004.9 687.25L988.43 831.45" stroke="hsla(243.29999999999995, 57.5%, 65.3%, 0.4)" stroke-width="1.5"></path><path d="M1004.9 687.25L1111.27 815.18" stroke="hsla(243.29999999999995, 57.5%, 65.3%, 0.4)" stroke-width="1.5"></path><path d="M1004.9 687.25L1126.29 534.2" stroke="hsla(243.29999999999995, 57.5%, 65.3%, 0.4)" stroke-width="1.5"></path><path d="M988.43 831.45L988.43 831.45" stroke="hsla(243.29999999999995, 57.5%, 65.3%, 0.4)" stroke-width="1.5"></path><path d="M988.43 831.45L1111.27 815.18" stroke="hsla(243.29999999999995, 57.5%, 65.3%, 0.4)" stroke-width="1.5"></path><path d="M1134.36 362.6L1134.36 362.6" stroke="hsla(243.29999999999995, 57.5%, 65.3%, 0.4)" stroke-width="1.5"></path><path d="M1134.36 362.6L1261.55 354.29" stroke="hsla(243.29999999999995, 57.5%, 65.3%, 0.4)" stroke-width="1.5"></path><path d="M1134.36 362.6L1126.29 534.2" stroke="hsla(243.29999999999995, 57.5%, 65.3%, 0.4)" stroke-width="1.5"></path><path d="M1126.29 534.2L1126.29 534.2" stroke="hsla(243.29999999999995, 57.5%, 65.3%, 0.4)" stroke-width="1.5"></path><path d="M1126.29 534.2L1111.42 657.37" stroke="hsla(243.29999999999995, 57.5%, 65.3%, 0.4)" stroke-width="1.5"></path><path d="M1126.29 534.2L1269.62 532.31" stroke="hsla(243.29999999999995, 57.5%, 65.3%, 0.4)" stroke-width="1.5"></path><path d="M1111.42 657.37L1111.42 657.37" stroke="hsla(243.29999999999995, 57.5%, 65.3%, 0.4)" stroke-width="1.5"></path><path d="M1111.27 815.18L1111.27 815.18" stroke="hsla(243.29999999999995, 57.5%, 65.3%, 0.4)" stroke-width="1.5"></path><path d="M1111.27 815.18L1111.42 657.37" stroke="hsla(243.29999999999995, 57.5%, 65.3%, 0.4)" stroke-width="1.5"></path><path d="M1111.27 815.18L1278.63 861.69" stroke="hsla(243.29999999999995, 57.5%, 65.3%, 0.4)" stroke-width="1.5"></path><path d="M1111.27 815.18L1311.64 704.23" stroke="hsla(243.29999999999995, 57.5%, 65.3%, 0.4)" stroke-width="1.5"></path><path d="M1111.27 815.18L1126.29 534.2" stroke="hsla(243.29999999999995, 57.5%, 65.3%, 0.4)" stroke-width="1.5"></path><path d="M1297.57 85.78L1297.57 85.78" stroke="hsla(243.29999999999995, 57.5%, 65.3%, 0.4)" stroke-width="1.5"></path><path d="M1297.57 85.78L1461.35 107.02" stroke="hsla(243.29999999999995, 57.5%, 65.3%, 0.4)" stroke-width="1.5"></path><path d="M1297.57 85.78L1244.16 253.43" stroke="hsla(243.29999999999995, 57.5%, 65.3%, 0.4)" stroke-width="1.5"></path><path d="M1297.57 85.78L1460.83 236.91" stroke="hsla(243.29999999999995, 57.5%, 65.3%, 0.4)" stroke-width="1.5"></path><path d="M1297.57 85.78L1419.45 -111.52" stroke="hsla(243.29999999999995, 57.5%, 65.3%, 0.4)" stroke-width="1.5"></path><path d="M1261.55 354.29L1261.55 354.29" stroke="hsla(243.29999999999995, 57.5%, 65.3%, 0.4)" stroke-width="1.5"></path><path d="M1261.55 354.29L1401.65 345.1" stroke="hsla(243.29999999999995, 57.5%, 65.3%, 0.4)" stroke-width="1.5"></path><path d="M1261.55 354.29L1269.62 532.31" stroke="hsla(243.29999999999995, 57.5%, 65.3%, 0.4)" stroke-width="1.5"></path><path d="M1269.62 532.31L1269.62 532.31" stroke="hsla(243.29999999999995, 57.5%, 65.3%, 0.4)" stroke-width="1.5"></path><path d="M1278.63 861.69L1278.63 861.69" stroke="hsla(243.29999999999995, 57.5%, 65.3%, 0.4)" stroke-width="1.5"></path><path d="M1419.45 -111.52L1419.45 -111.52" stroke="hsla(243.29999999999995, 57.5%, 65.3%, 0.4)" stroke-width="1.5"></path><path d="M1419.45 -111.52L1461.35 107.02" stroke="hsla(243.29999999999995, 57.5%, 65.3%, 0.4)" stroke-width="1.5"></path><path d="M1419.45 -111.52L1601.69 57.55" stroke="hsla(243.29999999999995, 57.5%, 65.3%, 0.4)" stroke-width="1.5"></path><path d="M1419.45 -111.52L1540.48 203.89" stroke="hsla(243.29999999999995, 57.5%, 65.3%, 0.4)" stroke-width="1.5"></path><path d="M1461.35 107.02L1461.35 107.02" stroke="hsla(243.29999999999995, 57.5%, 65.3%, 0.4)" stroke-width="1.5"></path><path d="M1461.35 107.02L1540.48 203.89" stroke="hsla(243.29999999999995, 57.5%, 65.3%, 0.4)" stroke-width="1.5"></path><path d="M1460.83 236.91L1460.83 236.91" stroke="hsla(243.29999999999995, 57.5%, 65.3%, 0.4)" stroke-width="1.5"></path><path d="M1460.83 236.91L1540.48 203.89" stroke="hsla(243.29999999999995, 57.5%, 65.3%, 0.4)" stroke-width="1.5"></path><path d="M1460.83 236.91L1401.65 345.1" stroke="hsla(243.29999999999995, 57.5%, 65.3%, 0.4)" stroke-width="1.5"></path><path d="M1460.83 236.91L1461.35 107.02" stroke="hsla(243.29999999999995, 57.5%, 65.3%, 0.4)" stroke-width="1.5"></path><path d="M1460.83 236.91L1555.1 408.85" stroke="hsla(243.29999999999995, 57.5%, 65.3%, 0.4)" stroke-width="1.5"></path><path d="M1401.65 345.1L1401.65 345.1" stroke="hsla(243.29999999999995, 57.5%, 65.3%, 0.4)" stroke-width="1.5"></path><path d="M1401.65 345.1L1555.1 408.85" stroke="hsla(243.29999999999995, 57.5%, 65.3%, 0.4)" stroke-width="1.5"></path><path d="M1401.65 345.1L1244.16 253.43" stroke="hsla(243.29999999999995, 57.5%, 65.3%, 0.4)" stroke-width="1.5"></path><path d="M1540.48 203.89L1540.48 203.89" stroke="hsla(243.29999999999995, 57.5%, 65.3%, 0.4)" stroke-width="1.5"></path><path d="M1540.48 203.89L1401.65 345.1" stroke="hsla(243.29999999999995, 57.5%, 65.3%, 0.4)" stroke-width="1.5"></path><path d="M1555.1 408.85L1555.1 408.85" stroke="hsla(243.29999999999995, 57.5%, 65.3%, 0.4)" stroke-width="1.5"></path><path d="M1555.1 408.85L1606.43 500.8" stroke="hsla(243.29999999999995, 57.5%, 65.3%, 0.4)" stroke-width="1.5"></path><path d="M1555.1 408.85L1540.48 203.89" stroke="hsla(243.29999999999995, 57.5%, 65.3%, 0.4)" stroke-width="1.5"></path><path d="M1606.43 500.8L1606.43 500.8" stroke="hsla(243.29999999999995, 57.5%, 65.3%, 0.4)" stroke-width="1.5"></path><path d="M1606.43 500.8L1417.4 539.11" stroke="hsla(243.29999999999995, 57.5%, 65.3%, 0.4)" stroke-width="1.5"></path><path d="M1606.43 500.8L1401.65 345.1" stroke="hsla(243.29999999999995, 57.5%, 65.3%, 0.4)" stroke-width="1.5"></path><path d="M1606.43 500.8L1460.83 236.91" stroke="hsla(243.29999999999995, 57.5%, 65.3%, 0.4)" stroke-width="1.5"></path><path d="M1587.43 818.22L1587.43 818.22" stroke="hsla(243.29999999999995, 57.5%, 65.3%, 0.4)" stroke-width="1.5"></path><path d="M1587.43 818.22L1409.29 840.77" stroke="hsla(243.29999999999995, 57.5%, 65.3%, 0.4)" stroke-width="1.5"></path><path d="M1587.43 818.22L1311.64 704.23" stroke="hsla(243.29999999999995, 57.5%, 65.3%, 0.4)" stroke-width="1.5"></path><path d="M1587.43 818.22L1278.63 861.69" stroke="hsla(243.29999999999995, 57.5%, 65.3%, 0.4)" stroke-width="1.5"></path><path d="M1587.43 818.22L1606.43 500.8" stroke="hsla(243.29999999999995, 57.5%, 65.3%, 0.4)" stroke-width="1.5"></path><path d="M1587.43 818.22L1417.4 539.11" stroke="hsla(243.29999999999995, 57.5%, 65.3%, 0.4)" stroke-width="1.5"></path><path d="M1587.43 818.22L1555.1 408.85" stroke="hsla(243.29999999999995, 57.5%, 65.3%, 0.4)" stroke-width="1.5"></path><circle r="25" cx="-108.88" cy="834.75" fill="url(&quot;#SvgjsRadialGradient1039&quot;)"></circle><circle r="25" cx="231.17" cy="549.6" fill="url(&quot;#SvgjsRadialGradient1039&quot;)"></circle><circle r="25" cx="191.1" cy="661" fill="url(&quot;#SvgjsRadialGradient1039&quot;)"></circle><circle r="25" cx="343.95" cy="699.78" fill="url(&quot;#SvgjsRadialGradient1039&quot;)"></circle><circle r="25" cx="355.87" cy="838.36" fill="url(&quot;#SvgjsRadialGradient1039&quot;)"></circle><circle r="25" cx="666.59" cy="495.01" fill="url(&quot;#SvgjsRadialGradient1039&quot;)"></circle><circle r="25" cx="830.92" cy="498.22" fill="url(&quot;#SvgjsRadialGradient1039&quot;)"></circle><circle r="25" cx="1089.94" cy="258.16" fill="url(&quot;#SvgjsRadialGradient1039&quot;)"></circle><circle r="25" cx="1288.42" cy="-41.63" fill="url(&quot;#SvgjsRadialGradient1039&quot;)"></circle><circle r="25" cx="1244.16" cy="253.43" fill="url(&quot;#SvgjsRadialGradient1039&quot;)"></circle><circle r="25" cx="1311.64" cy="704.23" fill="url(&quot;#SvgjsRadialGradient1039&quot;)"></circle><circle r="25" cx="1417.4" cy="539.11" fill="url(&quot;#SvgjsRadialGradient1039&quot;)"></circle><circle r="25" cx="1409.29" cy="840.77" fill="url(&quot;#SvgjsRadialGradient1039&quot;)"></circle><circle r="25" cx="1559.33" cy="-45.38" fill="url(&quot;#SvgjsRadialGradient1039&quot;)"></circle><circle r="25" cx="1601.69" cy="57.55" fill="url(&quot;#SvgjsRadialGradient1039&quot;)"></circle><circle r="5" cx="-40.65" cy="686.82" fill="rgba(217, 215, 244, 0.7)"></circle><circle r="5" cx="58.58" cy="643.71" fill="rgba(217, 215, 244, 0.7)"></circle><circle r="5" cx="63.84" cy="831.12" fill="rgba(217, 215, 244, 0.7)"></circle><circle r="5" cx="233.77" cy="809.8" fill="rgba(217, 215, 244, 0.7)"></circle><circle r="5" cx="495.3" cy="549.69" fill="rgba(217, 215, 244, 0.7)"></circle><circle r="5" cx="498.49" cy="669.32" fill="rgba(217, 215, 244, 0.7)"></circle><circle r="5" cx="543.69" cy="854.39" fill="rgba(217, 215, 244, 0.7)"></circle><circle r="5" cx="661.63" cy="670.61" fill="rgba(217, 215, 244, 0.7)"></circle><circle r="5" cx="687.29" cy="834.78" fill="rgba(217, 215, 244, 0.7)"></circle><circle r="5" cx="796.11" cy="645.39" fill="rgba(217, 215, 244, 0.7)"></circle><circle r="5" cx="820.47" cy="859.17" fill="rgba(217, 215, 244, 0.7)"></circle><circle r="5" cx="939.03" cy="350.82" fill="rgba(217, 215, 244, 0.7)"></circle><circle r="5" cx="969.35" cy="541.14" fill="rgba(217, 215, 244, 0.7)"></circle><circle r="5" cx="1004.9" cy="687.25" fill="rgba(217, 215, 244, 0.7)"></circle><circle r="5" cx="988.43" cy="831.45" fill="rgba(217, 215, 244, 0.7)"></circle><circle r="5" cx="1134.36" cy="362.6" fill="rgba(217, 215, 244, 0.7)"></circle><circle r="5" cx="1126.29" cy="534.2" fill="rgba(217, 215, 244, 0.7)"></circle><circle r="5" cx="1111.42" cy="657.37" fill="rgba(217, 215, 244, 0.7)"></circle><circle r="5" cx="1111.27" cy="815.18" fill="rgba(217, 215, 244, 0.7)"></circle><circle r="5" cx="1297.57" cy="85.78" fill="rgba(217, 215, 244, 0.7)"></circle><circle r="5" cx="1261.55" cy="354.29" fill="rgba(217, 215, 244, 0.7)"></circle><circle r="5" cx="1269.62" cy="532.31" fill="rgba(217, 215, 244, 0.7)"></circle><circle r="5" cx="1278.63" cy="861.69" fill="rgba(217, 215, 244, 0.7)"></circle><circle r="5" cx="1419.45" cy="-111.52" fill="rgba(217, 215, 244, 0.7)"></circle><circle r="5" cx="1461.35" cy="107.02" fill="rgba(217, 215, 244, 0.7)"></circle><circle r="5" cx="1460.83" cy="236.91" fill="rgba(217, 215, 244, 0.7)"></circle><circle r="5" cx="1401.65" cy="345.1" fill="rgba(217, 215, 244, 0.7)"></circle><circle r="5" cx="1540.48" cy="203.89" fill="rgba(217, 215, 244, 0.7)"></circle><circle r="5" cx="1555.1" cy="408.85" fill="rgba(217, 215, 244, 0.7)"></circle><circle r="5" cx="1606.43" cy="500.8" fill="rgba(217, 215, 244, 0.7)"></circle><circle r="5" cx="1587.43" cy="818.22" fill="rgba(217, 215, 244, 0.7)"></circle></g><defs><mask id="SvgjsMask1038"><rect width="1440" height="700" fill="#ffffff"></rect></mask><radialGradient id="SvgjsRadialGradient1039"><stop stop-color="#ffffff" offset="0.1"></stop><stop stop-color="rgba(63, 55, 201, 0.4)" offset="0.2"></stop><stop stop-color="rgba(63, 55, 201, 0)" offset="1"></stop></radialGradient></defs></svg>