<svg width="412" height="412" viewBox="0 0 412 412" fill="none" xmlns="http://www.w3.org/2000/svg">
<path d="M105.142 261.538C89.4205 257.673 76.9369 243.863 73.4596 228.05C69.9823 212.238 75.1076 195.09 85.729 182.862C96.3503 170.634 112.097 163.325 128.157 161.669C148.922 159.543 171.392 166.028 189.907 156.412C203.297 149.457 211.331 135.63 221.335 124.276C234.799 108.99 253.1 97.5286 273.247 94.3809C293.393 91.2332 315.188 97.0342 329.6 111.429C342.034 123.847 348.733 141.283 350.711 158.735C358.292 225.891 309.816 275.381 283.415 290.114C263.977 300.958 234.65 300.628 212.411 299.779C187.205 298.815 161.801 295.973 138.045 287.494C114.289 279.015 92.1314 264.52 77.8186 243.756" fill="#EBEBEB"/>
<path d="M381.759 338.664C381.759 338.788 302.944 338.887 205.753 338.887C108.562 338.887 29.7217 338.804 29.7217 338.664C29.7217 338.524 108.521 338.433 205.753 338.433C302.985 338.433 381.759 338.557 381.759 338.664Z" fill="#263238"/>
<path d="M116.851 286.332L91.9749 261.34L104.483 238.367C116.992 222.348 143.475 223.378 143.475 223.378C156.54 222.49 169.666 223.296 182.524 225.776C203.561 229.896 201.864 243.789 201.864 243.789L204.682 295.347L207.706 337.329L130.126 338.895L116.851 286.365" fill="#3F37C9"/>
<path d="M158.645 336.439L89.1568 337.263C85.3288 337.308 81.5524 336.379 78.1821 334.563C74.8119 332.747 71.9584 330.105 69.8898 326.884C67.8212 323.663 66.6052 319.968 66.3562 316.148C66.1072 312.328 66.8332 308.507 68.4662 305.045L98.1796 249.944L125.248 268.237L106.782 306.528L163.028 307.533L158.645 336.439Z" fill="#3F37C9"/>
<path d="M199.408 235.384L255.168 321.476L222.637 323.601C222.637 323.601 203.207 292.99 203.643 293.616C204.418 294.77 199.408 235.384 199.408 235.384Z" fill="#3F37C9"/>
<path d="M123.847 273.189C123.849 273.038 123.874 272.888 123.921 272.744C124.004 272.415 124.094 272.003 124.218 271.492C124.473 270.412 124.852 268.847 125.24 266.902C125.627 264.957 126.064 262.617 126.336 260.013C126.67 257.191 126.67 254.34 126.336 251.518C125.889 248.72 124.913 246.032 123.46 243.599C122.292 241.596 120.911 239.726 119.34 238.021C118.281 236.855 117.153 235.755 115.962 234.725C115.507 234.369 115.073 233.99 114.66 233.588C114.794 233.654 114.921 233.734 115.039 233.827C115.269 234 115.64 234.239 116.069 234.593C117.308 235.571 118.475 236.637 119.562 237.782C121.187 239.474 122.613 241.346 123.814 243.36C125.318 245.831 126.326 248.571 126.781 251.427C127.107 254.284 127.085 257.17 126.715 260.022C126.436 262.342 126.04 264.647 125.528 266.927C125.1 268.88 124.704 270.437 124.366 271.508C124.218 272.044 124.086 272.456 123.996 272.736C123.961 272.891 123.911 273.043 123.847 273.189Z" fill="#263238"/>
<path d="M121.606 276.156C121.487 276.585 121.327 277.001 121.128 277.4C120.798 278.224 120.304 279.328 119.67 280.696C118.409 283.489 116.621 287.329 114.561 291.531C112.501 295.734 110.556 299.499 109.114 302.243C108.389 303.595 107.796 304.715 107.375 305.432C107.175 305.831 106.943 306.214 106.683 306.578C106.831 306.157 107.013 305.749 107.227 305.358C107.647 304.534 108.191 303.43 108.875 302.103L114.206 291.391C116.225 287.214 118.063 283.44 119.431 280.613C120.073 279.287 120.601 278.183 121.013 277.317C121.178 276.914 121.376 276.526 121.606 276.156Z" fill="#263238"/>
<path d="M158.645 336.439C158.645 336.439 158.645 336.39 158.645 336.299C158.645 336.208 158.645 336.044 158.645 335.871C158.686 335.475 158.744 334.923 158.81 334.223C158.974 332.756 159.205 330.671 159.493 328.043C160.103 322.711 160.977 315.213 161.965 306.371L162.163 306.586H141.637L105.785 306.528L94.9083 306.462L91.9502 306.421H91.1756H90.9119C90.9995 306.41 91.088 306.41 91.1756 306.421H91.9502L94.9083 306.38L105.785 306.314L141.695 306.256H162.221H162.443V306.47C161.356 315.304 160.441 322.802 159.782 328.125C159.452 330.745 159.18 332.83 158.958 334.297C158.87 334.989 158.796 335.538 158.735 335.945L158.669 336.365C158.661 336.39 158.653 336.439 158.645 336.439Z" fill="#263238"/>
<path d="M107.268 307.138C106.771 306.588 106.308 306.007 105.884 305.399C103.663 302.611 100.913 300.29 97.7923 298.568C97.1258 298.246 96.4766 297.888 95.8477 297.497C96.5791 297.668 97.2815 297.946 97.9324 298.321C101.183 299.927 103.994 302.3 106.123 305.234C106.591 305.813 106.976 306.454 107.268 307.138Z" fill="#263238"/>
<path d="M205.835 312.593C205.775 312.358 205.736 312.118 205.72 311.876C205.662 311.373 205.588 310.689 205.489 309.824C205.3 308.044 205.044 305.465 204.772 302.276C204.204 295.89 203.553 287.057 202.976 277.301C202.399 267.545 201.995 258.695 201.765 252.292C201.649 249.087 201.567 246.524 201.534 244.703C201.534 243.838 201.534 243.154 201.493 242.643C201.48 242.405 201.48 242.165 201.493 241.927C201.538 242.163 201.563 242.403 201.567 242.643C201.567 243.146 201.633 243.838 201.682 244.703C201.773 246.533 201.896 249.112 202.053 252.276C202.358 258.678 202.811 267.512 203.388 277.276C203.965 287.041 204.574 295.857 205.036 302.252C205.283 305.407 205.481 308.02 205.621 309.816C205.687 310.64 205.736 311.365 205.778 311.868C205.819 312.107 205.838 312.35 205.835 312.593Z" fill="#263238"/>
<path d="M143.804 265.748C143.808 265.37 143.838 264.993 143.895 264.619C143.994 263.837 144.118 262.79 144.274 261.505C144.637 258.785 145.098 255.061 145.708 250.743L146.021 250.941L140.69 254.674L135.268 258.448L134.881 258.72L134.946 258.25C135.606 253.973 136.166 250.282 136.594 247.538C136.809 246.277 136.974 245.239 137.105 244.464C137.15 244.093 137.227 243.726 137.336 243.368C137.337 243.744 137.304 244.119 137.237 244.489C137.138 245.264 137.015 246.302 136.85 247.579C136.479 250.282 135.96 253.982 135.367 258.291L135.054 258.093L140.467 254.303L145.807 250.587L146.194 250.315L146.128 250.784C145.494 255.086 144.942 258.81 144.546 261.496C144.34 262.774 144.175 263.82 144.052 264.595C144.004 264.986 143.921 265.372 143.804 265.748Z" fill="#E0E0E0"/>
<path d="M174.82 269.086C174.523 268.849 174.247 268.587 173.996 268.303C173.46 267.726 172.735 266.96 171.845 266.02L164.487 258.044L164.841 257.92C164.668 259.939 164.487 262.131 164.297 264.405C164.108 266.679 163.91 268.937 163.737 270.997L163.696 271.475L163.383 271.121L156.222 263.046L154.179 260.689C153.919 260.419 153.687 260.124 153.486 259.807C153.783 260.059 154.058 260.335 154.31 260.631L156.436 262.906L163.704 270.874L163.35 270.997C163.523 268.945 163.704 266.721 163.902 264.405C164.1 262.09 164.281 259.939 164.454 257.92L164.495 257.451L164.808 257.797L172.059 265.88L174.128 268.245C174.38 268.507 174.611 268.788 174.82 269.086Z" fill="#E0E0E0"/>
<path d="M190.426 267.981C190.273 268.329 190.085 268.66 189.866 268.97L188.218 271.624L182.335 280.753L182.137 280.44L188.531 279.336L195.041 278.24L195.51 278.158L195.288 278.512L189.273 287.461L187.46 290.048C187.259 290.365 187.033 290.665 186.784 290.946C186.947 290.609 187.134 290.284 187.345 289.974L188.993 287.337L194.884 278.273L195.09 278.586L188.581 279.715L182.162 280.803L181.692 280.877L181.956 280.49L187.963 271.426L189.726 268.83C189.942 268.533 190.176 268.25 190.426 267.981Z" fill="#E0E0E0"/>
<path d="M169.67 283.95C169.515 284.294 169.327 284.623 169.11 284.931L167.462 287.593L161.586 296.714L161.38 296.401L167.791 295.297L174.309 294.193L174.779 294.119L174.507 294.506L168.492 303.463L166.72 306.034C166.523 306.351 166.297 306.649 166.044 306.924C166.209 306.587 166.396 306.262 166.605 305.951C167.033 305.292 167.593 304.41 168.253 303.323L174.144 294.259L174.35 294.572L167.841 295.701L161.422 296.78L160.952 296.863L161.216 296.467L167.223 287.403C167.948 286.332 168.541 285.458 168.994 284.807C169.198 284.506 169.424 284.219 169.67 283.95Z" fill="#E0E0E0"/>
<path d="M214.52 267.8C214.357 268.14 214.17 268.467 213.96 268.781L212.312 271.442L206.437 280.564L206.231 280.251L212.641 279.147L219.159 278.042L219.629 277.968L219.365 278.355L213.342 287.312C212.617 288.367 212.023 289.232 211.57 289.875C211.375 290.196 211.149 290.497 210.895 290.773C211.061 290.436 211.251 290.111 211.463 289.801L213.111 287.172L219.003 278.108L219.209 278.421L212.699 279.542L206.28 280.63L205.819 280.712L206.074 280.317L212.081 271.253L213.853 268.657C214.047 268.35 214.27 268.063 214.52 267.8Z" fill="#E0E0E0"/>
<path d="M240.394 309.28C240.099 309.056 239.824 308.808 239.57 308.539L237.312 306.363L229.558 298.766L229.904 298.626C229.838 300.653 229.772 302.845 229.698 305.127C229.624 307.41 229.533 309.676 229.459 311.719V312.197L229.121 311.859L221.574 304.155L219.415 301.906C219.147 301.65 218.899 301.375 218.673 301.082C218.967 301.307 219.242 301.555 219.497 301.823L221.738 303.99L229.402 311.588L229.047 311.728C229.113 309.668 229.187 307.443 229.262 305.136C229.336 302.828 229.426 300.661 229.5 298.634V298.165L229.83 298.494L237.469 306.207L239.652 308.465C239.922 308.715 240.17 308.988 240.394 309.28Z" fill="#E0E0E0"/>
<path d="M109.501 254.567C109.34 254.907 109.153 255.235 108.941 255.547L107.293 258.209L101.418 267.339L101.212 267.026L107.623 265.913L114.14 264.817L114.61 264.735L114.346 265.13L108.323 274.079L106.56 276.65C106.36 276.965 106.134 277.262 105.884 277.54C106.042 277.202 106.229 276.88 106.444 276.576L108.092 273.939C109.584 271.656 111.627 268.525 113.984 264.875L114.19 265.188L107.68 266.317L101.261 267.405L100.8 267.479L101.055 267.091C103.47 263.466 105.546 260.335 107.062 258.027L108.834 255.432C109.033 255.126 109.256 254.837 109.501 254.567Z" fill="#E0E0E0"/>
<path d="M76.9204 316.185C77.198 316.436 77.4518 316.712 77.6785 317.009L79.689 319.424L86.52 327.853L86.1574 327.952C86.4541 325.95 86.7672 323.774 87.105 321.508C87.4429 319.242 87.7725 317.009 88.0774 314.974L88.1433 314.504L88.4399 314.883L95.0814 323.387L96.9683 325.859C97.2081 326.145 97.4231 326.451 97.611 326.774C97.3404 326.519 97.0898 326.243 96.8612 325.95L94.8836 323.544L88.168 315.131L88.5306 315.04C88.2339 317.075 87.9126 319.284 87.5747 321.574C87.2369 323.865 86.9155 326.007 86.6106 328.01L86.5447 328.479L86.2481 328.109L79.5242 319.588L77.6043 317.116C77.3557 316.822 77.1272 316.511 76.9204 316.185Z" fill="#E0E0E0"/>
<path d="M151.328 276.287C150.959 276.366 150.584 276.416 150.207 276.436L147.076 276.707L136.248 277.531L136.38 277.185L141.126 281.635L145.93 286.167L146.276 286.497H145.799L135.029 287.09L131.914 287.222C131.541 287.254 131.166 287.254 130.794 287.222C131.16 287.148 131.532 287.101 131.906 287.082L135.012 286.834L145.774 286.093L145.65 286.439L140.83 281.923L136.1 277.457L135.754 277.128H136.224L147.059 276.477L150.19 276.32C150.568 276.281 150.948 276.27 151.328 276.287Z" fill="#E0E0E0"/>
<path d="M133.068 317.817C133.343 318.075 133.601 318.35 133.842 318.641L135.894 321.014L142.906 329.303L142.544 329.402C142.799 327.392 143.079 325.216 143.368 322.95C143.656 320.684 143.953 318.435 144.192 316.4L144.258 315.922L144.554 316.292L151.377 324.656L153.313 327.128C153.553 327.415 153.774 327.718 153.973 328.034C153.695 327.782 153.438 327.506 153.206 327.21L151.179 324.846L144.258 316.606L144.612 316.498C144.357 318.542 144.076 320.75 143.788 323.049C143.5 325.348 143.211 327.499 142.964 329.509L142.898 329.979L142.601 329.617L135.705 321.228L133.743 318.756C133.488 318.466 133.261 318.151 133.068 317.817Z" fill="#E0E0E0"/>
<path d="M100.429 287.362C100.06 287.443 99.6855 287.492 99.3085 287.51L96.1855 287.774L85.3582 288.598L85.4818 288.243L90.2362 292.701L95.0402 297.233L95.3862 297.563H94.9083L84.1386 298.156L81.0239 298.288C80.6593 298.319 80.2927 298.319 79.928 298.288C80.294 298.209 80.6662 298.162 81.0404 298.148L84.1469 297.901L94.9083 297.151L94.7847 297.505L89.9643 292.99L85.2263 288.524L84.8885 288.194H85.3582L96.1938 287.535L99.325 287.387C99.6919 287.351 100.061 287.342 100.429 287.362Z" fill="#E0E0E0"/>
<path d="M128.47 316.886C128.101 316.964 127.726 317.011 127.349 317.026L124.218 317.298L113.391 318.122L113.522 317.767L118.269 322.225L123.073 326.757L123.419 327.087H122.949L112.171 327.672L109.056 327.812C108.684 327.844 108.309 327.844 107.936 327.812C108.302 327.733 108.674 327.686 109.048 327.672L112.155 327.425L122.916 326.675L122.792 327.029L117.972 322.514L113.242 318.064L112.896 317.743H113.366L124.202 317.084L127.341 316.935C127.715 316.885 128.093 316.868 128.47 316.886Z" fill="#E0E0E0"/>
<path d="M191.761 241.77C191.392 241.849 191.018 241.899 190.641 241.918L187.509 242.182L176.69 243.006L176.814 242.66L181.56 247.109L186.364 251.641L186.71 251.971H186.24L175.463 252.564L172.348 252.696C171.975 252.728 171.6 252.728 171.227 252.696C171.593 252.617 171.965 252.57 172.34 252.556L175.446 252.309L186.216 251.567L186.084 251.913L181.28 247.406L176.55 242.94L176.204 242.61H176.674L187.509 241.951L190.649 241.803C191.018 241.764 191.39 241.753 191.761 241.77Z" fill="#E0E0E0"/>
<path d="M160.977 316.886C160.977 316.886 174.836 312.889 179.426 311.719C181.214 311.266 188.869 315.304 194.159 318.666C194.159 318.666 201.443 322.983 200.858 324.31C200.207 325.777 197.562 325.48 193.236 323.486C193.236 323.486 194.736 327.829 191.794 327.73C191.794 327.73 193.253 332.426 190.501 332.913C187.748 333.399 187.106 327.408 184.683 327.087C182.261 326.766 177.267 326.436 177.267 326.436C177.267 326.436 173.089 333.358 169.851 333.852C166.613 334.346 159.139 333.465 159.139 333.465L160.977 316.886Z" fill="#FFBE9D"/>
<path d="M184.634 317.842C185.991 318.446 187.287 319.177 188.506 320.025C189.8 320.757 191.02 321.612 192.149 322.58C189.494 321.25 186.977 319.663 184.634 317.842Z" fill="#EB996E"/>
<path d="M183.818 320.536C185.401 321.034 186.939 321.666 188.416 322.423C189.942 323.043 191.414 323.79 192.816 324.656C191.232 324.163 189.694 323.535 188.218 322.777C186.689 322.16 185.216 321.41 183.818 320.536Z" fill="#EB996E"/>
<path d="M185.301 326.972C187.394 326.964 189.479 327.241 191.498 327.796C189.404 327.801 187.32 327.524 185.301 326.972Z" fill="#EB996E"/>
<path d="M142.939 173.864C143.102 174.398 143.105 174.968 142.946 175.504C142.787 176.039 142.474 176.515 142.046 176.874C141.618 177.233 141.094 177.457 140.539 177.52C139.984 177.582 139.424 177.48 138.926 177.226C137.048 176.278 136.809 173.683 137.18 171.615C137.55 169.546 138.251 167.33 137.386 165.41C136.718 163.943 135.276 163.012 134.155 161.858C133.167 160.856 132.423 159.637 131.985 158.299C131.546 156.961 131.423 155.539 131.626 154.146C131.863 152.756 132.48 151.459 133.407 150.398C134.335 149.337 135.538 148.552 136.883 148.131C139.643 147.364 143.046 148.213 145.123 146.211C146.614 144.76 146.705 142.396 147.859 140.665C149.647 137.979 153.429 137.55 156.626 137.987C159.823 138.424 163.07 139.454 166.201 138.671C168.813 138.02 170.955 136.199 173.411 135.078C176.087 133.855 179.079 133.499 181.967 134.059C184.856 134.62 187.497 136.069 189.522 138.204C191.547 140.34 192.853 143.054 193.259 145.969C193.665 148.883 193.15 151.852 191.786 154.459C190.877 156.367 189.329 157.897 187.411 158.785" fill="#263238"/>
<path d="M158.842 241.935C160.944 241.931 163.023 241.509 164.961 240.696C166.898 239.882 168.654 238.692 170.128 237.194C171.602 235.696 172.764 233.921 173.547 231.971C174.33 230.021 174.717 227.935 174.688 225.834L174.482 210.689C174.482 210.689 187.205 209.411 188.045 196.804C188.886 184.197 188.284 155.102 188.284 155.102C181.284 151.629 173.484 150.086 165.688 150.632C157.893 151.178 150.384 153.793 143.936 158.208L141.992 159.551L142.939 226.246C142.989 230.428 144.688 234.422 147.665 237.36C150.643 240.298 154.66 241.942 158.842 241.935Z" fill="#FFBE9D"/>
<path d="M184.955 177.984C184.495 177.931 184.07 177.711 183.762 177.365C183.454 177.02 183.284 176.573 183.284 176.11C183.284 175.646 183.454 175.199 183.762 174.854C184.07 174.508 184.495 174.288 184.955 174.235C185.055 174.21 185.16 174.21 185.26 174.235C185.72 174.288 186.145 174.508 186.453 174.854C186.761 175.199 186.931 175.646 186.931 176.11C186.931 176.573 186.761 177.02 186.453 177.365C186.145 177.711 185.72 177.931 185.26 177.984C185.159 178.001 185.056 178.001 184.955 177.984Z" fill="#263238"/>
<path d="M187.427 173.914C187.221 174.128 186.034 173.09 184.296 172.999C182.557 172.908 181.247 173.724 181.074 173.493C180.901 173.263 181.198 173.007 181.774 172.62C182.545 172.125 183.454 171.891 184.368 171.952C185.282 172.013 186.152 172.365 186.85 172.958C187.369 173.419 187.534 173.864 187.427 173.914Z" fill="#263238"/>
<path d="M167.33 174.342C167.629 174.549 167.859 174.84 167.993 175.178C168.126 175.516 168.157 175.887 168.08 176.242C168.003 176.597 167.822 176.922 167.56 177.174C167.299 177.427 166.968 177.596 166.61 177.661C166.253 177.726 165.884 177.683 165.55 177.537C165.217 177.392 164.934 177.152 164.738 176.846C164.541 176.54 164.44 176.182 164.447 175.819C164.453 175.455 164.568 175.102 164.775 174.803C165.053 174.404 165.478 174.131 165.957 174.044C166.436 173.958 166.93 174.065 167.33 174.342Z" fill="#263238"/>
<path d="M168.475 174.416C168.261 174.631 167.074 173.592 165.344 173.502C163.613 173.411 162.295 174.227 162.114 173.996C162.023 173.889 162.246 173.51 162.814 173.123C163.585 172.628 164.494 172.394 165.408 172.455C166.322 172.516 167.192 172.868 167.89 173.46C168.409 173.922 168.574 174.326 168.475 174.416Z" fill="#263238"/>
<path d="M174.688 189.133C174.688 189.001 175.767 188.836 177.531 188.688C177.984 188.688 178.355 188.581 178.396 188.342C178.429 187.887 178.341 187.432 178.141 187.023C177.753 185.845 177.366 184.658 176.954 183.414C175.306 178.281 174.227 174.054 174.482 173.971C174.737 173.889 176.27 177.984 177.893 183.118C178.272 184.37 178.643 185.59 178.998 186.743C179.259 187.343 179.311 188.013 179.146 188.647C179.072 188.818 178.959 188.969 178.816 189.088C178.673 189.206 178.503 189.29 178.322 189.331C178.065 189.388 177.801 189.407 177.539 189.388C175.759 189.355 174.688 189.273 174.688 189.133Z" fill="#263238"/>
<path d="M168.92 190.748C171.568 192.107 174.391 193.097 177.308 193.689C176.669 194.568 175.75 195.204 174.703 195.495C173.656 195.785 172.541 195.712 171.54 195.288C167.824 193.698 168.92 190.748 168.92 190.748Z" fill="white"/>
<path d="M174.531 210.507C168.698 210.299 163.059 208.36 158.332 204.937C158.332 204.937 161.726 214.224 174.375 213.779L174.531 210.507Z" fill="#EB996E"/>
<path d="M188.391 158.29C188.391 158.29 180.769 162.163 170.675 157.367C164.083 154.22 156.362 152.761 154.698 154.121C153.033 155.481 152.811 162.237 146.351 164.339C146.351 164.339 147.051 177.242 141.893 176.88C136.735 176.517 139.569 156.469 139.569 156.469L152.036 150.075L165.723 147.216L178.701 148.79L188.77 151.336L188.391 158.29Z" fill="#263238"/>
<path d="M142.832 172.735C142.626 172.628 134.304 169.695 134.114 178.338C133.925 186.982 142.634 185.392 142.651 185.145C142.667 184.898 142.832 172.735 142.832 172.735Z" fill="#FFBE9D"/>
<path d="M140.08 181.807C140.08 181.807 139.923 181.914 139.668 182.022C139.306 182.169 138.901 182.169 138.539 182.022C137.633 181.667 136.891 180.201 136.891 178.643C136.89 177.901 137.05 177.167 137.361 176.493C137.45 176.225 137.601 175.983 137.804 175.786C138.006 175.59 138.253 175.445 138.523 175.364C138.697 175.332 138.877 175.357 139.036 175.436C139.195 175.515 139.324 175.642 139.404 175.8C139.511 176.039 139.454 176.212 139.495 176.229C139.536 176.245 139.684 176.089 139.627 175.734C139.581 175.519 139.466 175.325 139.297 175.182C139.064 174.999 138.768 174.913 138.473 174.943C138.116 175.005 137.781 175.157 137.5 175.385C137.219 175.613 137.001 175.909 136.866 176.245C136.486 176.987 136.288 177.809 136.29 178.643C136.29 180.382 137.163 182.038 138.399 182.425C138.63 182.496 138.874 182.515 139.113 182.481C139.352 182.446 139.581 182.36 139.783 182.228C140.08 182.022 140.08 181.824 140.08 181.807Z" fill="#EB996E"/>
<path d="M138.432 145.683C139.418 145.394 140.471 145.432 141.434 145.791C142.396 146.151 143.216 146.813 143.772 147.677C143.003 147.095 142.174 146.598 141.3 146.194C140.364 145.925 139.403 145.753 138.432 145.683Z" fill="#263238"/>
<path d="M143.631 140.509C143.788 140.509 143.549 142.33 143.846 144.488C144.102 145.786 144.509 147.05 145.057 148.254C145.057 148.254 144.694 147.949 144.332 147.307C143.867 146.451 143.56 145.519 143.425 144.554C143.185 143.208 143.256 141.824 143.631 140.509Z" fill="#263238"/>
<path d="M179.138 169.744C179.088 169.645 179.459 169.34 180.159 169.06C182.019 168.341 184.083 168.362 185.927 169.118C186.62 169.414 186.99 169.719 186.941 169.818C186.834 170.049 185.169 169.398 183.035 169.398C180.901 169.398 179.236 169.999 179.138 169.744Z" fill="#263238"/>
<path d="M159.856 167.948C159.807 167.849 160.177 167.552 160.878 167.264C161.8 166.907 162.782 166.731 163.77 166.745C164.763 166.744 165.746 166.94 166.662 167.321C167.354 167.618 167.717 167.923 167.676 168.03C167.635 168.137 165.904 167.61 163.762 167.602C161.619 167.593 159.971 168.178 159.856 167.948Z" fill="#263238"/>
<path d="M177.646 171.128C177.665 171.298 177.665 171.47 177.646 171.639C177.646 172.002 177.646 172.463 177.687 173.032C177.729 173.6 177.687 174.367 177.737 175.191C177.706 176.142 177.845 177.091 178.149 177.992C178.546 179.162 179.234 180.212 180.148 181.043C181.061 181.875 182.171 182.461 183.373 182.747C184.063 182.915 184.774 182.976 185.482 182.928C186.219 182.895 186.946 182.742 187.633 182.475C189.099 181.926 190.348 180.917 191.193 179.599C191.993 178.341 192.395 176.871 192.346 175.38C192.346 173.905 192.346 172.488 192.346 171.128L192.544 171.326L181.832 171.227L178.726 171.17H177.902H177.597C177.95 171.13 178.305 171.114 178.66 171.12L181.717 171.063L192.544 170.964H192.816V171.17C192.816 172.529 192.816 173.947 192.816 175.421C192.871 176.993 192.449 178.544 191.605 179.871C190.709 181.266 189.385 182.333 187.831 182.912C187.101 183.192 186.33 183.351 185.548 183.381C184.803 183.426 184.056 183.356 183.332 183.175C182.071 182.871 180.91 182.247 179.961 181.364C179.011 180.48 178.305 179.368 177.91 178.132C177.614 177.19 177.491 176.202 177.547 175.215C177.547 174.391 177.547 173.625 177.588 172.999C177.63 172.373 177.588 171.985 177.63 171.623C177.622 171.458 177.627 171.293 177.646 171.128Z" fill="#263238"/>
<path d="M157.45 170.7C157.45 170.7 157.45 170.889 157.45 171.211V172.603C157.45 173.213 157.45 173.938 157.491 174.77C157.469 175.721 157.609 176.668 157.903 177.572C158.283 178.657 158.906 179.641 159.724 180.448C160.669 181.366 161.845 182.013 163.127 182.318C164.545 182.66 166.033 182.565 167.396 182.046C168.857 181.498 170.103 180.492 170.947 179.179C171.75 177.921 172.155 176.451 172.109 174.96C172.109 173.485 172.109 172.059 172.109 170.7L172.307 170.898L161.595 170.799L158.496 170.749H157.672H157.368C157.718 170.71 158.07 170.694 158.422 170.7L161.479 170.65L172.307 170.552H172.504V170.749C172.504 172.109 172.504 173.534 172.504 175.009C172.554 176.581 172.129 178.132 171.285 179.459C170.389 180.849 169.068 181.913 167.519 182.491C166.789 182.771 166.018 182.93 165.237 182.961C164.489 183.005 163.739 182.936 163.012 182.755C161.665 182.423 160.435 181.731 159.452 180.753C158.602 179.899 157.964 178.857 157.59 177.712C157.294 176.77 157.171 175.781 157.227 174.795C157.227 173.971 157.227 173.205 157.277 172.579C157.326 171.952 157.277 171.565 157.277 171.202C157.307 171.027 157.365 170.857 157.45 170.7Z" fill="#263238"/>
<path d="M177.827 171.73C175.943 172.016 174.026 172.016 172.142 171.73C174.025 171.433 175.944 171.433 177.827 171.73Z" fill="#263238"/>
<path d="M141.728 171.837C144.348 171.619 146.977 171.539 149.605 171.598C152.236 171.524 154.868 171.587 157.491 171.788C154.872 172.016 152.242 172.096 149.614 172.027C146.984 172.111 144.351 172.047 141.728 171.837Z" fill="#263238"/>
<path d="M226.493 327.334C228.344 330.771 231.149 333.6 234.569 335.481C237.99 337.362 241.881 338.216 245.774 337.939C250.375 337.617 254.728 335.736 258.115 332.607C261.502 329.477 263.721 325.286 264.405 320.726L269.184 266.02L250.043 261.291L242.223 304.139C242.223 304.139 238.136 322.093 226.493 327.334Z" fill="#FFBE9D"/>
<path d="M249.87 265.254L250.504 255.654C250.504 255.654 253.215 234.115 253.215 232.005C253.215 229.583 254.377 228.99 255.275 229.056C256.668 229.146 257.657 230.868 257.747 232.953C257.747 233.67 257.681 245.058 257.681 245.058C258.34 243.982 259.075 242.954 259.881 241.984C261.529 239.85 265.518 238.63 269.58 238.762C273.642 238.894 274.755 239.29 274.779 240.863C274.765 241.164 274.683 241.458 274.541 241.723C274.398 241.988 274.198 242.218 273.955 242.396C273.206 243.021 272.253 243.349 271.277 243.319C264.776 243.204 263.037 246.673 263.037 246.673L262.955 247.933C262.955 247.933 266.902 245.107 270.05 246.285C270.515 246.457 270.94 246.721 271.302 247.06C272.188 247.064 273.058 247.299 273.826 247.742C274.593 248.186 275.231 248.822 275.677 249.588C276.122 250.354 276.36 251.224 276.366 252.11C276.372 252.996 276.146 253.869 275.71 254.641C275.541 255.037 275.254 255.372 274.889 255.6C274.524 255.828 274.097 255.939 273.667 255.918C273.231 255.787 272.836 255.546 272.522 255.218C272.337 255.061 272.141 254.918 271.936 254.789L271.211 258.275C271.211 258.275 269.16 266.02 268.649 269.497" fill="#FFBE9D"/>
<path d="M251.74 264.504C252.927 264.834 254.155 263.96 254.797 262.906C255.44 261.851 255.712 260.607 256.272 259.502C257.97 256.206 262.04 254.641 263.598 251.262C263.812 250.793 263.927 250.15 263.515 249.837C263.103 249.524 262.592 249.779 262.172 250.01L251.46 255.943" fill="#FFBE9D"/>
<path d="M251.452 255.926C251.785 255.631 252.153 255.376 252.548 255.168C253.273 254.715 254.336 254.089 255.654 253.323L260.31 250.661L261.653 249.903C262.153 249.507 262.791 249.326 263.425 249.4C263.62 249.464 263.792 249.585 263.917 249.748C264.042 249.912 264.115 250.109 264.125 250.315C264.146 250.654 264.087 250.992 263.952 251.304C263.704 251.853 263.395 252.373 263.029 252.853C261.546 254.781 259.626 255.992 258.242 257.401C257.568 258.039 256.996 258.775 256.544 259.585C256.14 260.343 255.885 261.134 255.572 261.851C255.379 262.449 255.058 262.998 254.631 263.459C254.204 263.921 253.682 264.283 253.1 264.521C252.218 264.784 251.724 264.521 251.757 264.471C252.184 264.484 252.609 264.414 253.009 264.265C253.525 264.002 253.98 263.635 254.346 263.187C254.712 262.738 254.98 262.219 255.135 261.661C255.399 260.863 255.704 260.079 256.05 259.313C256.504 258.436 257.097 257.637 257.805 256.948C259.222 255.465 261.101 254.221 262.485 252.433C262.811 252.001 263.088 251.534 263.309 251.04C263.515 250.57 263.482 250.101 263.219 250.051C262.955 250.002 262.436 250.224 261.983 250.48L260.615 251.221L255.893 253.792C254.542 254.509 253.421 255.069 252.68 255.44C252.295 255.659 251.882 255.823 251.452 255.926Z" fill="#EB996E"/>
<path d="M262.807 248.024C262.879 247.244 263.136 246.493 263.556 245.832C264.045 245.154 264.738 244.652 265.534 244.398C266.531 244.071 267.574 243.904 268.624 243.904C269.702 243.915 270.778 243.821 271.838 243.624C272.725 243.443 273.55 243.031 274.227 242.429C274.452 242.221 274.627 241.965 274.739 241.679C274.85 241.394 274.895 241.086 274.87 240.781C274.858 240.556 274.784 240.34 274.656 240.155C274.614 240.155 274.656 240.394 274.697 240.789C274.693 241.065 274.629 241.337 274.51 241.587C274.39 241.836 274.218 242.056 274.005 242.231C273.346 242.75 272.571 243.1 271.747 243.253C270.709 243.424 269.659 243.501 268.608 243.484C267.519 243.472 266.435 243.642 265.402 243.986C264.538 244.287 263.799 244.867 263.301 245.634C262.978 246.151 262.791 246.74 262.757 247.348C262.71 247.574 262.727 247.808 262.807 248.024Z" fill="#EB996E"/>
<path d="M257.69 232.146C257.62 232.899 257.62 233.658 257.69 234.412C257.69 235.961 257.69 237.815 257.747 239.858C257.805 241.902 257.747 243.756 257.747 245.305C257.698 246.06 257.714 246.818 257.797 247.571C257.977 246.832 258.068 246.074 258.069 245.313C258.167 243.92 258.233 242.017 258.225 239.858C258.217 237.699 258.134 235.788 258.036 234.395C258.001 233.635 257.885 232.881 257.69 232.146Z" fill="#EB996E"/>
<path d="M265.377 250.554C265.608 250.498 265.829 250.412 266.037 250.298C266.305 250.161 266.6 250.083 266.901 250.068C267.202 250.054 267.503 250.104 267.784 250.216C267.956 250.309 268.101 250.446 268.205 250.612C268.309 250.778 268.368 250.968 268.377 251.163C268.403 251.655 268.367 252.148 268.27 252.63C268.133 253.237 268.23 253.872 268.542 254.41C268.738 254.687 268.998 254.913 269.298 255.07C269.599 255.228 269.933 255.312 270.272 255.316C270.606 255.314 270.935 255.244 271.241 255.111C271.547 254.978 271.823 254.784 272.052 254.542C272.481 254.111 272.769 253.559 272.876 252.96C273.005 251.991 272.991 251.008 272.835 250.043C272.749 249.39 272.551 248.757 272.25 248.172C272.019 247.76 271.805 247.604 271.788 247.62C271.772 247.637 271.92 247.843 272.093 248.247C272.319 248.839 272.461 249.46 272.513 250.092C272.622 251.021 272.608 251.96 272.472 252.886C272.367 253.41 272.095 253.886 271.697 254.242C271.299 254.599 270.796 254.817 270.264 254.863C269.996 254.862 269.732 254.798 269.493 254.676C269.254 254.554 269.047 254.379 268.888 254.163C268.639 253.711 268.56 253.185 268.665 252.68C268.757 252.16 268.779 251.631 268.731 251.106C268.707 250.855 268.619 250.615 268.474 250.408C268.33 250.202 268.135 250.036 267.907 249.927C267.587 249.805 267.242 249.761 266.901 249.799C266.56 249.836 266.233 249.953 265.946 250.142C265.559 250.372 265.328 250.496 265.377 250.554Z" fill="#EB996E"/>
<path d="M271.862 254.196C271.805 254.411 271.828 254.64 271.928 254.839C272.044 255.121 272.223 255.374 272.452 255.576C272.68 255.779 272.952 255.927 273.247 256.009C273.69 256.104 274.151 256.083 274.585 255.947C275.018 255.811 275.409 255.566 275.719 255.234C276.461 254.418 276.86 253.346 276.831 252.243C276.831 251.153 276.491 250.09 275.859 249.202C275.343 248.478 274.639 247.909 273.823 247.554C273.288 247.313 272.712 247.176 272.126 247.151C271.714 247.151 271.492 247.151 271.492 247.217C272.252 247.315 272.993 247.526 273.692 247.843C274.423 248.206 275.052 248.747 275.521 249.417C276.069 250.248 276.356 251.223 276.345 252.218C276.372 253.206 276.032 254.17 275.389 254.921C275.128 255.217 274.796 255.441 274.423 255.572C274.051 255.703 273.652 255.737 273.263 255.671C273.004 255.613 272.76 255.499 272.548 255.339C272.336 255.178 272.161 254.974 272.035 254.74C271.92 254.427 271.92 254.196 271.862 254.196Z" fill="#EB996E"/>
<path d="M264.034 261.81C263.68 261.698 263.301 261.698 262.947 261.81C262.019 262.013 261.185 262.517 260.574 263.243L260.953 263.359C260.902 262.849 260.82 262.342 260.705 261.843C260.377 260.071 259.564 258.425 258.357 257.088C259.164 258.634 259.805 260.261 260.269 261.942C260.384 262.452 260.466 262.947 260.524 263.408L260.59 263.919L260.911 263.515C261.458 262.842 262.188 262.341 263.013 262.073C263.631 261.884 264.034 261.867 264.034 261.81Z" fill="#EB996E"/>
<path d="M264.24 242.437C264.133 242.487 264.57 243.261 265.575 243.731C266.58 244.201 267.47 243.929 267.429 243.813C267.388 243.698 266.605 243.706 265.781 243.319C264.957 242.932 264.347 242.355 264.24 242.437Z" fill="#EB996E"/>
<path d="M246.574 271.467L270.626 273.189C270.626 273.189 266.927 315.749 266.21 322.349C265.493 328.949 261.266 338.903 246.574 338.903C231.882 338.903 229.146 333.901 222.612 323.601C230.316 318.262 242.553 302.317 242.553 302.317L246.574 271.467Z" fill="#3F37C9"/>
<path d="M257.912 277.194C257.788 277.552 257.64 277.902 257.467 278.24L256.124 281.075L251.378 290.872L251.139 290.584L257.376 288.73L263.713 286.867L264.174 286.736L263.952 287.156L259.008 296.755L257.549 299.516C257.388 299.853 257.198 300.176 256.981 300.48C257.107 300.127 257.256 299.783 257.426 299.45C257.772 298.741 258.25 297.802 258.777 296.64L263.565 286.974L263.804 287.263L257.475 289.142L251.229 290.971L250.776 291.103L250.99 290.682L255.91 280.984C256.511 279.839 256.997 278.899 257.36 278.199C257.515 277.849 257.7 277.513 257.912 277.194Z" fill="#E0E0E0"/>
<path d="M255.638 318.13C255.269 318.209 254.894 318.259 254.517 318.278L251.386 318.55L240.559 319.374L240.69 319.02L245.437 323.47L250.241 328.002L250.587 328.331H250.109L239.339 328.924L236.224 329.056C235.851 329.089 235.477 329.089 235.104 329.056C235.471 328.984 235.842 328.939 236.216 328.924L239.323 328.669L250.084 327.927L249.96 328.282L245.14 323.758L240.41 319.292L240.064 318.971H240.534L251.369 318.32L254.509 318.163C254.884 318.123 255.261 318.112 255.638 318.13Z" fill="#E0E0E0"/>
<path d="M298.461 166.094L273.931 157.285L249.672 165.978C246.574 167.437 243.855 168.319 243.855 171.203V185.59C243.797 195.695 246.556 205.616 251.823 214.24C257.085 222.943 264.882 229.83 274.17 233.975C284.058 230.753 291.474 222.15 296.047 214.8C301.327 206.18 304.101 196.259 304.056 186.15V173.213C304.056 169.093 301.864 167.083 298.461 166.094Z" fill="#3F37C9"/>
<g opacity="0.3">
<path d="M274.17 225.603C266.81 222.284 260.642 216.792 256.495 209.865C252.32 203.049 250.126 195.205 250.158 187.213V177.16C250.158 174.869 251.542 172.727 254.278 171.45L273.939 164.1V157.318L249.672 165.978C247.126 167.091 243.855 168.319 243.855 171.203V185.59C243.797 195.695 246.556 205.616 251.823 214.24C257.085 222.943 264.882 229.83 274.17 233.975V225.603Z" fill="black"/>
</g>
<g opacity="0.4">
<path d="M274.17 233.95C275.834 233.407 277.447 232.717 278.99 231.89C282.785 229.744 286.235 227.038 289.224 223.864C291.927 220.953 294.306 217.756 296.319 214.331C301.661 205.647 304.351 195.591 304.056 185.4V173.526C304.056 167.61 301.007 167.173 298.453 166.061L273.922 157.252V164.034L293.814 171.507C296.549 172.785 297.934 174.927 297.934 177.209V187.303C297.966 195.293 295.772 203.135 291.597 209.947C287.539 216.842 281.445 222.311 274.153 225.603L274.17 233.95Z" fill="black"/>
</g>
<path opacity="0.5" d="M280.44 186.57V184.625C280.44 182.936 279.769 181.316 278.575 180.121C277.38 178.927 275.76 178.256 274.071 178.256C272.381 178.256 270.761 178.927 269.567 180.121C268.372 181.316 267.701 182.936 267.701 184.625V186.603C266.858 186.729 266.088 187.154 265.532 187.799C264.976 188.445 264.669 189.269 264.669 190.121V201.575C264.669 202.519 265.044 203.425 265.711 204.092C266.379 204.76 267.284 205.135 268.228 205.135H280.16C281.104 205.135 282.009 204.76 282.677 204.092C283.345 203.425 283.72 202.519 283.72 201.575V190.121C283.72 189.225 283.383 188.362 282.775 187.704C282.167 187.045 281.333 186.641 280.44 186.57ZM275.801 198.716H272.686L273.172 196.466C272.832 196.244 272.572 195.918 272.431 195.536C272.291 195.155 272.278 194.738 272.394 194.348C272.509 193.958 272.748 193.616 273.074 193.373C273.4 193.13 273.796 192.998 274.202 192.998C274.609 192.998 275.005 193.13 275.331 193.373C275.657 193.616 275.896 193.958 276.011 194.348C276.127 194.738 276.114 195.155 275.974 195.536C275.833 195.918 275.573 196.244 275.232 196.466C275.447 197.307 275.801 198.716 275.801 198.716ZM279.097 186.554H269.077V184.625C269.13 183.335 269.679 182.115 270.611 181.221C271.542 180.326 272.783 179.827 274.075 179.827C275.366 179.827 276.607 180.326 277.539 181.221C278.47 182.115 279.02 183.335 279.072 184.625L279.097 186.554Z" fill="white"/>
<path d="M254.138 186.43C253.924 185.786 253.799 185.115 253.767 184.436C253.584 182.814 253.518 181.181 253.57 179.55C253.57 178.594 253.66 177.687 253.743 176.863C253.783 176.112 253.971 175.376 254.295 174.696C254.527 174.231 254.902 173.852 255.366 173.617C255.704 173.46 255.91 173.469 255.91 173.493C255.318 173.765 254.842 174.238 254.567 174.828C254.303 175.487 254.158 176.187 254.138 176.896C254.072 177.72 254.023 178.619 253.998 179.566C253.94 181.453 253.998 183.167 254.072 184.411C254.147 185.081 254.169 185.756 254.138 186.43Z" fill="white"/>
<path d="M254.492 192.684C254.377 192.684 254.27 192.099 254.253 191.366C254.237 190.632 254.328 190.039 254.443 190.039C254.558 190.039 254.665 190.624 254.682 191.357C254.698 192.091 254.616 192.684 254.492 192.684Z" fill="white"/>
<path d="M246.665 273L219.316 340.634H170V343.691H316.894L346.946 273H246.665Z" fill="#263238"/>
<path d="M288.475 312.931C287.486 316.334 284.602 318.485 282.031 317.743C279.46 317.002 278.183 313.623 279.172 310.22C280.161 306.817 283.053 304.666 285.624 305.408C288.195 306.15 289.472 309.528 288.475 312.931Z" fill="#FAFAFA"/>
</svg>
