<svg xmlns="http://www.w3.org/2000/svg" viewBox="0 0 800 600">
  <!-- Background -->
  <rect width="800" height="600" fill="#f5f5f5"/>
  
  <!-- Central Hub Circle -->
  <circle cx="400" cy="300" r="100" fill="#4A90E2" opacity="0.9"/>
  <circle cx="400" cy="300" r="90" fill="#5B9BE3" opacity="0.9"/>
  
  <!-- Connected Data Sources -->
  <!-- Database 1 -->
  <rect x="100" y="150" width="80" height="100" rx="10" fill="#34495E"/>
  <rect x="110" y="170" width="60" height="10" fill="#ffffff" opacity="0.5"/>
  <rect x="110" y="190" width="60" height="10" fill="#ffffff" opacity="0.5"/>
  
  <!-- Spreadsheet -->
  <rect x="650" y="150" width="80" height="100" rx="5" fill="#27AE60"/>
  <rect x="660" y="170" width="60" height="10" fill="#ffffff" opacity="0.5"/>
  <rect x="660" y="190" width="60" height="10" fill="#ffffff" opacity="0.5"/>
  
  <!-- Cloud Storage -->
  <path d="M150 450 Q180 420 210 450 Q240 450 240 420 Q270 390 300 420 Q300 450 270 450 Z" fill="#3498DB"/>
  
  <!-- Analytics Dashboard -->
  <rect x="600" y="400" width="100" height="80" rx="5" fill="#E74C3C"/>
  <rect x="610" y="410" width="80" height="15" fill="#ffffff" opacity="0.3"/>
  <rect x="610" y="435" width="80" height="15" fill="#ffffff" opacity="0.3"/>
  <rect x="610" y="460" width="40" height="15" fill="#ffffff" opacity="0.3"/>
  
  <!-- Connection Lines -->
  <path d="M180 200 L300 300" stroke="#2C3E50" stroke-width="3" stroke-dasharray="5,5"/>
  <path d="M650 200 L500 300" stroke="#2C3E50" stroke-width="3" stroke-dasharray="5,5"/>
  <path d="M250 450 L300 400" stroke="#2C3E50" stroke-width="3" stroke-dasharray="5,5"/>
  <path d="M600 440 L500 350" stroke="#2C3E50" stroke-width="3" stroke-dasharray="5,5"/>
  
  <!-- Integration Icons -->
  <circle cx="300" cy="300" r="15" fill="#F1C40F"/>
  <circle cx="500" cy="300" r="15" fill="#F1C40F"/>
  <circle cx="400" cy="400" r="15" fill="#F1C40F"/>
  
  <!-- Center Icon -->
  <path d="M380 280 L420 280 L420 320 L380 320 Z" fill="#ffffff"/>
  <path d="M390 290 L410 290 M390 300 L410 300 M390 310 L410 310" stroke="#4A90E2" stroke-width="2"/>
</svg>
