<svg width="156" height="42" viewBox="0 0 156 42" fill="none" xmlns="http://www.w3.org/2000/svg">
<g clip-path="url(#clip0_26_42)">
<path d="M46.9089 0.936157H5.52305C2.47275 0.936157 0 3.43201 0 6.51081C0 9.5896 2.47275 12.0855 5.52305 12.0855H46.9089C49.9592 12.0855 52.432 9.5896 52.432 6.51081C52.432 3.43201 49.9592 0.936157 46.9089 0.936157Z" fill="#3f37c9"/>
<path d="M31.1794 29.4784H5.52305C2.47275 29.4784 0 31.9742 0 35.053C0 38.1318 2.47275 40.6277 5.52305 40.6277H31.1794C34.2297 40.6277 36.7025 38.1318 36.7025 35.053C36.7025 31.9742 34.2297 29.4784 31.1794 29.4784Z" fill="#3f37c9"/>
<path d="M46.9091 29.4784H44.8471C41.7968 29.4784 39.3241 31.9742 39.3241 35.053C39.3241 38.1318 41.7968 40.6277 44.8471 40.6277H46.9091C49.9594 40.6277 52.4321 38.1318 52.4321 35.053C52.4321 31.9742 49.9594 29.4784 46.9091 29.4784Z" fill="#3f37c9"/>
<path d="M46.909 15.2073H21.2527C18.2024 15.2073 15.7296 17.7031 15.7296 20.7819C15.7296 23.8607 18.2024 26.3566 21.2527 26.3566H46.909C49.9593 26.3566 52.4321 23.8607 52.4321 20.7819C52.4321 17.7031 49.9593 15.2073 46.909 15.2073Z" fill="#3f37c9"/>
<path d="M7.58497 15.2073H5.52305C2.47275 15.2073 0 17.7031 0 20.7819C0 23.8607 2.47275 26.3566 5.52305 26.3566H7.58497C10.6353 26.3566 13.108 23.8607 13.108 20.7819C13.108 17.7031 10.6353 15.2073 7.58497 15.2073Z" fill="#3f37c9"/>
<path d="M69.1828 16.1149H73.7253V19.2553H65.1172V4.49531H69.1828V16.1149ZM86.0091 16.8477H80.8236L80.0353 19.2553H75.7624L81.0932 4.49531H85.781L91.091 19.2553H86.7974L86.0091 16.8477ZM84.9928 13.7072L83.4163 8.93378L81.8607 13.7072H84.9928ZM107.413 19.2553H103.348L97.9339 11.0065V19.2553H93.8683V4.49531H97.9339L103.348 12.8488V4.49531H107.413V19.2553ZM122.195 4.49531V7.76136H118.296V19.2553H114.23V7.76136H110.372V4.49531H122.195ZM132.162 19.4019C130.793 19.4019 129.534 19.0808 128.387 18.4388C127.239 17.7828 126.326 16.8825 125.649 15.738C124.985 14.5796 124.653 13.2745 124.653 11.823C124.653 10.3714 124.985 9.07336 125.649 7.92884C126.326 6.77038 127.239 5.87012 128.387 5.22808C129.534 4.58604 130.793 4.26501 132.162 4.26501C133.545 4.26501 134.803 4.58604 135.937 5.22808C137.085 5.87012 137.99 6.77038 138.654 7.92884C139.318 9.07336 139.65 10.3714 139.65 11.823C139.65 13.2745 139.318 14.5796 138.654 15.738C137.99 16.8825 137.085 17.7828 135.937 18.4388C134.789 19.0808 133.531 19.4019 132.162 19.4019ZM132.162 15.5915C133.199 15.5915 134.015 15.2495 134.609 14.5656C135.218 13.8817 135.522 12.9675 135.522 11.823C135.522 10.6505 135.218 9.72936 134.609 9.0594C134.015 8.37548 133.199 8.03352 132.162 8.03352C131.111 8.03352 130.288 8.37548 129.693 9.0594C129.099 9.72936 128.802 10.6505 128.802 11.823C128.802 12.9814 129.099 13.9026 129.693 14.5865C130.288 15.2565 131.111 15.5915 132.162 15.5915ZM154.483 9.41531C154.483 10.3086 154.276 11.1251 153.861 11.8648C153.46 12.5906 152.845 13.1768 152.015 13.6235C151.199 14.0562 150.196 14.2725 149.007 14.2725H146.995V19.2553H142.93V4.49531H149.007C150.183 4.49531 151.178 4.70467 151.994 5.1234C152.824 5.54212 153.446 6.12135 153.861 6.8611C154.276 7.60084 154.483 8.45225 154.483 9.41531ZM148.613 11.0065C149.761 11.0065 150.335 10.4761 150.335 9.41531C150.335 8.34059 149.761 7.80323 148.613 7.80323H146.995V11.0065H148.613Z" fill="#3f37c9"/>
<path d="M66.8959 26.6615V37.5745H65.1224V26.6615H66.8959ZM80.4407 37.5745H78.6672L73.3312 29.4251V37.5745H71.5578V26.6458H73.3312L78.6672 34.7795V26.6458H80.4407V37.5745ZM91.4661 26.6615V28.1218H86.8764V31.3407H90.4549V32.801H86.8764V37.5745H85.103V26.6615H91.4661ZM100.375 37.6844C99.3685 37.6844 98.4403 37.4489 97.5899 36.9778C96.7498 36.4963 96.0809 35.8315 95.5831 34.9836C95.0956 34.1252 94.8519 33.1622 94.8519 32.0944C94.8519 31.0267 95.0956 30.0689 95.5831 29.2209C96.0809 28.373 96.7498 27.7135 97.5899 27.2425C98.4403 26.7609 99.3685 26.5202 100.375 26.5202C101.391 26.5202 102.319 26.7609 103.159 27.2425C104.01 27.7135 104.679 28.373 105.166 29.2209C105.653 30.0689 105.897 31.0267 105.897 32.0944C105.897 33.1622 105.653 34.1252 105.166 34.9836C104.679 35.8315 104.01 36.4963 103.159 36.9778C102.319 37.4489 101.391 37.6844 100.375 37.6844ZM100.375 36.1299C101.09 36.1299 101.728 35.9676 102.288 35.6431C102.848 35.3081 103.284 34.8371 103.595 34.2299C103.916 33.6123 104.077 32.9005 104.077 32.0944C104.077 31.2884 103.916 30.5818 103.595 29.9746C103.284 29.3675 102.848 28.9017 102.288 28.5772C101.728 28.2526 101.09 28.0904 100.375 28.0904C99.6589 28.0904 99.0211 28.2526 98.4611 28.5772C97.901 28.9017 97.4602 29.3675 97.1387 29.9746C96.8276 30.5818 96.672 31.2884 96.672 32.0944C96.672 32.9005 96.8276 33.6123 97.1387 34.2299C97.4602 34.8371 97.901 35.3081 98.4611 35.6431C99.0211 35.9676 99.6589 36.1299 100.375 36.1299ZM116.961 26.6615V28.1218H114.083V37.5745H112.309V28.1218H109.416V26.6615H116.961ZM122.864 28.1061V31.3093H126.598V32.7696H122.864V36.1142H127.064V37.5745H121.091V26.6458H127.064V28.1061H122.864ZM130.991 32.0944C130.991 31.0267 131.235 30.0689 131.722 29.2209C132.22 28.373 132.889 27.7135 133.729 27.2425C134.58 26.7609 135.508 26.5202 136.514 26.5202C137.665 26.5202 138.687 26.808 139.579 27.3838C140.481 27.9491 141.134 28.7551 141.539 29.8019H139.407C139.127 29.2262 138.738 28.797 138.241 28.5143C137.743 28.2317 137.167 28.0904 136.514 28.0904C135.798 28.0904 135.16 28.2526 134.6 28.5772C134.04 28.9017 133.6 29.3675 133.278 29.9746C132.967 30.5818 132.811 31.2884 132.811 32.0944C132.811 32.9005 132.967 33.6071 133.278 34.2142C133.6 34.8214 134.04 35.2924 134.6 35.6274C135.16 35.9519 135.798 36.1142 136.514 36.1142C137.167 36.1142 137.743 35.9729 138.241 35.6902C138.738 35.4076 139.127 34.9784 139.407 34.4026H141.539C141.134 35.4494 140.481 36.2555 139.579 36.8208C138.687 37.386 137.665 37.6687 136.514 37.6687C135.497 37.6687 134.569 37.4332 133.729 36.9621C132.889 36.4806 132.22 35.8158 131.722 34.9679C131.235 34.12 130.991 33.1622 130.991 32.0944ZM154.582 26.6615V37.5745H152.808V32.801H147.721V37.5745H145.948V26.6615H147.721V31.3407H152.808V26.6615H154.582Z" fill="#3f37c9"/>
</g>
<defs>
<clipPath id="clip0_26_42">
<rect width="156" height="41" fill="white" transform="translate(0 0.5)"/>
</clipPath>
</defs>
</svg>
